<?xml version="1.0" encoding="utf-8"?>
<!-- Generator: Adobe Illustrator 23.0.6, SVG Export Plug-In . SVG Version: 6.00 Build 0)  -->
<svg version="1.1" id="Livello_1" xmlns="http://www.w3.org/2000/svg" xmlns:xlink="http://www.w3.org/1999/xlink" x="0px" y="0px"
	 viewBox="0 0 405.8 130.7" style="enable-background:new 0 0 405.8 130.7;" xml:space="preserve">
<style type="text/css">
	.st0{fill:#76BC21;}
	.st1{fill-rule:evenodd;clip-rule:evenodd;fill:#76BC21;}
</style>
<g>
	<g>
		<path class="st0" d="M22.2,118.9C10.4,118.9,0,115.1,0,92.1V80.5c0-24.2,12-26.8,22.7-26.8c7.1,0,14.7,1.5,16.9,2.1v13.3h-8.3
			l-0.8-4.2c-1.4-0.1-3.6-0.3-5.2-0.3c-8,0-12,1.4-12,15.9v11.6c0,13.5,2.9,16,9.5,16c1.5,0,3.1,0,4.6-0.1V93.2l-5.2-0.6v-8.1h17.7
			v32.6C36.5,117.8,29.4,118.9,22.2,118.9z"/>
		<path class="st0" d="M44.8,117.8v-9.2l3.3-0.4V64.3l-3.3-0.4v-9.2c6.1-0.3,12.5-0.5,19.1-0.5c12.9,0,23.6,3.2,23.6,19.7v0.8
			c0,9-2.9,14.1-8,17.1l6.9,16.4l4.1,0.4v9.2H76.8l-9.5-23.2H61v13.6l3.3,0.4v9.2H44.8z M74.5,74.1c0-7.6-2.6-9.4-9.8-9.4
			c-1.3,0-2.3,0-3.6,0.1v20h4c7.3,0,9.5-2.9,9.5-10v-0.7H74.5z"/>
		<path class="st0" d="M94.2,130.6v-9.2l3.1-0.4V77.1l-3.1-0.4v-9.2h36.9v14.1h-8.4L122,78h-11.5v15.3h19.1v9.9h-19.1v17h11.4
			l0.8-3.8h8.4v14.3L94.2,130.6L94.2,130.6z"/>
		<path class="st0" d="M135.8,117.8v-9.2l3.1-0.4V64.3l-3.1-0.4v-9.2h36.9v14.1h-8.4l-0.7-3.6h-11.5v15.3h19.1v9.9h-19.1v17h11.4
			l0.8-3.8h8.4v14.3L135.8,117.8L135.8,117.8z"/>
		<path class="st0" d="M226.1,54.8V64l-3.2,0.4v53.5h-14.1l-13.4-34.5c-1-2.5-2.2-5.7-3.2-8.9h-0.3c0.3,3.6,0.6,7.6,0.6,11.1v22.7
			l3.3,0.4v9.2h-18.6v-9.2l3.1-0.4V64.4l-3.1-0.4v-9.2h17.1l13.2,33.3c1.1,2.8,2.5,6.3,3.4,9.3h0.2c-0.3-3.7-0.5-8.6-0.5-11.9v-21
			l-3.3-0.4v-9.2h18.8V54.8z"/>
		<path class="st0" d="M261.4,90.4v17.8l3.3,0.4v9.2h-19.9v-9.2l3.3-0.4V64.3l-3.3-0.4v-9.2h37.1v14.2h-8.4l-0.7-3.7h-11.5v15.3
			h19.1v9.9L261.4,90.4L261.4,90.4z"/>
		<path class="st0" d="M286.2,117.8v-9.2l3.3-0.4V64.3l-3.3-0.4v-9.2h19.7v9.2l-3.2,0.4v43.9l3.2,0.4v9.2H286.2z"/>
		<path class="st0" d="M310.4,117.8v-9.2l3.1-0.4V64.3l-3.1-0.4v-9.2h19.7v9.2l-3.3,0.4v42.9h9.5l0.8-4.3h8.4v14.9H310.4z"/>
		<path class="st0" d="M349.6,117.8v-9.2l3.1-0.4V64.3l-3.1-0.4v-9.2h16.7l8.2,20.2c1,2.5,2,5.5,2.9,8.1h0.2c0.9-2.6,2-5.6,3-8.1
			l8.3-20.3h16.9v9.2l-3.2,0.4v43.9l3.2,0.4v9.2h-19.4v-9.2l3.3-0.4V84.8c0-4.1,0.2-8,0.5-11.9H390c-1,3-2,6.6-3.2,9.4l-5,12.4h-8.6
			l-4.9-12.4c-1.1-2.9-2.2-6.5-3.2-9.4h-0.2c0.3,3.9,0.5,7.8,0.5,11.9v23.3l3.3,0.4v9.2L349.6,117.8L349.6,117.8z"/>
	</g>
	<g>
		<path class="st1" d="M120,14.8l-0.2,3.1l2.6-2c2.8-2.2,11.3-7,23.8-9.3l0.5-0.1l5.3-5.8l-1.6,0.2l-2.1,0.3l0,0
			c-11.1,1.5-19.5,4.9-23.7,7.5c-1.2-3.4-4.1-7.4-9.1-8.5L114.7,0L111,3.9l2,0.7C120.8,7.2,120,14.7,120,14.8"/>
		<path class="st1" d="M168.8,10.5V10h-0.5h-0.8c-24.9-0.8-42.4,9.3-51.3,16c0.1-0.5,0.2-1.1,0.3-1.8c0.4-3-0.1-5.7-1.3-8
			c-2.1-3.9-6.4-6.3-12.8-7.1L101.8,9l-0.5,0.4c-7,5.5-10.8,10.9-11.4,16.1l-0.1,1c-0.1,2.6,0.7,4.6,1.5,5.9
			c-4.2,0.9-11.9,5.7-13.2,17.3l-0.2,1.9l-0.1,1.2l1.2,0.3c1.8,0.4,11,1.9,22.6-5.8c-1.3,15.7,9.3,20.8,10.6,21.4l0.4,0.2l0.3,0.1
			l0.6-0.3c8.5-4,13.2-8.4,14.8-14l0.6-2.6c0.4-3-0.3-5.5-0.9-7.2c35.3-6.1,40.2-25.4,40.9-31.2l0.1-2.3L168.8,10.5z M84,48.1
			c0.6-3.9,3.1-11.7,13-12.3l3.6-0.4l-2.8-2.1c0,0-3.2-2.5-3.2-6.5l0.1-1c0.4-3.6,3.3-7.5,8.5-11.5c1.6,0.3,5.6,1.5,7.3,5.1
			c0.7,1.4,0.9,3.1,0.7,5.1c-0.4,3.2-2,7.1-4.6,11.3C99.8,46,87.1,48.2,84,48.1 M120.1,40.3l-2.7,0.3l1.8,2.1
			c2.4,2.8,3.4,5.6,3.1,8.3l-0.1,0.7c-0.7,3.6-3.7,7-8.9,10c-3.7-3.2-5.8-6.7-6.3-10.5c-0.1-1.1-0.2-2.2,0-3.4
			c0.4-3.2,1.9-6.5,4.5-9.7c16.4-20.4,42.7-22,49.6-22.1C155.9,36.2,120.5,40.2,120.1,40.3"/>
	</g>
</g>
</svg>
