<?xml version="1.0" encoding="utf-8"?>
<!-- Generator: Adobe Illustrator 23.0.6, SVG Export Plug-In . SVG Version: 6.00 Build 0)  -->
<svg version="1.1" id="Ebene_1" xmlns="http://www.w3.org/2000/svg" xmlns:xlink="http://www.w3.org/1999/xlink" x="0px" y="0px"
	 viewBox="0 0 153.4 145" style="enable-background:new 0 0 153.4 145;" xml:space="preserve">
<style type="text/css">
	.st0{fill:#8FB91E;}
	.st1{fill:#3B752F;}
</style>
<g>
	<g>
		<path class="st0" d="M66.9,38.2c0-15.1-12.2-27.3-27.3-27.3c-15.1,0-27.3,12.2-27.3,27.3v27.3h27.3C54.7,65.4,66.9,53.2,66.9,38.2
			 M39.6,76.3L39.6,76.3H1.5l0-38.2C1.5,17.1,18.6,0,39.6,0c21.1,0,38.2,17.1,38.2,38.2C77.8,59.2,60.7,76.3,39.6,76.3"/>
	</g>
	<g>
		<path class="st1" d="M40.9,36.9c3.8,3.8,10,3.8,13.9,0c3.8-3.8,3.8-10,0-13.9c-3.8-3.8-10-3.8-13.9,0C37.1,26.8,37.1,33,40.9,36.9
			"/>
	</g>
</g>
<g>
	<path class="st1" d="M9.2,92.2L9.2,92.2l0.1,3.2l-0.4,0.3v0.1L9,95.9c0-0.1,0-0.2,0.1-0.2h0.1v0.1l-1.8,0.6l-1.2,0.9l-0.5-0.1
		c0.1,0.2,0.2,0.3,0.3,0.3c0-0.1,0-0.2,0.1-0.2v0.1c-0.8,0.9-1.3,2.1-1.5,3.6l-0.1-0.1H4.4c0,0.1,0.1,0.1,0.2,0.1l0.1,0.1v0.1
		c0,0.5-0.1,0.8-0.2,0.8H4.4l0.1,0.1v0.1l-0.1,0.1l-0.2-0.1L4,102.4v0.1l0.1,0.1h0.1l0.2-0.1c0.2,0.2,0.3,0.9,0.5,2.1l-0.2,0.2H4.6
		v0.1h0.1v-0.1c0.2,0,0.4,0.2,0.4,0.6L5,105.5c0.1,0,0.5,0.6,1.1,1.7c0,0.1,0.5,0.5,1.4,1.1l1.2,0.3v0.2l-0.1,0.1v0.1l-0.1-0.1H8.4
		v0.2H8.3V109l0.1-0.1v-0.1l-0.4-0.1c-0.1,0.4-0.4,0.6-0.8,0.6v0.1c0.1,0,0.2,0.1,0.2,0.3v0.1l0.3-0.1l-0.1-0.1v-0.1
		c0.2,0,0.3,0,0.3-0.1v-0.1l-0.1-0.2h0.1l0.3-0.1h0.1l0.5,0.1v-0.1c0.2,0.1,0.3,0.1,0.3,0.2L9,109.5v0.1h0.1L9,109.6v0.2l0.1,0.1
		v0.1L9,110H9l-0.1-0.1c0,0.1-0.1,0.1-0.2,0.1l-0.1,0.3h0.1l0.3-0.1c0,0.1,0.1,0.1,0.3,0.1v0.1L9,110.9H9l-0.3-0.1L8.4,111v0.1h0.1
		v0.3l-0.1,0.1l-0.3,0.1v-0.2h0.1v-0.1l-0.2-0.1c0.3-0.3,0.4-0.6,0.4-0.8c-0.1,0-0.3,0.2-0.5,0.5l0.1,0.1H8l-0.2-0.1H7.7L7.6,111
		c0,0.1,0.1,0.2,0.3,0.2l-0.1,0.2l0.1,0.3l-0.1-0.1H7.7v0.1c0.1,0,0.2,0.2,0.3,0.5H7.9v0.1l-1.2-0.3l0.1-0.4l-0.4-0.1l-0.1,0.1
		c0-0.2-0.1-0.3-0.2-0.3H5.9c0,0.2-0.1,0.3-0.3,0.3c-0.8-0.3-1.8-1-2.9-2.1l0.1-0.3l-0.1-0.1H2.6l-0.1,0.1l-1-1.4l0.1-0.2H1.4
		c-0.2,0-0.5-0.6-0.9-1.8c0-0.4,0.2-0.6,0.5-0.6L1,104.9c0.1,0,0.1,0.1,0.1,0.2l0.1-0.1h0.1l0.1,0.1v-0.2h0.2l0.1,0.1l-0.2,0.2
		l0.1,0.1v0.1l-0.1-0.1H1.4l-0.1,0.5l0.4,0.1v-0.1c0.3,0,0.5,0.1,0.7,0.4l-0.1,0.1l0.1,0.1h0.1L2.3,106h0.1l0.2,0.1V106l0.2,0.1
		l0.1-0.1H3v0.1l0.1-0.1V106L3.1,106v-0.1l0.1-0.1l-0.1-0.1H3c0,0.2-0.1,0.3-0.2,0.3H2.7c-0.2-0.2-0.4-0.3-0.5-0.3l-0.1,0.1H1.8
		c-0.1,0-0.2-0.1-0.3-0.3c0-0.2,0.1-0.4,0.3-0.5L2,105v-0.1l0.3,0.1l0.1-0.1v-0.1l-0.1-0.1l0.1-0.3l-0.1-0.1l0.1-0.1H2.3l-0.1,0.1
		H2.1l-0.2-0.1v0.1l-0.1,0.1v-0.1l-0.4,0.1H0.7v0.1H0.4c-0.2,0-0.3-0.3-0.3-1l0.3,0.2h0.2v-0.1l-0.1-0.3l0.2-0.2H0.7l-0.3,0.2
		l-0.1-0.3l0.1-0.1l-0.3-0.1c0,0.3,0.1,0.4,0.1,0.4l-0.1,0.2c-0.1,0-0.2-0.5-0.2-1.5c0-1.1,0.1-1.6,0.2-1.6l-0.1-0.1v-0.1
		c0.1-1.4,0.7-2.9,1.8-4.6C3.9,93.4,6.3,92.2,9.2,92.2z M0.3,105.2L0.3,105.2l0.4,0.1v0.1l-0.2,0.2H0.4L0.3,105.2z M0.9,106L0.9,106
		l-0.1,0.1l0.7,0.4v-0.1c0-0.2-0.1-0.3-0.2-0.4L1.2,106H1.2L0.9,106z M1,101.5v0.1l0.2,0.1v-0.1L1,101.5z M1.1,103.2v0.1h0.3
		l-0.1-0.1H1.1z M1.2,102.3v0.2l0.2-0.1v-0.1l-0.1,0.1L1.2,102.3L1.2,102.3z M2.5,101.6L2.5,101.6l0.1,0.3c-0.2,0.1-0.4,0.2-0.6,0.2
		c0-0.1-0.1-0.2-0.3-0.2l-0.1,0.1v0.1c0.4,0,0.5,0.2,0.5,0.7H2.1c-0.1,0-0.1,0.1-0.1,0.2c-0.4,0.2-0.5,0.3-0.5,0.4h0.1
		c0.4-0.1,0.6-0.2,0.6-0.4l0.4-0.1v0.1l0.1-0.1h0.1l-0.1,0.1v0.1l0.1,0.1l0.1-0.1h0.1l0.1,0.1l-0.1,0.1h0.3V103l-0.1-0.2h0.1v0.1
		h0.2l-0.1-0.1v-0.1h0.1l0.3,0.2l0.2-0.1l-0.1-0.1v-0.1l0.1-0.4H3.6v-0.1H3.5v0.1c-0.3-0.1-0.5-0.2-0.5-0.3V102l-0.1,0.1H2.9
		C2.7,102,2.6,101.8,2.5,101.6L2.5,101.6z M1.4,98.7v0.1h0.2v-0.1H1.4z M1.4,100.9v0.1l0.1,0.1l0.1-0.1v-0.2H1.4z M1.7,103.7
		L1.7,103.7l0.2-0.1H1.8L1.7,103.7z M2,103.2l-0.1,0.3C2,103.5,2.1,103.4,2,103.2L2,103.2L2,103.2z M2,108.4v0.2h0.1l0.2-0.1
		l-0.1-0.1H2z M2.1,101.2v0.1h0.2v-0.1L2.1,101.2z M2.5,105.3l-0.1,0.2l0.1,0.2h0.1l0.1-0.2l0.2,0.1v-0.2L2.5,105.3z M2.4,108.6v0.2
		l0.1,0.1h0.1v-0.1L2.4,108.6L2.4,108.6z M2.7,104.5l-0.2-0.1H2.5v0.1l0.5,0.3H3l-0.1-0.3l0.1-0.1H3L2.7,104.5z M2.8,107.2l0.3,0.1
		l0.1-0.2H2.9L2.8,107.2z M3.7,104.9c0,0.1,0,0.2-0.1,0.2L3.3,105v0.1L3.2,105H3.2l-0.3,0.4l0.1,0.3H3c0-0.2,0.1-0.3,0.3-0.4h0.2
		v0.1H3.4l0.2,0.4H4l0.1-0.1h0.1l0.3,0.3h0.1c-0.3-0.5-0.5-0.7-0.6-0.7v-0.4H3.7z M2.9,109.1l0.1,0.1l0.1-0.1v0.1l0.2-0.1L3.2,109H3
		L2.9,109.1z M3.1,108l0.1,0.3h0.1l0.1-0.1V108l-0.1,0.1L3.3,108H3.1z M3.2,100.2v0.1h0.2v-0.1H3.2z M3.4,95.7v0.2
		c0.2-0.1,0.3-0.2,0.3-0.3H3.6L3.4,95.7z M3.6,109.6L3.6,109.6l0.2-0.1v-0.1L3.6,109.6z M3.6,104.3l0.1,0.2l0.3-0.3H3.8L3.6,104.3z
		 M3.8,109.3l0.1,0.1h0.1l0.1-0.3H4.1L3.8,109.3z M4,110.4L4,110.4c0.1,0.3,0.3,0.4,0.5,0.4h0.3v-0.1l-0.3-0.1l-0.2,0.1l0.1-0.1
		v-0.1L4,110.4z M4,104.1L4,104.1l0.1,0.1l0.3-0.1v-0.1H4.4L4,104.1z M4.2,109.4v0.2h0.1v-0.2H4.2z M4.6,100.1
		c0,0.1-0.1,0.1-0.2,0.1v0.1h0.1l0.3-0.3H4.6z M4.5,109.7L4.5,109.7v0.1v0.1l0.1,0.1l0.2-0.1v0.1h0.1c0-0.1,0.1-0.1,0.3-0.1l0.1-0.1
		v-0.1l-0.2,0.1l-0.4-0.1H4.5z M4.5,108.4v0.3h0.1l0.1-0.3H4.5z M4.9,111l-0.1,0.2h0.1l0.3-0.1V111H5.1H4.9L4.9,111z M4.9,106.3
		L4.9,106.3l0.2,0.1v-0.1L4.9,106.3z M5.3,110.4l-0.1,0.2h0.1V110.4L5.3,110.4z M5.2,107.6L5.2,107.6l0.1,0.1l-0.1,0.2l0.1,0.1h0.1
		C5.4,107.7,5.3,107.6,5.2,107.6z M5.7,107.9l-0.3,0.3L6,108V108L5.7,107.9z M5.5,106.8v0.1l0.1,0.1l0.1-0.1L5.5,106.8L5.5,106.8z
		 M5.5,108.7v0.3c0,0.2,0.1,0.4,0.3,0.5H6v-0.3L5.5,108.7z M6.4,110.8L6.4,110.8l0.1,0.1h0.2v-0.1L6.4,110.8z M6.8,111.2L6.8,111.2
		l-0.1,0.1h0.1l-0.1,0.1v0.1h0.3v-0.2L6.8,111.2z M7.1,110.8l0.1,0.4h0.3V111c-0.1,0-0.1-0.1-0.1-0.2H7.1z M7.6,108.4L7.6,108.4
		l0.1,0.1H7.5v0.1l0.2-0.1l0.1,0.1v-0.1L7.6,108.4L7.6,108.4z M8.8,111.8c0.3,0,0.4,0.1,0.4,0.4l0.1,0.2H9.2l-0.5,0.1v-0.1l-0.2-0.3
		l-0.1,0.1H8.3V112L8.8,111.8z M9.2,111.1L9.2,111.1l0.1,0.5l-0.1,0.1v0.1L9,111.7C9,111.3,9.1,111.1,9.2,111.1z M14.9,100l-0.7-0.7
		l0.1-0.1v-0.1l-0.8-1.4c-0.7-0.8-1.5-1.4-2.6-1.7C10.3,96,10,95.9,10,95.8v-3.4l0.1-0.1c2.1,0,4.1,0.8,6.1,2.4
		c1.2,1.3,1.9,2.4,2.1,3.2L18.2,98v0.1l0.1,0.1v-0.4c0.1,0,0.1,0.1,0.2,0.3L14.9,100z M18.8,102.6v0.1l-0.1,0.3l-0.3-0.1l-0.2,0.1
		l0.1,0.2l0.3-0.1v0.1h0.2l0.1-0.1h0.1v0.1l-0.1,0.2h0.3c0,1.8-0.8,3.8-2.3,5.9c-2,2.1-4.3,3.1-6.8,3.1v-0.1c0.1,0,0.2,0,0.2-0.1H10
		v-1h0.1v-0.4h0.2l0.2,0.1h0.1l0.3-0.1l-0.4-0.5v-0.3c0-0.5,0.2-0.8,0.5-0.8l-0.1-0.1L11,109v-0.3l-0.4,0.1v-0.2l0.6-0.1v0.1
		l-0.1,0.1v0.1h0.1c0-0.2,0.4-0.5,1.1-0.8c0.5-0.5,0.8-0.7,0.8-0.9h0.5v-0.1l-0.1-0.1v-0.1l-0.1,0.1h-0.1v-0.1
		c0-0.1,0.2-0.2,0.6-0.5V106l-0.1-0.3l0.1-0.1h0.1l0.1,0.1l0.1-0.1h0.1c0.1,0,0.2,0.1,0.2,0.2h0.1v-0.3h-0.3c-0.1,0-0.1-0.1-0.1-0.2
		l0.1-0.5h0.1l0.2,0.1h0.1l-0.1-0.1c0-0.2,0.1-0.3,0.2-0.3v-0.1c-0.2,0-0.3,0-0.3-0.1v-0.4l0.1-0.1v-0.1l0.1,0.1h0.1
		c0-0.1,0.1-0.1,0.2-0.1l0.1-0.4h-0.1v0.1l-0.1,0.1h-0.2v-0.1c-0.1-0.5-0.1-0.8,0-0.8h0.1v-0.1l-0.1-0.2H18.8z M10.1,109.2h0.1
		l-0.1,0.3h-0.1l-0.1-0.1v-0.1L10.1,109.2z M10,110h0.1v0.5l-0.1,0.1V110z M10,103.8h0.3v-0.2l-0.1,0.1h-0.1l-0.2-0.1v-1.1l0.4,0.1
		l0.2-0.1h0.1l0.1,0.1l0.1-0.1h2.9l0.1,0.1v0.1h-0.1l-0.4-0.1l-0.1,0.1v0.1l0.6,0.2l0.1-0.2h0.1v1.3c-0.3,0-0.6-0.2-0.8-0.4h-0.4
		v-0.1h-0.4c0-0.2-0.1-0.3-0.3-0.3v0.1c0.1,0.4,0.2,0.6,0.4,0.6c0.2,0,0.2,0.1,0.2,0.2l0.1,0.1h0.1c0-0.2,0.1-0.3,0.2-0.3l0.2-0.1
		l0.4,0.3h0.2l0.1-0.1H14l0.1,0.5v0.9l-0.1,0.1l0.1,0.1v0.1l-0.1,0.5l-0.5-0.1l-0.1,0.2h-0.1v-0.1l-0.5,0.1h-0.9l-0.1-0.1l-0.1,0.1
		h-0.5l-0.1-0.1l-0.1,0.1h-0.4l-0.3-0.1l-0.3,0.1h0V103.8z M10.4,104.8v0.3l0.2,0.1l0.1-0.4L10.4,104.8z M10.8,103
		c0.1,0,0.3,0.1,0.5,0.3c0-0.1,0.1-0.2,0.2-0.2c0,0.1,0.2,0.2,0.5,0.4v-0.1c-0.2,0-0.4-0.1-0.6-0.4H11L10.8,103z M11,111.4L11,111.4
		l-0.1,0.2l0.2,0.1v-0.1L11,111.4z M11,109.8L11,109.8l0.2,0.1v-0.1H11z M11.3,105v0.1l0.2,0.5h0.1v-0.4c-0.1,0-0.1-0.1-0.1-0.2
		H11.3z M11.4,105.8c0,0.1-0.1,0.2-0.2,0.2v0.1l0.3-0.1v-0.2H11.4z M11.4,104l0.1,0.3h0.1l0.1-0.1l-0.1-0.1H11.4z M11.5,104.4v0.3
		h0.1L11.5,104.4L11.5,104.4z M12.6,110.6L12.6,110.6l0.1,0.1l0.1-0.2h-0.1L12.6,110.6z M12.9,104.5l0.1,0.4l0.2-0.2l-0.2-0.2H12.9z
		 M14,107.4l0.1,0.2h0.1l0.1-0.1v-0.1l-0.1-0.1C14,107.2,14,107.3,14,107.4z M14.4,106.9l0.1,0.2h0.1l0.1-0.1v-0.1l-0.1-0.1
		C14.4,106.7,14.4,106.7,14.4,106.9z M14.8,107.1L14.8,107.1l0.1,0.1h0.2v-0.1L14.8,107.1z M14.9,104.5L14.9,104.5l0.1,0.3h0.2
		l-0.1-0.3H14.9z M14.9,106l0.1,0.1h0.1L14.9,106L14.9,106z M14.9,94.5L14.9,94.5c0.1,0.1,0.1,0.1,0.1,0.3h0.1v-0.3H14.9z
		 M15.2,102.7c0,0.1,0,0.2-0.1,0.2l-0.1-0.1h-0.1v0.1c0,0.1,0.2,0.2,0.7,0.3c0,0.1,0,0.2,0.1,0.2l0.1-0.1v-0.1
		c-0.1,0-0.2-0.1-0.2-0.3l-0.1,0.1h-0.1c-0.1,0-0.2-0.1-0.2-0.3H15.2z M15.3,105l-0.1,0.3h0.2l0.3-0.1l-0.1-0.1V105l-0.1,0.1h-0.1
		L15.3,105L15.3,105z M15.7,106.8L15.7,106.8v0.1h0.2l-0.1-0.3L15.7,106.8z M16.2,103.4L16.2,103.4l-0.1-0.1l-0.1,0.1v0.1l0.1-0.1
		L16.2,103.4l0.3,0.2v-0.4h-0.1L16.2,103.4z M16,103.7L16,103.7l0.1,0.3L16,104h0.2v-0.1L16,103.7L16,103.7z M16.7,103.9l0.1,0.2H17
		v-0.1L16.7,103.9z M17.7,98.3c0,0.1-0.1,0.2-0.3,0.2v0.1h0.3l0.4-0.1v-0.1h-0.1l-0.1,0.1L17.7,98.3L17.7,98.3z M17.4,103.3
		L17.4,103.3l0.3,0.1l-0.1-0.1L17.4,103.3z M18.6,103.9l-0.1,0.2h0.2v-0.2H18.6z M19.2,102.6l0,0.1c-0.1,0-0.1,0-0.1-0.1H19.2z"/>
	<path class="st1" d="M25.6,92.1L25.6,92.1l0.9,0.1l0.1,0.1v8.1l-0.1,0.3l0.1,0.2h-0.1l0.1,0.1v2.4l-0.1,0.1l0.1,0.1v8.7l-0.1,0.1
		H26v-0.2h-0.1c0,0.1,0,0.2-0.1,0.2h-2.3v-0.2h-0.1v0.2h-1.2l-0.1-0.1V92.3l0.1-0.1L25.6,92.1L25.6,92.1z M22.7,110.5v0.1h0.2v-0.1
		H22.7z M22.8,111.5v0.2l0.1-0.1v-0.1H22.8z M23,111.5h0.3l-0.2-0.1L23,111.5z M24,110.9L24,110.9c0.3,0,0.5,0,0.5-0.1v-0.1h-0.3
		L24,110.9z M24.2,111.6l0.1,0.2h0.1v-0.2H24.2z M24.8,103.1c0,0.2-0.1,0.3-0.4,0.4v0.1h0.4L24.8,103.1L24.8,103.1L24.8,103.1z
		 M24.5,109.4L24.5,109.4l0.2,0.3h0.1v-0.3H24.5z M25,111.6l-0.1,0.1v0.2L25,111.6L25,111.6L25,111.6z M25,109.7v0.1h0.2L25,109.7
		L25,109.7z M25.2,103.9v0.1h0.3l0.1-0.3h-0.1L25.2,103.9z M25.3,111.5L25.3,111.5l-0.1,0.1h0.2L25.3,111.5z M25.8,107.4
		c0,0.1-0.1,0.2-0.4,0.2v0.1l0.6-0.2v-0.1H25.8z M25.7,100.7l0.1,0.1h0.1v-0.1H25.7z M26,107l-0.1,0.3H26l0.1-0.3H26z M26.3,100.3
		c0,0.2-0.1,0.3-0.3,0.3v0.1H26c0.2-0.1,0.3-0.2,0.4-0.3v-0.1H26.3z M26,103.1v0.1h0.3v-0.1H26z M26.2,98.3v0.1h0.2v-0.1H26.2z
		 M27.5,92.2h3.9c2.9,0.2,4.3,0.6,4.3,1.2H36c1.3,1,2,2.4,2,4.4c0,2.1-0.8,3.7-2.5,4.5l-0.1-0.1c0,0.2-0.3,0.4-0.9,0.5v0.1
		c0.8,0,1.6,0.7,2.3,2.2l-0.1,0.1h-0.3l-0.1-0.1h-0.1l-0.1,0.3h0.1l0.4-0.1c0.2,0,0.3,0.5,0.4,1.6h-0.2l-0.4-0.1l-0.3,0.4
		c0.1,0,0.2,0.1,0.4,0.3v0.1l-0.1,0.1v0.1h0.5v-0.1h0.1l0.4,2.2c-0.3,0.1-0.4,0.2-0.4,0.3v0.1h0.4c0.1,0,0.3,0.3,0.4,1l-0.2,0.2v0.2
		l0.2-0.1h0.1c0.1,0,0.3,0.3,0.6,0.8l-0.3,0.3h-1.1l0.1-0.6v-0.2c-0.1,0-0.2,0.3-0.3,0.8H36l-0.1-0.1l0.1-0.1h0.1l0.4,0.1V112
		l-0.1-0.3l0.2-0.3l0.4,0.1l0.3-0.1v-0.4c-0.7,0.2-1.1,0.3-1.1,0.4l0.1,0.4l-0.1,0.1h-0.6c0,0.2,0,0.4-0.1,0.4h-1.1
		c-0.2,0-0.4-0.6-0.9-1.7l0.1-0.2c-0.1,0-0.4-1.3-0.8-3.8c-0.2-0.6-0.6-1.1-1.2-1.4c-0.6-0.2-1.3-0.3-2.3-0.3v-0.2h0.1v-0.1h-0.1
		c0,0.1-0.1,0.1-0.3,0.1v0.2l-1.2,0.1h-0.2l-0.1-0.2v-1.4c0-0.1,0.1-0.2,0.4-0.2v-0.1h-0.1l-0.2,0.1l-0.1-0.1v-1.8l0.1-0.1h1.8
		c2.8,0,4.2-0.8,4.2-2.5v-0.6c-0.2-1.4-0.8-2.1-2-2.1c0-0.1-0.6-0.1-1.8-0.1h-2.2l-0.1-0.1v-3.5L27.5,92.2z M28.3,103.3L28.3,103.3
		l0.4,0.3h0.6v-0.1h-0.6c-0.1,0-0.2-0.1-0.2-0.2L28.3,103.3z M28.5,101.6v0.1l0.1,0.2l-0.1,0.1v0.2h0.3l-0.1-0.1V102l0.2-0.3
		L28.5,101.6L28.5,101.6z M29.2,101.4l-0.1,0.3h0.2v-0.3H29.2z M29.5,103.6l0.1,0.1h0.4v-0.1l-0.1-0.1L29.5,103.6z M30.3,102.9
		l0.1,0.2h0.1l0.1-0.1v-0.1H30.3L30.3,102.9z M31.9,101.3l0.1,0.2l-0.1,0.1h-0.1l-0.1-0.1c-0.2,0-0.6,0.1-0.9,0.4h-0.2l0.1,0.1v0.1
		l-0.1,0.4h0.2c0.3-0.1,0.4-0.3,0.4-0.6l0.2-0.2h0.3c0.1,0,0.2,0.1,0.2,0.3h0.1l0.2-0.4c-0.1,0-0.1-0.1-0.1-0.3l-0.1-0.1H31.9z
		 M32.4,104.3l0.2,1.1h0.1v-0.2l-0.1-0.6l0.1-0.2v-0.1H32.4z M33.1,102.6l-0.1,0.3l0.7,0.3V103c-0.1,0-0.1-0.1-0.1-0.3l-0.3-0.2
		H33.1z M33.1,100.6l0.3,0.3h0.3l0.1-0.1h-0.6v-0.1H33.1z M33.3,108.6c0.1,0.3,0.1,0.4,0.2,0.4l0.1-0.1v-0.1l-0.2-0.2H33.3z
		 M33.4,105.9l-0.1,0.3v0.1h0.1V105.9L33.4,105.9L33.4,105.9z M33.7,103.7L33.7,103.7l-0.1,0.2l0.3-0.1v-0.1H33.7z M33.7,107.1
		l0.3,0.4h0.1v-0.1c-0.1,0-0.2-0.1-0.2-0.3H33.7z M33.7,110c0.3,0.1,0.5,0.2,0.6,0.4l0.6,0.2v-0.2c-0.3,0-0.6-0.2-0.8-0.5l-0.1-0.1
		h-0.2L33.7,110z M33.9,109l0.1,0.1h0.2V109H33.9z M33.9,110.9L34,111h0.1L33.9,110.9L33.9,110.9z M33.9,101.4v0.6h0.1v-0.6H33.9z
		 M34.1,108.2L34.1,108.2l0.2,0.1v-0.2L34.1,108.2z M34.4,99.7l-0.1,0.2l0.1,0.2h0.1l0.1-0.4H34.4z M34.7,105.9L34.7,105.9
		L34.7,105.9l0.3-0.1v-0.2L34.7,105.9z M34.7,111.9v0.2h0.1l0.4-0.1v-0.2h-0.1L34.7,111.9z M34.9,106.6L34.9,106.6l0.2-0.2H35
		L34.9,106.6z M35.2,107.9l-0.2-0.1l-0.2,0.1v0.1h0.5l0.1,0.1c0.3-0.1,0.4-0.2,0.4-0.3l-0.1-0.1h-0.1
		C35.6,107.9,35.4,107.9,35.2,107.9z M34.9,108.7l0.1,0.3H35l0.3-0.1v-0.2H34.9z M35.1,107.5L35.1,107.5l0.1,0.2h0.1l0.1-0.1
		L35.1,107.5z M35.6,110.6c0,0.2,0,0.3-0.1,0.3l0.1,0.1v0.1l-0.1,0.2v0.1h0.3L35.6,110.6L35.6,110.6z M35.5,96.5L35.5,96.5l0.2-0.1
		h-0.1L35.5,96.5z M35.7,106.6v0.1l0.4-0.1v-0.1H35.7z M35.8,109.4c0,0.1,0.2,0.2,0.5,0.4h0.2v-0.1c0-0.1-0.2-0.2-0.5-0.4H35.8z
		 M35.9,107.3H36l0.3-0.2V107h-0.1C36,107.1,35.9,107.2,35.9,107.3z M36.2,105.5l-0.1,0.2l0.3,0.2l0.1-0.1h0.1l0.4,0.3v-0.6h-0.2
		l-0.4,0.1L36.2,105.5z M36.1,108.7v0.2h0.3v-0.2H36.1z M36.2,104.7L36.2,104.7l0.2,0.1v-0.1H36.2z M36.4,106.1v0.4
		c0.1,0,0.2-0.1,0.2-0.2L36.4,106.1L36.4,106.1z M36.7,110.2l0.1,0.1l0.1-0.1H36.7z M37.5,110.6v0.1h0.3v-0.1H37.5z M38.8,112.8h0.4
		l0.1,0.1l-0.1,0.1h-0.4l-0.2-0.1L38.8,112.8z"/>
	<path class="st1" d="M44.1,92.1v0.2c-0.1,0-0.1,0.1-0.1,0.3l-0.1,0.1h-0.1l-0.3-0.1v0.1c0,0.1,0.1,0.2,0.4,0.3l0.1,0.4v0.1h-0.2
		v0.1c0.2,0,0.2,0,0.2,0.1h0.1l0.1-0.4l-0.2-0.2v-0.1l0.4-0.1h0.2l0.2-0.4v-0.1l-0.2-0.1h-0.1l-0.4,0.1l0-0.1h1.1c0,0.1,0,0.3,0,0.5
		l0.1-0.1h0.2l0.1,0.2v0.6h-0.2l0.1,0.1v0.1l-0.1,0.2l0.2,0.4v11.6c0,0.9,0.4,1.6,1.2,2.1v0.1l-0.1,0.1h-0.1l-0.1-0.1v0.1h0.6v0.1
		l0.8-0.1h0.2v2.9h0l-0.1-0.1h-0.4l-0.1,0.1l-0.1-0.1v0.1l0.6,0.1v0.1l-0.1,0.1l0.2,0.2v1.1c-0.1,0-0.3,0-0.7,0
		c-0.1,0-0.2-0.1-0.2-0.2h-0.1l-0.1,0.2c-0.6,0-1.2-0.1-1.8-0.3c-2.3-0.9-3.7-2.9-4.3-6.1V94.6h0.4l0.4,0.2c0-0.2,0.1-0.3,0.3-0.3
		c0-0.3,0-0.4,0.1-0.4h0.4l0.2,0.1l0.1-0.2L43,94h-0.4v-0.1c-0.2,0-0.4-0.1-0.6-0.4l-0.1,0.2c0.1,0,0.2,0,0.2,0.1v0.4h-0.4l-0.1-0.1
		v-0.4c0.1,0,0.2,0,0.2-0.1c-0.2,0-0.4-0.1-0.5-0.4v-0.9l0.3-0.3h1.1c-0.1,0.1-0.2,0.2-0.5,0.3v0.1h0.1l0.4-0.4l0.2,0.1v-0.2H44.1z
		 M41.2,94.5v-0.7h0.1v0.1l0.1,0.5l-0.1,0.1H41.2z M41.8,93.1V93h-0.4v0.2L41.8,93.1z M41.5,95.6l0.1-0.4v-0.1l-0.3,0.1L41.5,95.6
		L41.5,95.6z M41.5,103.5L41.5,103.5L41.5,103.5L41.5,103.5z M41.8,97.3v-0.6h-0.2l-0.1,0.2L41.8,97.3L41.8,97.3z M43.1,94.8
		l-0.1-0.2c-0.4,0.1-0.7,0.3-0.7,0.4l0.1,0.1C42.5,95,42.8,94.8,43.1,94.8z M42.7,106.1L42.7,106.1l0.1-0.3h-0.1V106.1z M43.7,93.4
		L43.7,93.4l-0.7-0.6v0.3c0.2,0.2,0.4,0.4,0.4,0.6c0.1,0,0.1-0.1,0.2-0.4H43.7z M43,105.7L43,105.7l0.2,0v0H43z M43.1,107.3
		L43.1,107.3l0.1,0.2C43.3,107.3,43.2,107.3,43.1,107.3z M43.4,107.3V107h-0.2C43.3,107.2,43.3,107.3,43.4,107.3z M43.6,106
		l-0.1,0.4c0,0.1,0,0.2,0.1,0.2c0-0.2,0-0.4,0.1-0.6l-0.3-0.3h-0.1l-0.1,0.1L43.6,106z M44,94.4v-0.3h-0.2v0.1l0.1,0.2H44z
		 M43.8,108.5h0.3v-0.1l-0.3-0.1V108.5z M44.4,94.8v-0.2l-0.1-0.1v0.3H44.4z M44.6,107.9v0.2h0.1v-0.2l0.1-0.4h-0.1L44.6,107.9z
		 M45.5,93.3L45.5,93.3c-0.2-0.1-0.3-0.2-0.4-0.4H45l-0.2,0.2l0.2,0.4H45C45.2,93.4,45.3,93.3,45.5,93.3z M45.4,109L45.4,109
		l0.1-0.2h-0.4C45.1,108.9,45.2,109,45.4,109z M45.7,94.5l-0.4-0.3h-0.2C45.1,94.4,45.3,94.5,45.7,94.5z M45.2,95.2v-0.4h-0.1v0.4
		H45.2z M47.4,89.9L47.4,89.9L47.4,89.9h-2.1l0-2.3h0.2l0.1-0.2v-0.1h-0.1v0.1c-0.1,0-0.1,0-0.2,0v-0.2h3v0.2
		c-0.1,0.2-0.2,0.3-0.4,0.3l0.1,0.1l0.2-0.1v2h-0.1c0-0.2,0-0.4-0.1-0.4l-0.4-0.2v0.1c0,0.1,0.1,0.1,0.4,0.2l0.1,0.4H47.4z
		 M45.3,107.8l0.1,0.2v0.4l0.2,0.1c0-0.3,0.3-0.4,0.6-0.4V108L45.3,107.8L45.3,107.8L45.3,107.8z M45.4,106.2l0.2,0.1v-0.1l-0.1-0.1
		L45.4,106.2z M45.8,92.1L45.8,92.1l-0.1,0.2v0.1c-0.2,0-0.3-0.1-0.3-0.2H45.8z M45.5,89.1L45.5,89.1l0.2,0.1c0-0.1,0.1-0.2,0.2-0.2
		v-0.1L45.5,89.1z M45.6,109.8c0,0.3,0.3,0.5,0.8,0.6h0.1l0.1-0.1v-0.1l-0.1-0.1C45.9,110,45.6,109.9,45.6,109.8L45.6,109.8
		L45.6,109.8z M45.7,111.8h0.2v-0.4h-0.2V111.8z M46.3,88.9L46.3,88.9l0.2,0.3v0.1c0,0.1-0.1,0.2-0.3,0.2v0.1h0.4l0.1-0.4
		C46.5,89.1,46.4,88.9,46.3,88.9z M46.3,108.2L46.3,108.2l0.1,0.2h0.2l0.1-0.1C46.7,108.3,46.6,108.2,46.3,108.2L46.3,108.2z
		 M47.3,110.4l0.2-0.9v-0.1l-0.6,0.2l-0.2-0.2C46.6,109.9,46.8,110.2,47.3,110.4z M46.8,110.8L46.8,110.8l-0.1-0.1h-0.1L46.8,110.8z
		 M46.8,108.8L46.8,108.8l0.6-0.1v-0.3l-0.1-0.1l-0.6,0.1L46.8,108.8z M47.3,110.8h0.4v-0.1l-0.4-0.1V110.8z M47.3,111.6h0.4v-0.1
		h-0.2L47.3,111.6z M54.7,92.1v0.2l0.2-0.1l0.4,0.4h0.1v-0.1c-0.3-0.1-0.4-0.2-0.5-0.3H56l0.3,0.3v0.9c-0.1,0.2-0.3,0.4-0.5,0.4
		c0,0.1,0.1,0.1,0.2,0.1v0.4l-0.1,0.1h-0.4v-0.4c0-0.1,0.1-0.1,0.2-0.1l-0.1-0.2c-0.2,0.2-0.4,0.4-0.6,0.4V94h-0.4l-0.1,0.1l0.1,0.2
		l0.2-0.1h0.4c0.1,0,0.1,0.1,0.1,0.4c0.2,0,0.3,0.1,0.3,0.3l0.4-0.2h0.4V106c-0.6,3.2-2,5.3-4.3,6.1c-0.6,0.2-1.3,0.3-1.8,0.3
		l-0.1-0.2H50c0,0.1-0.1,0.2-0.2,0.2c-0.3,0-0.5,0-0.7,0v-1.1l0.2-0.2l-0.1-0.1v-0.1l0.6-0.1v-0.1l-0.1,0.1l-0.1-0.1h-0.4l-0.1,0.1
		h0v-2.9h0.2l0.8,0.1v-0.1h0.6v-0.1l-0.1,0.1h-0.1l-0.1-0.1v-0.1c0.8-0.4,1.2-1.1,1.2-2.1V94l0.2-0.4l-0.1-0.2v-0.1l0.1-0.1h-0.2
		v-0.6l0.1-0.2H52l0.1,0.1c0-0.2,0-0.4,0-0.5h1.1l0,0.1l-0.4-0.1h-0.1l-0.2,0.1v0.1l0.2,0.4h0.2l0.4,0.1v0.1l-0.2,0.2l0.1,0.4h0.1
		c0-0.1,0.1-0.1,0.2-0.1v-0.1h-0.2v-0.1l0.1-0.4c0.3-0.1,0.4-0.2,0.4-0.3v-0.1l-0.3,0.1h-0.1l-0.1-0.1c0-0.2,0-0.3-0.1-0.3v-0.2
		H54.7z M51.3,89.9L51.3,89.9L51.3,89.9h-2.1l0-2.3h0.2l0.1-0.2v-0.1h-0.1v0.1c-0.1,0-0.1,0-0.2,0v-0.2h3v0.2
		c-0.1,0.2-0.2,0.3-0.4,0.3l0.1,0.1l0.2-0.1v2h-0.1c0-0.2,0-0.4-0.1-0.4l-0.4-0.2v0.1c0,0.1,0.1,0.1,0.4,0.2l0.1,0.4H51.3z
		 M49.4,89.1L49.4,89.1l0.2,0.1c0-0.1,0.1-0.2,0.2-0.2v-0.1L49.4,89.1z M50.2,88.9L50.2,88.9l0.2,0.3v0.1c0,0.1-0.1,0.2-0.3,0.2v0.1
		h0.4l0.1-0.4C50.4,89.1,50.3,88.9,50.2,88.9z M50.9,109.1l-0.6-0.1l-0.1,0.1v0.3l0.6,0.2v-0.1L50.9,109.1z M51,110.4h-0.2v0.1h0.4
		L51,110.4z M51.2,108.8c-0.2,0.1-0.3,0.1-0.3,0.2l0.1,0.1h0.2v-0.1V108.8L51.2,108.8z M52.1,92.1c-0.1,0.1-0.2,0.2-0.3,0.2v-0.1
		l-0.1-0.1v-0.1H52.1z M52.4,94.3h-0.2l-0.4,0.3C52.2,94.5,52.4,94.4,52.4,94.3z M52.1,106l-0.1,0.1v0.1l0.2-0.1L52.1,106z
		 M53,107.4L53,107.4l-1,0.2v0.1c0.4,0,0.6,0.1,0.6,0.4l0.2-0.1v-0.4L53,107.4L53,107.4z M52.5,93.6L52.5,93.6l0.3-0.4L52.5,93h-0.1
		c-0.1,0.2-0.3,0.3-0.4,0.3v0.1C52.2,93.4,52.3,93.4,52.5,93.6z M52.4,95.2v-0.4h-0.1v0.4H52.4z M52.8,104.2l-0.4,0.1v0.1h0.4V104.2
		z M52.7,96.4c0.1,0.2,0.1,0.4,0.2,0.4c0-0.3,0.1-0.5,0.4-0.6v-0.3l-0.7,0.5v0.1H52.7z M53.5,103.1l-0.2,0.2l-0.6-0.2v0.1l0.2,0.9
		C53.3,103.8,53.5,103.5,53.5,103.1z M52.8,110.5h-0.2v0.4h0.2V110.5z M53.2,108.5h-0.4v0.2h0.1C53.1,108.6,53.2,108.6,53.2,108.5z
		 M53.3,94.9v-0.3l-0.1,0.1v0.2H53.3z M53.5,104.3L53.5,104.3l-0.2,0.1h0.1L53.5,104.3z M53.6,107.2h-0.1l0.1,0.4v0.2h0.1v-0.2
		L53.6,107.2z M54,104.9L54,104.9l-0.1-0.1l-0.3,0.3c0.1,0.1,0.1,0.3,0.1,0.6c0.1,0,0.1-0.1,0.1-0.2l-0.1-0.4L54,104.9z M54.5,103.4
		L54.5,103.4c-0.1,0.1-0.3,0.3-0.8,0.4l-0.1,0.1v0.1l0.1,0.1h0.1C54.2,103.9,54.5,103.7,54.5,103.4L54.5,103.4z M53.8,95.5l0.1-0.2
		v-0.1h-0.2v0.3H53.8z M54.2,106.1H54v0.2C54.1,106.4,54.2,106.3,54.2,106.1z M54.4,107.9l-0.3,0.1v0.1h0.3V107.9z M54.2,106.6
		l0.1-0.1v-0.1C54.2,106.4,54.2,106.4,54.2,106.6z M54.3,104.8L54.3,104.8l0.1,0l0,0H54.3z M55.2,95.2L55.2,95.2
		c0-0.2-0.2-0.4-0.6-0.5l-0.1,0.2C54.7,94.9,55,95,55.2,95.2z M54.7,104.9h-0.1l0.1,0.3h0.1V104.9z M56.1,93.2V93h-0.4v0.1
		L56.1,93.2z M55.8,97.4l0.2-0.4l-0.1-0.2h-0.2L55.8,97.4L55.8,97.4z M56.1,95.7l0.1-0.4l-0.3-0.1v0.1L56.1,95.7L56.1,95.7z
		 M56,103.5L56,103.5L56,103.5L56,103.5z M56.1,94.5L56.1,94.5v-0.6v-0.1h0.1v0.7H56.1z"/>
	<path class="st1" d="M59.6,93.7h0.1l2.4,4.2c-0.1,0-0.1,0.1-0.1,0.2c-0.3,0-0.4,0.2-0.4,0.5L61,98.4v0.1c0,0.1-0.3,0.2-0.8,0.4
		L60.1,99H60l-0.3-0.4h-0.1V93.7z M61.2,98.7c0.2,0.1,0.3,0.2,0.4,0.3l-0.1,0.4c0.1,0,0.1-0.1,0.1-0.2h0.4l0.2-0.1h0.1l0.1,0.1
		l-0.1,0.2v0.1h0.1c0.2-0.1,0.4-0.2,0.4-0.3h0.2c0.3,0.2,0.4,0.4,0.4,0.7v0.1c-0.5,0-0.8,0.1-0.9,0.2h-0.8c0,0.1-0.1,0.2-0.4,0.2
		l-0.2,0.2l-0.4-0.1h-0.2l-0.5,0.3h-0.2l-0.1-0.1V100l0.1-0.1l-0.1-0.1v-0.4h0.1l0.1,0.1l-0.1,0.1v0.1l0.5,0.1
		c0-0.1,0.2-0.2,0.5-0.2l-0.1-0.4h0.4v-0.1L61,98.8L61.2,98.7L61.2,98.7z M63,100.6h0.3l0.1-0.1h0.1c0,0.4,0.2,0.6,0.4,0.6l0.1-0.1
		l0.1,0.4v0.5h-0.3v0.1h0.3l0.1,10.2l-0.1,0.1h-3.9l-0.3-0.1l-0.3,0.1l-0.1-0.1v-10.9c0.1-0.3,0.3-0.4,0.6-0.4c0.2,0,0.4,0,0.5-0.1
		h0.1c0.4,0.2,0.6,0.3,0.6,0.4l0.2-0.1c0.2,0,0.3,0.2,0.3,0.5h0.1l0.1-0.1v-0.1c-0.2-0.2-0.3-0.3-0.3-0.4h-0.4l-0.4-0.1v-0.1
		l0.2-0.2h0.9v0.1h0.3v-0.1l-0.1-0.1v-0.1l0.4-0.2V100.6z M59.7,92.2H64c0.7,1,1.4,2.2,2.1,3.5h-0.2c0.5,0.5,0.9,1,1.3,1.8v0.1
		l-0.1,0.2c0.2,0,0.3,0.1,0.3,0.2l-0.1,0.1c0.4,0,0.6,0.3,0.6,0.7L67.8,99H67v0.1h-0.5v0.1h-0.4l-0.9,0.2v-0.1l-0.6,0.1l-0.1-0.1
		h-0.2c0,0.1-0.1,0.2-0.2,0.2h-0.1l-0.6-1v-0.1h0.1c0,0.1,0.1,0.2,0.4,0.2l0.3-0.1l0.1,0.1l0.4-0.1v-0.1c-0.3,0-0.5-0.1-0.6-0.4
		l-0.4-0.1V98h-0.2v0.1h-0.3c-0.1,0-0.2-0.1-0.2-0.4c-0.2,0-0.6-0.5-1.1-1.5C60.6,93.9,59.9,92.6,59.7,92.2z M60.4,102
		c0.2,0.2,0.3,0.4,0.3,0.6h0.1c0.2-0.2,0.3-0.3,0.4-0.3v-0.1c-0.1,0-0.2,0-0.2-0.1H60.4z M60.4,104.3v0.2l0.1,0.1h0.1l-0.1-0.1v-0.1
		l0.1-0.1v-0.1H60.4z M61.2,102.9L61.2,102.9l-0.1,0.1h0.3V103L61.2,102.9z M62.4,102.2c0,0.2-0.2,0.3-0.7,0.4v0.4h0.1
		c0.2-0.2,0.4-0.3,0.6-0.3c0-0.2,0.1-0.3,0.2-0.3v-0.1H62.4z M61.9,103.5h0.3l0.1-0.1v-0.1C62.1,103.3,61.9,103.4,61.9,103.5z
		 M62.5,98.6h0.2l0.2,0.3L62.7,99h-0.2l-0.2-0.2L62.5,98.6z M62.5,102.8v0.1h0.4v-0.1H62.5z M62.6,93.1L62.6,93.1l0.2,0.2v-0.1
		L62.6,93.1z M62.9,101l-0.1,0.4v0.2h0.1c0.1,0,0.2-0.2,0.2-0.4L62.9,101z M63.6,100.5h0.1c0.2,0.1,0.3,0.2,0.3,0.5h-0.1
		C63.7,100.9,63.6,100.7,63.6,100.5z M63.6,102.6L63.6,102.6l0.1,0.2h0.1l-0.1-0.2H63.6z M68.2,99.5L68.2,99.5
		c0.4,0.3,0.6,0.6,0.6,0.9c-0.1,0-0.2,0.1-0.2,0.3l0.2,0.1h0.1l-0.1-0.1v-0.2H69l7,11.8v0.1h-1.4l-0.4-0.1l-0.1,0.1h-2.1
		c-0.2-0.2-1.9-2.9-4.9-8.1c-1.2-1.8-1.8-2.9-1.9-3.1h0.2v-0.1h-0.2l-0.1,0.1c-0.3-0.5-0.5-0.9-0.5-1h0.6v0.2h0.4l0.4,0.1l0.1-0.3
		l0.4,0.1h0.4l0.4-0.3l0.2,0.1h0.1c0-0.2,0.2-0.4,0.6-0.5l0.2,0.1V99.5z M65.4,97.4V98c-0.2,0-0.3,0.1-0.3,0.2v0.1h0.4
		c0,0.3,0.1,0.4,0.3,0.4v-0.2l0.4,0.1h0.1l0.4-0.3l-0.1-0.1v-0.1c0-0.1,0.1-0.2,0.3-0.2v-0.1h-0.8c-0.4-0.1-0.6-0.3-0.6-0.4H65.4z
		 M65.4,96.6L65.4,96.6l-0.1,0.3l0.1,0.1l0.1-0.1v-0.1L65.4,96.6z M66.4,98v0.3l-0.1,0.1h-0.1l-0.1-0.1L66.4,98z M66.8,100.7v0.1H67
		v-0.1H66.8z M67.4,101.2L67.4,101.2l0.3,0.1h0.1v-0.1l-0.1-0.1L67.4,101.2z M67.7,101.5v0.2l0.1-0.1v-0.1H67.7z M68.4,101.9
		L68.4,101.9l0.3,0.1v-0.1H68.4z M68.8,101.9H69l0.2-0.4h-0.1C69,101.5,68.9,101.6,68.8,101.9z M69.1,105.5v0.1h0.1l0.1-0.1H69.1z
		 M69.7,103.9h0.2v-0.1h-0.1L69.7,103.9z M69.8,102.8l-0.1,0.2v0.1h0.1l0.1-0.1v-0.1H69.8z M72,92.2L72,92.2h0.1h0.6l0.3,0.1
		l0.5-0.1H76l0.2,0.1v0.5h-0.4V93c0.2,0,0.4,0,0.4,0.1v5.1c0,0.1-0.1,0.1-0.3,0.1v0.1c0.2,0,0.3,0.1,0.3,0.2v12.2H76l-2.1-3.8H74
		l-0.1-0.2l-0.1,0.1c-1.3-2.1-2-3.3-2-3.7l-0.1-2.1v-2l0.1-0.2l-0.1-0.1v-0.6l0.6-0.1v-0.4l0.1-0.2c-0.3,0-0.6-0.1-0.8-0.4v-2.8
		l-0.1-1.9l0.1-0.1H72z M71.5,111.8l0.1,0.1H72v-0.1l-0.4-0.1H71.5z M71.7,97.2c0.2,0.1,0.3,0.2,0.4,0.4v0.2L72,97.9h-0.2l-0.1-0.1
		v-0.4L71.7,97.2L71.7,97.2z M72.2,99.9L72.2,99.9l-0.1,0.1l0.4,0.1V100L72.2,99.9z M72.8,94.4L72.8,94.4l0.1,0.3l0.2-0.2L72.8,94.4
		z M73.2,99.6v0.1h0.1l0.1-0.1H73.2z M73.5,93.1L73.5,93.1l-0.1,0.1h0.2L73.5,93.1z M73.5,94.1v0.1h0.4v-0.1H73.5z M73.8,96.4
		l0.1,0.1v-0.3L73.8,96.4z M74.4,111.3L74.4,111.3l-0.1,0.1h0.2L74.4,111.3z M74.4,92.7V93l0.1-0.1v-0.1H74.4z M74.6,94L74.6,94
		l0.1,0.1l0.3-0.2h-0.1L74.6,94z M75,104.8l0.1,0.1h0.1v-0.1H75z M75.1,95.7L75.1,95.7l0.2,0.1c0,0.2,0,0.2,0.1,0.2h0.2v-0.1
		L75.1,95.7L75.1,95.7z M75.3,97.6L75.3,97.6l0.4,0.2h0.1v-0.1L75.3,97.6L75.3,97.6z"/>
	<path class="st1" d="M81.5,92.2h2.4l0.1,0.1v1.9h-0.1c0-0.3,0-0.4-0.1-0.4L83.7,94v0.1c0,0.1,0.1,0.2,0.4,0.3v2.2l-0.5-0.1h-0.1
		v0.1l0.6,0.2v0.9h-0.2v0.1c0.1,0,0.2,0,0.2,0.1v3.4c-0.2,0-0.3,0.2-0.3,0.5l0.1,0.1l-0.2,0.1h-0.2c-0.1,0-0.1-0.1-0.1-0.4h-0.1
		c0,0.2-0.1,0.4-0.2,0.4h-0.4l-0.1-0.1v-0.3c0.1,0,0.2,0,0.2-0.1l-0.1-0.4l-0.1,0.1h-0.1l0.1,0.1v0.2l-0.2,0.1h-0.2
		c-0.2-0.1-0.4-0.3-0.4-0.6V101l0.2-0.1l-0.1-0.4c0.2,0,0.3-0.1,0.3-0.4h0.6v-0.3h0.4l0.1-0.1h0.1c0-0.1-0.1-0.2-0.3-0.2L83,99.2
		l-0.1,0.1h-0.1l0.1,0.1v0.2l-0.2,0.2l-0.3,0.1v0.2l-0.1-0.1h-0.1l-0.1,0.4l-0.3-0.2v0.2h-0.7V100l0.1-0.4c-0.1,0-0.2,0-0.2-0.1
		v-0.3l0.2-0.1c0.1,0.3,0.3,0.5,0.6,0.5v-0.1c-0.2-0.1-0.4-0.3-0.4-0.5l0.1-0.1l0.1,0.1h0.4v-0.4c0-0.1,0.1-0.2,0.2-0.2v-0.1
		c-0.3,0-0.4-0.1-0.4-0.4L81.7,98h-0.1l-0.6-0.1l-0.1,0.1v-0.1c0.1,0,0.2-0.1,0.2-0.2v-0.2h-0.1v0.1l-0.4-0.1h-0.1v0.1h0.1v0.1
		l-0.3,0.1v-0.4h0.2v-0.3L80.4,97V97c0.2-0.1,0.3-0.2,0.3-0.4h0.2l0.2,0.2L81,96.9l0.1,0.4h0.1V97h0.1l0.1,0.1l-0.1,0.1v0.1h0.1
		l0.4-0.1V97c-0.3,0-0.6-0.2-0.9-0.5v-0.6h-0.1c0,0.1-0.1,0.3-0.3,0.4l-0.1-0.1h-0.4l0.1,0.5c0,0.2-0.2,0.3-0.6,0.6v0.1h-0.3v-0.6
		l0.1-0.5h-0.1v-0.3h0.1v0.2c0.4,0,0.5-0.1,0.6-0.3v-0.1h-0.1v0.2c-0.4,0-0.6-0.2-0.6-0.5l0.3-0.2h0.4l-0.1,0.4v0.1h0.1
		c0-0.2,0.1-0.3,0.1-0.3l-0.1-0.6l0.1-0.1v-0.1c-0.1,0-0.2,0-0.2-0.1l-0.1,0.1h-0.1l-0.2-0.2v-0.1c0.2,0,0.4-0.1,0.4-0.3L80.2,94
		l0.1-0.1l0.1,0.1h0.2l0.4-0.1l0.1,0.4H81c0.2-0.1,0.3-0.2,0.4-0.2V94l-0.3-0.1l0.2-0.6c-0.1,0-0.2-0.1-0.3-0.4l0.1-0.2l0.4,0.1
		l0.1-0.1L81.5,92.2L81.5,92.2z M80.6,92.2v0.2h0.1c0-0.1,0.1-0.2,0.3-0.2l0.1,0.2v0.1c-0.1,0-0.2,0.1-0.2,0.2l-0.3,0.1l-0.3-0.1
		c-0.1,0.2-0.2,0.3-0.3,0.4l-0.1-0.1h-0.1l-0.2,0.3l0.4,0.1V94c-0.2,0-0.3,0.1-0.3,0.2h-0.3v-0.8l0.1-0.6l-0.1-0.5l0.1-0.1H80.6z
		 M79.5,97.7h0.1l0.1,0.4l-0.1,0.5l-0.1-0.1V97.7z M80.2,97.9c0.1,0,0.2,0.2,0.4,0.7h0.1l0.1-0.4c-0.2,0-0.2,0-0.2-0.1l0.4-0.1
		l0.4,0.2h0.1v0.2l-0.1,0.2h-0.4c0,0.2-0.1,0.4-0.2,0.5h0.1l-0.1,0.1v0.1l0.2,0.4l-0.2,0.1l-0.2-0.2h-0.1l-0.1,0.1
		c0,0.4,0.2,0.6,0.5,0.6v0.1l0.1-0.1h0.1l0.1,0.1v0.5c-0.2,0-0.4,0.1-0.4,0.2v0.1c0.1,0.2,0.3,0.3,0.5,0.3c0-0.3,0-0.4,0.1-0.4v0.1
		l0.2-0.1V101c0-0.1-0.1-0.1-0.2-0.1l-0.1-0.1v-0.2l0.1-0.2c0.4,0,0.6,0.2,0.6,0.5c-0.1,0-0.1,0.1-0.1,0.4h-0.2v0.2
		c0.6,0.4,0.9,0.7,0.9,0.8c0,0.1,0.1,0.1,0.4,0.1l0.1,0.1v0.4l-0.1,0.4h0.1l0.4-0.1l0.1,0.1V103c0-0.1-0.1-0.1-0.3-0.1
		c0-0.1,0.1-0.2,0.4-0.2v-0.1l0.4,0.2v-0.1l0.1-0.3h0.1v1.6l-0.1,0.5l0.1,0.6v4.7c0,0.2-0.1,0.4-0.3,0.6v0.1l0.1-0.1h0.2v0.1
		l-0.1,0.1l0.1,0.4v0.9l-0.4,0.4h-0.4l-0.2-0.1l0.1-0.1V112l-0.4,0.2v0.1h-0.4V112l0.3-0.1h0.1v-0.1l-0.1-0.1h-0.1
		c0,0.1-0.1,0.3-0.4,0.4l-0.4-0.1c0.1-0.3,0.1-0.5,0.2-0.5h0.4c0-0.1,0.1-0.2,0.4-0.2l0.3-0.4v-0.1h-0.3v-0.4h0.3l0.4,0.4h0.2v-0.1
		c-0.2,0-0.4-0.1-0.4-0.4v-0.1c0.2,0,0.3-0.1,0.4-0.4h0.1v0.1h0.1v-0.2l-0.1-0.6h-0.1l-0.2,0.4l0.2,0.1l-0.8,0.6l-0.2-0.1v0.1
		c0,0.2-0.2,0.4-0.6,0.4c-0.1-0.2-0.2-0.3-0.4-0.4v-0.2l0.1-0.1h0.1l0.4,0.1l-0.1-0.1v-0.1l0.1-0.4h-0.4l0.1,0.1v0.1h-0.2l-0.1-0.3
		v-0.1h-0.1c0,0.3,0,0.5-0.1,0.5h-0.1l-0.2-0.1v0.1l-0.1,0.4l-0.1-0.1h-0.1l-0.1,0.2c0.3,0,0.5,0.1,0.5,0.3l0.1,0.4l-0.6,0.1
		l0.1,0.1v0.5c0.3,0,0.4,0,0.4,0.1v0.4h-0.4c-0.1,0-0.2-0.1-0.2-0.4c-0.3,0-0.5,0-0.5-0.1v-0.5h0.1V111c-0.2,0-0.3,0-0.3-0.1v-1.3
		l0.5-0.4h-0.5v-0.1l0.1-0.2v-0.2l-0.1-0.2v-4.2c0-0.1,0.1-0.1,0.2-0.1V104c-0.1,0-0.2,0-0.2-0.1v-1.6l0.1-0.1h0.1l0.1,0.1h0.1v-0.1
		l-0.4-0.4V99h0.1l0.1,0.1h-0.1l0.1,0.2h0.2V99c0-0.1,0.1-0.1,0.4-0.1v-0.1l-0.5-0.1v-0.2l0.1-0.1v-0.1l-0.1-0.1
		C80,98.2,80.2,98.1,80.2,97.9z M79.7,112.1L79.7,112.1l0.1,0.1l-0.1,0.1l-0.1-0.1v-0.1L79.7,112.1z M79.9,107v0.1H80l-0.1,0.1v0.1
		l0.1,0.2h-0.1l-0.2,0.1v0.1h0.2c0.2-0.3,0.5-0.5,0.9-0.5V107l-0.6,0.1l-0.1-0.1H79.9z M79.9,100l-0.1,0.2l0.1,0.1h0.1l0.1-0.2
		L80,100H79.9z M80.5,102.8h0.2v0.1l-0.4,0.1v0.1h0.1v0.3l0.1,0.4l-0.4,0.1v-0.1l-0.4,0.1v0.1l0.1,0.1v0.1l0.7-0.1v0.1h0.1v-0.5h0.4
		l-0.1-0.3l0.1-0.2h0.5l0.2,0.2l-0.1,0.1v0.1l0.1,0.2v-0.2H82l0.3,0.3v0.1l-0.1,0.1l0.1,0.1v0.1l-0.1,0.4h0.1l0.1-0.6l0.1,0.1h0.1
		v-0.1c-0.1,0-0.1-0.1-0.1-0.4c-0.2,0-0.4-0.1-0.4-0.2l0.3-0.6h-0.2v0.2H82l-0.1-0.1h-0.1l0.1-0.4v-0.1h-0.1l-0.1,0.4l-0.1-0.1h-0.1
		l-0.1,0.2H81v0.3h-0.3V103h0.2v-0.1l-0.1-0.2h0.1c0.1,0,0.2-0.2,0.3-0.5h-0.3L80.5,102.8z M80,110.5c0,0.1-0.1,0.2-0.2,0.2l0.2,0.1
		l-0.1,0.1v0.1h0.4V111C80.1,110.9,80.1,110.7,80,110.5L80,110.5z M79.9,104.5v0.1l0.2,0.1l0.1-0.1v-0.4h-0.1L79.9,104.5z M80.1,101
		L80.1,101l-0.1,0.3l0.2-0.2L80.1,101L80.1,101z M80.1,106.2L80.1,106.2l-0.1,0.1h0.1V106.2l0.1,0.1h0.1v-0.1L80.1,106.2z
		 M80.2,109.1L80.2,109.1l0.1,0.2h0.1v-0.1l-0.1-0.1H80.2z M80.2,105.3v0.1l0.2,0.2l0.4-0.1v-0.1l-0.2-0.1H80.2L80.2,105.3z
		 M80.2,108.3v0.3l0.4-0.4l-0.1-0.1L80.2,108.3z M80.4,106.3L80.4,106.3l0.2,0.3v-0.1L80.4,106.3z M80.4,108.9l0.1,0.1l0.2-0.1v-0.1
		H80.4z M80.4,109.6L80.4,109.6l0.1,0.2l0.1-0.1L80.4,109.6z M80.7,94.7v0.1h0.1l0.4-0.1v-0.2L80.7,94.7z M81.2,103.7
		c0,0.2,0,0.4-0.1,0.4l-0.2-0.1c0.1,0.1,0.1,0.3,0.1,0.5h0.1c0.1,0,0.2-0.1,0.2-0.4l-0.1-0.1l0.3-0.1v0.1h0.1v-0.3L81.2,103.7z
		 M81,106.7L81,106.7l0.3,0.1v-0.1h-0.1L81,106.7z M81.3,110.8v0.4l-0.1,0.1l-0.1-0.4l0.1-0.1H81.3z M81.2,94.8V95h0.1v-0.2H81.2z
		 M81.8,95.4v0.2h0.1v-0.2H81.8z M81.9,94.6L81.9,94.6l0.1,0.1l0.1-0.2H82L81.9,94.6z M81.9,95.1L81.9,95.1l0.1,0.1l0.1-0.1
		l-0.1-0.1h-0.1L81.9,95.1z M82,93.4L82,93.4l0.3-0.2h-0.1L82,93.4z M82,105.5v0.1h0.3l0.2-0.2v-0.1h-0.1L82,105.5z M82.6,93.6v0.4
		h-0.1l-0.2-0.1l0.1-0.1h-0.2v0.4h-0.1v0.1h0.1c0-0.2,0.2-0.3,0.6-0.3c0.1-0.2,0.2-0.3,0.4-0.3v-0.1H82.6z M83.1,98.6
		c0,0.2-0.1,0.4-0.2,0.4L82.6,99L82.1,99v0.2l1-0.2l0.1-0.1v-0.1L83.1,98.6z M83,96.2h-0.4L82.4,96l-0.2,0.1v0.3l0.4,0.1l0.1-0.1
		l0.7,0.2v-0.1c0-0.1-0.1-0.1-0.2-0.1v-0.1l0.3-0.3h0.4l0.1-0.2l-0.1-0.1h-0.1L83,96.2z M82.5,92.7L82.4,93h0.2l0.1-0.1L82.5,92.7z
		 M82.4,97.2L82.4,97.2l-0.1,0.1l0.2,0.2l0.1-0.1h0.1c0.2,0,0.4,0.1,0.4,0.3h0.2v-0.1C83.2,97.4,82.9,97.3,82.4,97.2z M82.4,106.3
		v0.1l0.4,0.1v0.1c0,0.2-0.1,0.3-0.2,0.5v0.1h0.1c0.1,0,0.1-0.1,0.1-0.3l0.4-0.1v-0.4L82.4,106.3z M82.5,104.9v0.2h0.1l0.2-0.1v-0.1
		H82.5z M82.7,97.7v0.1c0.1,0,0.1,0.1,0.1,0.3h0.1L82.7,97.7L82.7,97.7L82.7,97.7z M82.9,94.7l0.1,0.4h-0.1v0.2h0.1l0.6-0.3h0.1
		v-0.1l-0.4-0.1h-0.2v-0.1H82.9z M82.9,100.5L82.9,100.5l0.1,0.3h0.3v-0.1L82.9,100.5L82.9,100.5z M82.9,98.2v0.2h0.1L82.9,98.2
		L82.9,98.2z M83,104.2L83,104.2l0.1,0.2v-0.2H83z M83.2,105.8l-0.1,0.3h0.1L83.2,105.8L83.2,105.8z M83.5,108.4
		c0,0.2-0.1,0.4-0.4,0.4v0.1l0.6,0.1v-0.4L83.5,108.4z M83.2,105.1L83.2,105.1l0.1,0.6h0.2c0-0.2,0.1-0.4,0.4-0.4
		c0-0.2-0.2-0.3-0.4-0.4L83.2,105.1z M83.4,103.8v0.3c0.1,0,0.1-0.1,0.2-0.3H83.4z M83.5,92.9c0.1,0.4,0.2,0.6,0.3,0.6l0.2-0.2
		c-0.1,0-0.1-0.1-0.1-0.4l-0.1-0.1h-0.1L83.5,92.9z M83.5,97.7h0.3l-0.1-0.2L83.5,97.7z M83.5,111.6L83.5,111.6L83.5,111.6
		c0.4,0,0.5,0,0.5-0.1v-0.1h-0.3L83.5,111.6z M83.5,100.3l0.1,0.1h0.1v-0.1l-0.1-0.2h-0.1L83.5,100.3z M83.7,107L83.7,107l-0.1,0.3
		c0.1,0,0.2,0.1,0.2,0.3H84C83.8,107.4,83.7,107.2,83.7,107l0.2,0.1V107H83.7z M85,92.2h1.7l0.1,0.1l-0.1,0.1v0.2h0.1
		c0.1,0,0.2-0.2,0.2-0.5h1.2l0.1,0.1l0.1-0.1h0.9c0,0.2,0.1,0.4,0.2,0.4l0.1-0.1h0.1l-0.1-0.1v-0.2h1.8v0.2l0.1-0.1l0.1,0.1h0.1
		v-0.1l-0.1-0.1v-0.1h2.6l0.2,0.1v3.4l-0.2,0.1h-1.9v-0.2c-0.1,0-0.1,0.1-0.1,0.2h-4.1l-0.2-0.1l-0.2,0.1H85l-0.2-0.1v-0.6l0.1-0.1
		l-0.1-0.1v-2.2H85v-0.2h-0.2v-0.3L85,92.2z M84.9,99.9c0.3,0,0.5,0.2,0.6,0.6l-0.1,0.1h0.1l0.1-0.1l0.1,0.1h0.1l0.2-0.2l-0.4-0.4
		v-0.1h0.1l0.1,0.1H86l0.1-0.1l0.4,0.1H87l0.4-0.1v0.1l0.1-0.1h0.2l0.2,0.1l0.4-0.1h1.2L90,100l0.2-0.1h0.1l0.1,0.1l0.1-0.1h2.9
		l0.1,0.1v0.1h-0.1l-0.4-0.1l-0.1,0.1v0.1l0.6,0.2l0.1-0.2h0.1v1.3c-0.3,0-0.6-0.2-0.8-0.4h-0.4v-0.1H92c0-0.2-0.1-0.3-0.3-0.3v0.1
		c0.1,0.4,0.2,0.6,0.4,0.6c0.1,0,0.2,0.1,0.2,0.2l0.1,0.1h0.1c0-0.2,0.1-0.3,0.2-0.3l0.2-0.1l0.4,0.3h0.2l0.1-0.1h0.1l0.1,0.5v0.9
		l-0.1,0.1l0.1,0.1v0.1l-0.1,0.5l-0.5-0.1l-0.1,0.2h-0.1v-0.1l-0.5,0.1h-0.9l-0.1-0.1l-0.1,0.1h-0.5l-0.1-0.1l-0.1,0.1h-0.4
		l-0.3-0.1l-0.3,0.1h-0.5l-0.1-0.2l-0.6,0.2h-1.9c-0.1,0-0.2-0.1-0.3-0.4h-0.1l-0.1,0.2l-0.2-0.1v0.1c0,0.1-0.1,0.2-0.4,0.2H85v-0.2
		h0.4v-0.1l-0.1-0.1l0.1-0.2h0.1l0.1,0.1h0.1l0.1-0.1v-0.4c0-0.1-0.1-0.2-0.2-0.2l-0.1,0.1h-0.1l-0.2-0.1l0.1,0.1l-0.1,0.1v0.1
		l0.1,0.2l-0.1,0.4h-0.2v-0.9l0.1-0.1l-0.1-0.1v-1.5h0.1c0.1,0,0.2,0.2,0.2,0.6h0.1c0-0.3,0-0.5,0.1-0.6v-0.1l-0.4-0.4v-0.2l0.1-0.1
		l-0.1-0.1V99.9z M86,108.6h0.4l0.3,0.2c0-0.2,0-0.2,0.1-0.2h0.6v0.1l-0.1,0.1v0.1l0.1,0.1h0.1l0.3-0.3h2.4l0.2,0.2l0.3-0.2
		c0.2,0.1,0.3,0.2,0.3,0.3L91,109l0.6,0.3v-0.1c-0.2,0-0.3-0.2-0.4-0.5h1.2c0.2,0,0.5,0.1,1,0.4l0.1-0.1l-0.1-0.1v-0.2h0.9l0.1,0.2
		v0.6l-0.4,0.6h0.1l0.3-0.2h0.1v0.9l-0.1,0.1l0.1,0.1v0.1l-0.1,0.2l0.1,0.2v0.9l-0.1,0.1h-2.9v-0.1l0.3-0.1v-0.1h-0.2v0.1l-0.1-0.1
		h-0.2v0.2h-1.1l-0.4-0.3l0.2-0.4c-0.4,0-0.7-0.1-0.8-0.2l-0.5,0.2v0.2c0.1,0,0.2,0.1,0.2,0.2H89l0.1,0.1v0.1l-0.1,0.1h-1v-0.1
		c0-0.1,0.1-0.1,0.2-0.1l-0.2-0.3h-0.4v-0.1h-0.4c0,0.2-0.1,0.4-0.4,0.4l-0.2-0.2v-0.5h0.2l-0.1-0.1V111l0.1-0.1v-0.1
		c-0.2-0.1-0.3-0.2-0.4-0.2v-0.1l0.1-0.1l-0.1-0.1v-0.1l0.1-0.2c0-0.1-0.1-0.2-0.4-0.4l-0.3,0.1l0.1,0.4c0,0.2-0.1,0.3-0.2,0.5v0.1
		c0,0.1,0.1,0.2,0.4,0.2v0.2h-0.2c0,0.1,0.1,0.2,0.3,0.2v0.7h0.3v0.1l-0.1,0.1h-0.9c0-0.1-0.1-0.2-0.3-0.2l-0.1-0.1v-0.4l0.2-0.2
		v-0.3h-0.2v-0.6l0.4-0.4c0-0.1,0.1-0.2,0.3-0.2v-0.1h-0.3l0.1-0.7c0.1,0,0.1,0.1,0.1,0.2c0.2,0,0.3-0.1,0.3-0.3L86,109l-0.1-0.1
		h-0.1v-0.2L86,108.6z M84.9,109.4H85l0.1,0.2v0.3h-0.3V109.4z M85.5,94.2L85.5,94.2l-0.1,0.2l0.1,0.1h0.1l0.1-0.1l0.2,0.3v0.4h0.1
		l0.2-0.1v-0.1C86,94.6,85.8,94.4,85.5,94.2z M85.5,93.1l0.2,0.1l0.1-0.2L85.7,93h-0.1L85.5,93.1z M85.7,95.1v0.2h0.1l0.2-0.2H85.7z
		 M85.7,102.5L85.7,102.5L85.7,102.5h0.4v-0.1H86L85.7,102.5z M85.7,101.5v0.1h0.2c0,0.1,0.1,0.1,0.2,0.1v0.5h0.1l0.1-0.4
		C86,101.6,85.8,101.5,85.7,101.5z M86.1,100.7c0,0.3,0.1,0.5,0.4,0.6l0.4-0.5v-0.1h-0.1c0,0.1-0.1,0.1-0.3,0.1v0.1h-0.1v-0.1
		l-0.1-0.1H86.1z M86.2,95.4v0.3h0.1l0.1-0.2L86.2,95.4L86.2,95.4z M86.4,93.7V94l0.1-0.1v-0.1H86.4z M87,102l0.1,0.2l-0.4,0.1
		c0,0.1,0.1,0.1,0.3,0.2c0-0.1,0.1-0.1,0.4-0.2l0.1,0.1l-0.1-0.3l-0.1,0.1h-0.1V102H87z M87.2,112.1h0.2l0.3,0.3v0.1H87l-0.1-0.1
		L87.2,112.1z M87.2,100.2L87.2,100.2h0.2V100h-0.1L87.2,100.2z M87.2,101.2L87.2,101.2l0.1,0.3h0.1l0.2-0.1L87.2,101.2z
		 M87.2,110.2L87.2,110.2l0.4,0.4l0.1-0.1h0.3l0.6,0.6l0.1-0.1v-0.1c-0.2,0-0.3-0.1-0.3-0.4l0.1-0.4l-0.2,0.3h-0.2l-0.5-0.2
		l-0.3,0.1L87.2,110.2z M87.5,100.6v0.2h0.2v-0.1L87.5,100.6z M87.5,100.1v0.2h0.1l0.2-0.1V100h-0.1L87.5,100.1z M87.8,95v0.1H88
		l0.1-0.1H87.8z M88,93.4l-0.1,0.3H88l0.1-0.1L88,93.4z M88.3,109v0.1h0.2v-0.3L88.3,109z M89,103.1v0.2H89l0.2-0.1v-0.1L89,103.1z
		 M89.2,111.7c0.3,0,0.5,0.1,0.6,0.4h0.1v0.1l-0.4,0.1h-0.1c0-0.2-0.1-0.4-0.3-0.6L89.2,111.7z M89.3,110v0.4l0.1,0.1v0.1h-0.2
		c0,0.1,0.1,0.2,0.4,0.3v-0.1l-0.1-0.1v-0.1l0.1-0.1l-0.2-0.1c0-0.2,0.1-0.4,0.2-0.4l-0.1-0.1H89.3z M89.2,108.9L89.2,108.9l0.2,0.1
		V109l-0.1-0.1H89.2z M89.5,95.1l-0.1,0.4h0.1l0.2-0.2v-0.2H89.5z M89.5,101v0.2h0.4V101l-0.1,0.1h-0.1L89.5,101z M89.5,109.3
		l0.1,0.2l0.1-0.2H89.5z M90,102.2v0.3l0.2,0.1l0.1-0.4L90,102.2z M90.3,110.5v1.1c0.2,0.2,0.3,0.4,0.6,0.4v-0.1l-0.3-0.5l0.1-0.3
		l-0.3-0.3v-0.4H90.3z M90.4,100.3c0.1,0,0.3,0.1,0.5,0.3c0-0.1,0.1-0.2,0.2-0.2c0,0.1,0.2,0.2,0.5,0.4v-0.1c-0.2,0-0.4-0.1-0.6-0.4
		h-0.4L90.4,100.3z M90.5,109.6L90.5,109.6l-0.1,0.3h0.1c0-0.1,0-0.2,0.1-0.2v-0.1H90.5z M90.5,95.6v0.1l0.1,0.1v-0.3H90.5z
		 M90.6,94.1h0.2v-0.2L90.6,94.1z M90.7,109.1v0.4l0.1-0.2L90.7,109.1L90.7,109.1z M90.7,110.2L90.7,110.2l0.1,0.3h0.1v-0.1
		L90.7,110.2L90.7,110.2z M90.8,102.4v0.1L91,103h0.1v-0.4c-0.1,0-0.1-0.1-0.1-0.2H90.8z M91,103.1c0,0.1-0.1,0.2-0.2,0.2v0.1
		l0.3-0.1v-0.2H91z M90.8,110.1v0.1l0.3-0.1v-0.3L90.8,110.1L90.8,110.1z M91.5,93.2c0,0.2-0.1,0.3-0.4,0.3L91,93.4l-0.1,0.3h0.4
		L91.5,93.2L91.5,93.2L91.5,93.2z M91,101.3l0.1,0.3h0.1l0.1-0.1l-0.1-0.1H91z M91,101.7v0.3h0.1L91,101.7L91,101.7z M91.1,110.8
		v0.2l-0.1,0.4h0.1l0.1-0.1v-0.4H91.1z M91.5,110.6v0.1l0.1,0.1h0.1v-0.1L91.5,110.6L91.5,110.6z M92.1,110.6L92.1,110.6l0.1,0.1
		c0.1,0,0.1,0.1,0.1,0.3l0.2,0.1l0.1-0.1v-0.1l-0.4-0.3H92.1z M92.4,101.9l0.1,0.4l0.2-0.2l-0.2-0.2H92.4z M92.8,109.8v0.1l0.1,0.4
		H93l0.1-0.4l-0.1-0.1H92.8z M93.8,110l-0.1,0.1c0,0.4,0.1,0.6,0.2,0.7l-0.3,0.4h0.1c0-0.1,0.1-0.1,0.2-0.1V111l-0.1-0.4l0.3-0.1
		l0.1,0.1l0.1-0.1l-0.1-0.3l-0.4,0.1l-0.1-0.1l0.1-0.1L93.8,110L93.8,110z"/>
	<path class="st1" d="M101.3,92.1L101.3,92.1l0.9,0.1l0.1,0.1v8.1l-0.1,0.3l0.1,0.2h-0.1l0.1,0.1v2.4l-0.1,0.1l0.1,0.1v8.7l-0.1,0.1
		h-0.4v-0.2h-0.1c0,0.1,0,0.2-0.1,0.2h-2.3v-0.2H99v0.2h-1.2l-0.1-0.1V92.3l0.1-0.1L101.3,92.1L101.3,92.1z M98.4,110.5v0.1h0.2
		v-0.1H98.4z M98.4,111.5v0.2l0.1-0.1v-0.1H98.4z M98.7,111.5H99l-0.2-0.1L98.7,111.5z M99.7,110.9L99.7,110.9c0.3,0,0.5,0,0.5-0.1
		v-0.1h-0.3L99.7,110.9z M99.9,111.6l0.1,0.2h0.1v-0.2H99.9z M100.5,103.1c0,0.2-0.1,0.3-0.4,0.4v0.1h0.4L100.5,103.1L100.5,103.1
		L100.5,103.1z M100.2,109.4L100.2,109.4l0.2,0.3h0.1v-0.3H100.2z M100.7,111.6l-0.1,0.1v0.2L100.7,111.6L100.7,111.6L100.7,111.6z
		 M100.7,109.7v0.1h0.2L100.7,109.7L100.7,109.7z M100.9,103.9v0.1h0.3l0.1-0.3h-0.1L100.9,103.9z M101,111.5L101,111.5l-0.1,0.1
		h0.2L101,111.5z M101.5,107.4c0,0.1-0.1,0.2-0.4,0.2v0.1l0.6-0.2v-0.1H101.5z M101.4,100.7l0.1,0.1h0.1v-0.1H101.4z M101.7,107
		l-0.1,0.3h0.1l0.1-0.3H101.7z M102,100.3c0,0.2-0.1,0.3-0.3,0.3v0.1h0.1c0.2-0.1,0.3-0.2,0.4-0.3v-0.1H102z M101.7,103.1v0.1h0.3
		v-0.1H101.7z M101.9,98.3v0.1h0.2v-0.1H101.9z M103.2,92.2h3.9c2.9,0.2,4.3,0.6,4.3,1.2h0.4c1.3,1,2,2.4,2,4.4
		c0,2.1-0.8,3.7-2.5,4.5l-0.1-0.1c0,0.2-0.3,0.4-0.9,0.5v0.1c0.8,0,1.6,0.7,2.3,2.2l-0.1,0.1h-0.3l-0.1-0.1h-0.1l-0.1,0.3h0.1
		l0.4-0.1c0.2,0,0.3,0.5,0.4,1.6h-0.2l-0.4-0.1l-0.3,0.4c0.1,0,0.2,0.1,0.4,0.3v0.1l-0.1,0.1v0.1h0.5v-0.1h0.1l0.4,2.2
		c-0.3,0.1-0.4,0.2-0.4,0.3v0.1h0.4c0.1,0,0.3,0.3,0.4,1l-0.2,0.2v0.2l0.2-0.1h0.1c0.1,0,0.3,0.3,0.6,0.8l-0.3,0.3h-1.1l0.1-0.6
		v-0.2c-0.1,0-0.2,0.3-0.3,0.8h-1.2l-0.1-0.1l0.1-0.1h0.1l0.4,0.1V112l-0.1-0.3l0.2-0.3l0.4,0.1l0.3-0.1v-0.4
		c-0.7,0.2-1.1,0.3-1.1,0.4l0.1,0.4l-0.1,0.1h-0.6c0,0.2,0,0.4-0.1,0.4h-1.1c-0.2,0-0.4-0.6-0.9-1.7l0.1-0.2c-0.1,0-0.4-1.3-0.8-3.8
		c-0.2-0.6-0.6-1.1-1.2-1.4c-0.6-0.2-1.3-0.3-2.3-0.3v-0.2h0.1v-0.1h-0.1c0,0.1-0.1,0.1-0.3,0.1v0.2l-1.2,0.1h-0.2l-0.1-0.2v-1.4
		c0-0.1,0.1-0.2,0.4-0.2v-0.1h-0.1l-0.2,0.1l-0.1-0.1v-1.8l0.1-0.1h1.8c2.8,0,4.2-0.8,4.2-2.5v-0.6c-0.2-1.4-0.8-2.1-2-2.1
		c0-0.1-0.6-0.1-1.8-0.1h-2.2l-0.1-0.1v-3.5L103.2,92.2z M104,103.3L104,103.3l0.4,0.3h0.6v-0.1h-0.6c-0.1,0-0.2-0.1-0.2-0.2
		L104,103.3z M104.2,101.6v0.1l0.1,0.2l-0.1,0.1v0.2h0.3l-0.1-0.1V102l0.2-0.3L104.2,101.6L104.2,101.6z M104.9,101.4l-0.1,0.3h0.2
		v-0.3H104.9z M105.2,103.6l0.1,0.1h0.4v-0.1l-0.1-0.1L105.2,103.6z M106,102.9l0.1,0.2h0.1l0.1-0.1v-0.1H106L106,102.9z
		 M107.6,101.3l0.1,0.2l-0.1,0.1h-0.1l-0.1-0.1c-0.2,0-0.6,0.1-0.9,0.4h-0.2l0.1,0.1v0.1l-0.1,0.4h0.2c0.3-0.1,0.4-0.3,0.4-0.6
		l0.2-0.2h0.3c0.1,0,0.2,0.1,0.2,0.3h0.1l0.2-0.4c-0.1,0-0.1-0.1-0.1-0.3l-0.1-0.1H107.6z M108.1,104.3l0.2,1.1h0.1v-0.2l-0.1-0.6
		l0.1-0.2v-0.1H108.1z M108.8,102.6l-0.1,0.3l0.7,0.3V103c-0.1,0-0.1-0.1-0.1-0.3l-0.3-0.2H108.8z M108.8,100.6l0.3,0.3h0.3l0.1-0.1
		h-0.6v-0.1H108.8z M109,108.6c0.1,0.3,0.1,0.4,0.2,0.4l0.1-0.1v-0.1l-0.2-0.2H109z M109.1,105.9l-0.1,0.3v0.1h0.1V105.9
		L109.1,105.9L109.1,105.9z M109.4,103.7L109.4,103.7l-0.1,0.2l0.3-0.1v-0.1H109.4z M109.3,107.1l0.3,0.4h0.1v-0.1
		c-0.1,0-0.2-0.1-0.2-0.3H109.3z M109.4,110c0.3,0.1,0.5,0.2,0.6,0.4l0.6,0.2v-0.2c-0.3,0-0.6-0.2-0.8-0.5l-0.1-0.1h-0.2L109.4,110z
		 M109.6,109l0.1,0.1h0.2V109H109.6z M109.6,110.9l0.1,0.1h0.1L109.6,110.9L109.6,110.9z M109.6,101.4v0.6h0.1v-0.6H109.6z
		 M109.8,108.2L109.8,108.2l0.2,0.1v-0.2L109.8,108.2z M110.1,99.7l-0.1,0.2l0.1,0.2h0.1l0.1-0.4H110.1z M110.3,105.9L110.3,105.9
		L110.3,105.9l0.3-0.1v-0.2L110.3,105.9z M110.3,111.9v0.2h0.1l0.4-0.1v-0.2h-0.1L110.3,111.9z M110.6,106.6L110.6,106.6l0.2-0.2
		h-0.1L110.6,106.6z M110.9,107.9l-0.2-0.1l-0.2,0.1v0.1h0.5l0.1,0.1c0.3-0.1,0.4-0.2,0.4-0.3l-0.1-0.1h-0.1
		C111.3,107.9,111.1,107.9,110.9,107.9z M110.6,108.7l0.1,0.3h0.1l0.3-0.1v-0.2H110.6z M110.8,107.5L110.8,107.5l0.1,0.2h0.1
		l0.1-0.1L110.8,107.5z M111.3,110.6c0,0.2,0,0.3-0.1,0.3l0.1,0.1v0.1l-0.1,0.2v0.1h0.3L111.3,110.6L111.3,110.6z M111.2,96.5
		L111.2,96.5l0.2-0.1h-0.1L111.2,96.5z M111.4,106.6v0.1l0.4-0.1v-0.1H111.4z M111.5,109.4c0,0.1,0.2,0.2,0.5,0.4h0.2v-0.1
		c0-0.1-0.2-0.2-0.5-0.4H111.5z M111.6,107.3h0.1l0.3-0.2V107h-0.1C111.7,107.1,111.6,107.2,111.6,107.3z M111.9,105.5l-0.1,0.2
		l0.3,0.2l0.1-0.1h0.1l0.4,0.3v-0.6h-0.2l-0.4,0.1L111.9,105.5z M111.8,108.7v0.2h0.3v-0.2H111.8z M111.9,104.7L111.9,104.7l0.2,0.1
		v-0.1H111.9z M112.1,106.1v0.4c0.1,0,0.2-0.1,0.2-0.2L112.1,106.1L112.1,106.1z M112.4,110.2l0.1,0.1l0.1-0.1H112.4z M113.2,110.6
		v0.1h0.3v-0.1H113.2z M114.5,112.8h0.4l0.1,0.1l-0.1,0.1h-0.4l-0.2-0.1L114.5,112.8z"/>
</g>
<g>
	<path class="st1" d="M0.2,124H2l0.1,0.1l0.1-0.1H4v0.1l-0.1,0.2v0.1h0.1l0.2-0.1h0.2c0.1,0,0.1,0.1,0.1,0.4l0.2,0.1v9.6H4.5
		l-0.1-0.1H4.4l-0.1,0.1v0.1l0.3,0.3v0.6H4.5l0.1-0.1v-0.1H4.3c0,0.4-0.1,0.6-0.4,0.9H3.6v0.4c0.1,0,0.2,0.1,0.2,0.4H4
		c0.1,0,0.2-0.2,0.3-0.6l0.4-0.1v8.1l-0.1,0.1H4.3L4,144.1H4c0,0.1,0,0.2-0.1,0.2H3.5c-0.1,0-0.1-0.1-0.1-0.2H3
		c0,0.1-0.3,0.2-0.9,0.2H1.7l-0.3-0.1l-0.3,0.1H0.2L0,144.1V144c0.3-0.8,0.5-1.2,0.7-1.2v-0.1l-0.1-0.1v0.2l-0.4-0.1v0.2l-0.1,0.4H0
		v-7.2c0-0.1,0.2-0.1,0.6-0.1l0.1-0.2l-0.1-0.2v-0.4l0.1-0.2v-0.2H0.7c0,0.1-0.1,0.2-0.4,0.3l0.1,0.1l-0.2,0.7H0.2L0,135.6v-4h0.4
		v-0.1l-0.2-0.1L0,131.4V126l0.1-0.1h0.1l0.2,0.1v-0.1l-0.1-0.2v-0.1l0.1-0.1v-0.1H0v-1.2L0.2,124z M0.2,127.1l0.1,0.4l0.2-0.1v-0.2
		H0.2z M0.5,125.3l0.6,0.1l0.1-0.1v-0.2H0.7L0.5,125.3z M1.2,128.1v0.4l0.1-0.1h0.1l0.1,0.1v0.4l-0.1,0.2H1.2c0-0.1-0.1-0.2-0.4-0.2
		H0.5v0.1c0.4,0,0.7,0.3,1,0.9h0.4v-0.1c-0.2,0-0.4-0.1-0.5-0.4c0-0.3,0.2-0.4,0.5-0.4l-0.1-0.4c-0.2,0-0.3-0.2-0.3-0.5L1.2,128.1z
		 M0.7,126.8L0.7,126.8l0.1,0.1l-0.1,0.1v0.1l0.4,0.1h0.1v-0.1l-0.2-0.4H0.7z M0.7,142.3L0.7,142.3l0.3,0.1v-0.2H0.8L0.7,142.3z
		 M0.9,136.4L0.9,136.4L0.9,136.4l0.2-0.1v-0.1H1L0.9,136.4z M0.9,124.6h0.2l0.1-0.2v-0.1H1.2L0.9,124.6z M0.9,143.8l0.1,0.2
		c0.2-0.1,0.3-0.2,0.4-0.3v-0.1H1.1L0.9,143.8z M1.3,138.9l-0.2,0.5l0.2,0.2l0.6-0.2v-0.1C1.5,139.2,1.4,139,1.3,138.9L1.3,138.9z
		 M1.2,136.9L1.2,136.9c0.1,0.2,0.1,0.3,0.1,0.6l0.1-0.1h0.1l0.3,0.2v-0.2l-0.4-0.5H1.2z M1.2,137.6v0.2h0.1v-0.1L1.2,137.6z
		 M1.3,138.7L1.3,138.7c0.3-0.1,0.4-0.1,0.4-0.2H1.5L1.3,138.7z M1.4,130.3L1.4,130.3l0.2,0.4H2L1.4,130.3L1.4,130.3z M1.5,127.6
		L1.5,127.6v0.1v0.2l0.4-0.1h0.2v-0.1l-0.2-0.2H1.8l-0.1,0.1l-0.1-0.1H1.5z M1.7,143.1c0.3,0.1,0.5,0.3,0.5,0.4h0.1
		c0.2-0.2,0.4-0.3,0.6-0.3l-0.1-0.1H2.1L1.9,143L1.7,143.1z M1.9,138.1v0.2h0.4v-0.2H1.9z M2.2,128.9L2.2,128.9l0.1,0.1l-0.1,0.1
		v0.1l0.2-0.1V129L2.2,128.9L2.2,128.9z M2.4,134.9v0.6l0.1,0.2c0.3-0.1,0.4-0.1,0.4-0.2v-0.1l-0.4,0.1l-0.1-0.2v-0.1l0.1-0.4H2.4z
		 M2.4,140.7v0.2l0.1,0.1h0.1l0.1-0.1C2.6,141,2.5,140.9,2.4,140.7L2.4,140.7z M2.6,139.1L2.6,139.1l-0.1,0.1h0.2L2.6,139.1z
		 M2.7,134.4L2.7,134.4l-0.1,0.3l0.1-0.1l0.4,0.1l0.2-0.2L2.7,134.4z M3.7,141.7c0,0.3-0.1,0.4-0.2,0.4L3,142.1
		c0,0.1-0.1,0.2-0.2,0.2v0.1l0.4,0.1c0.2-0.1,0.4-0.2,0.4-0.3h0.1l0.1,0.1h0.1c0-0.2,0.1-0.3,0.1-0.3C3.9,141.9,3.8,141.8,3.7,141.7
		z M3.1,138.4L3,138.7v0.2c0.2-0.1,0.3-0.2,0.3-0.4L3.1,138.4L3.1,138.4z M3.6,139.5H3c0,0.1,0.2,0.2,0.7,0.3h0.1l0.1-0.1v-0.2
		L3.6,139.5z M3.1,135.9v0.1l0.3,0.3h0.1v-0.1H3.3v-0.1l0.2-0.3H3.1z M3.5,134.3L3.5,134.3l0.1,0.3c0,0.1-0.1,0.1-0.2,0.1l-0.1,0.1
		v0.1h0.4v-0.6H3.5z M3.3,138v0.2l0.1,0.1h0.1v-0.2L3.3,138L3.3,138z M3.7,143.3v0.4h0.1l0.1-0.3l-0.1-0.3L3.7,143.3z M4,141.2v0.2
		l0.2,0.1l0.1-0.1v-0.1L4,141.2L4,141.2z M4,143.4L4,143.4l0.1-0.1v-0.1L4,143.4z M4.3,130.7v0.1h0.2L4.3,130.7L4.3,130.7z M5.5,124
		h3.1c2.7,0,4.7,0.7,5.9,2.2l0.1-0.1v0.1l-0.1,0.1c0.9,1.3,1.3,2.7,1.3,4.1v7.3c0,1.6-0.4,3-1.3,4h-0.1v0.1l0.1,0.2l-0.5,0.4h-0.1
		v-0.1h-0.1l-0.1,0.2l0.1,0.2c-1,1.1-3.2,1.6-6.5,1.6H5.5l-0.1-0.1v-1.8l0.1-0.2l-0.1-0.1v-1.4l0.1-0.2h2.7c0.2,0,0.5,0.1,0.6,0.2
		h0.2v-0.1L9,140.5c1.4-0.5,2.2-1.4,2.2-2.9v-7.4c-0.3-1.6-1.2-2.4-2.6-2.4c0-0.1-0.1-0.2-0.4-0.2l-0.7,0.1l-0.1-0.1v-0.1l-0.5,0.2
		l-0.4-0.1v-0.1l0.1-0.1v-0.1H6.4l-0.3,0.2H5.5l-0.1-0.2v-3.5L5.5,124z M5.5,141.3L5.5,141.3l0.4,0.1c0,0.3,0.2,0.5,0.6,0.6l0.1-0.1
		v-0.1c-0.3,0-0.4-0.2-0.4-0.5l0.1-0.2L6.1,141l-0.2,0.1V141C5.6,141.2,5.5,141.3,5.5,141.3z M6.8,141.2l0.6,0.2l0.1-0.1v-0.1
		c-0.1,0-0.1-0.1-0.2-0.3l-0.1-0.1H7C6.9,140.9,6.8,141,6.8,141.2z M7.1,127.9v0.2H7V128L7.1,127.9z M7.1,127.3l0.1,0.1l0.1-0.1
		v-0.1H7.1z M7.2,142.2v0.2h0.1v-0.2H7.2z M7.4,142.7v0.2l0.2-0.1v-0.1H7.4z M7.6,142.5L7.6,142.5l0.4,0.1v-0.1H7.6z M8.4,123.5h0.4
		l-0.5,0.4v-0.1L8.4,123.5z M8.4,141.3v0.1l0.1,0.3l0.3-0.1l-0.2-0.4H8.4z M11.5,128.6l0.1,0.4h0.1l-0.1-0.1v-0.1l0.1-0.3H11.5z
		 M13,129.2l0.1,0.1l0.1-0.1v-0.1H13z M13.6,137.7v0.1h0.4v0.2h0.1v-0.2l-0.2-0.1H13.6z M14.3,125.2h0.1c0,0.1,0.1,0.1,0.2,0.1v0.2
		h-0.1c-0.1,0-0.1-0.1-0.1-0.2h-0.1v0.1h-0.2L14.3,125.2z"/>
	<path class="st1" d="M22.6,124L22.6,124l0.9,0.1l0.1,0.1v8.1l-0.1,0.3l0.1,0.2h-0.1l0.1,0.1v2.4l-0.1,0.1l0.1,0.1v8.7l-0.1,0.1H23
		v-0.2h-0.1c0,0.1,0,0.2-0.1,0.2h-2.3v-0.2h-0.1v0.2h-1.2l-0.1-0.1v-19.9l0.1-0.1L22.6,124L22.6,124z M19.7,142.4v0.1h0.2v-0.1H19.7
		z M19.7,143.5v0.2l0.1-0.1v-0.1H19.7z M20,143.4h0.3l-0.2-0.1L20,143.4z M20.9,142.9L20.9,142.9c0.3,0,0.5,0,0.5-0.1v-0.1h-0.3
		L20.9,142.9z M21.2,143.5l0.1,0.2h0.1v-0.2H21.2z M21.8,135.1c0,0.2-0.1,0.3-0.4,0.4v0.1h0.4L21.8,135.1L21.8,135.1L21.8,135.1z
		 M21.5,141.4L21.5,141.4l0.2,0.3h0.1v-0.3H21.5z M22,143.5l-0.1,0.1v0.2L22,143.5L22,143.5L22,143.5z M22,141.7v0.1h0.2L22,141.7
		L22,141.7z M22.2,135.8v0.1h0.3l0.1-0.3h-0.1L22.2,135.8z M22.2,143.4L22.2,143.4l-0.1,0.1h0.2L22.2,143.4z M22.7,139.4
		c0,0.1-0.1,0.2-0.4,0.2v0.1l0.6-0.2v-0.1H22.7z M22.7,132.6l0.1,0.1h0.1v-0.1H22.7z M23,138.9l-0.1,0.3H23l0.1-0.3H23z M23.2,132.2
		c0,0.2-0.1,0.3-0.3,0.3v0.1H23c0.2-0.1,0.3-0.2,0.4-0.3v-0.1H23.2z M23,135.1v0.1h0.3v-0.1H23z M23.2,130.2v0.1h0.2v-0.1H23.2z
		 M24.5,124.1h3.9c2.9,0.2,4.3,0.6,4.3,1.2H33c1.3,1,2,2.4,2,4.4c0,2.1-0.8,3.7-2.5,4.5l-0.1-0.1c0,0.2-0.3,0.4-0.9,0.5v0.1
		c0.8,0,1.6,0.7,2.3,2.2l-0.1,0.1h-0.3l-0.1-0.1h-0.1l-0.1,0.3h0.1l0.4-0.1c0.2,0,0.3,0.5,0.4,1.6h-0.2l-0.4-0.1l-0.3,0.4
		c0.1,0,0.2,0.1,0.4,0.3v0.1l-0.1,0.1v0.1h0.5v-0.1h0.1l0.4,2.2c-0.3,0.1-0.4,0.2-0.4,0.3v0.1h0.4c0.1,0,0.3,0.3,0.4,1l-0.2,0.2v0.2
		l0.2-0.1h0.1c0.1,0,0.3,0.3,0.6,0.8l-0.3,0.3h-1.1l0.1-0.6v-0.2c-0.1,0-0.2,0.3-0.3,0.8H33l-0.1-0.1l0.1-0.1h0.1l0.4,0.1V144
		l-0.1-0.3l0.2-0.3l0.4,0.1l0.3-0.1V143c-0.7,0.2-1.1,0.3-1.1,0.4l0.1,0.4l-0.1,0.1h-0.6c0,0.2,0,0.4-0.1,0.4h-1.1
		c-0.2,0-0.4-0.6-0.9-1.7l0.1-0.2c-0.1,0-0.4-1.3-0.8-3.8c-0.2-0.6-0.6-1.1-1.2-1.4c-0.6-0.2-1.3-0.3-2.3-0.3v-0.2h0.1v-0.1h-0.1
		c0,0.1-0.1,0.1-0.3,0.1v0.2l-1.2,0.1h-0.2l-0.1-0.2v-1.4c0-0.1,0.1-0.2,0.4-0.2v-0.1h-0.1l-0.2,0.1l-0.1-0.1v-1.8l0.1-0.1h1.8
		c2.8,0,4.2-0.8,4.2-2.5v-0.6c-0.2-1.4-0.8-2.1-2-2.1c0-0.1-0.6-0.1-1.8-0.1h-2.2l-0.1-0.1v-3.5L24.5,124.1z M25.3,135.2L25.3,135.2
		l0.4,0.3h0.6v-0.1h-0.6c-0.1,0-0.2-0.1-0.2-0.2L25.3,135.2z M25.5,133.5v0.1l0.1,0.2l-0.1,0.1v0.2h0.3l-0.1-0.1v-0.1l0.2-0.3
		L25.5,133.5L25.5,133.5z M26.2,133.3l-0.1,0.3h0.2v-0.3H26.2z M26.5,135.5l0.1,0.1H27v-0.1l-0.1-0.1L26.5,135.5z M27.3,134.8
		l0.1,0.2h0.1l0.1-0.1v-0.1H27.3L27.3,134.8z M28.9,133.2l0.1,0.2l-0.1,0.1h-0.1l-0.1-0.1c-0.2,0-0.6,0.1-0.9,0.4h-0.2l0.1,0.1v0.1
		l-0.1,0.4h0.2c0.3-0.1,0.4-0.3,0.4-0.6l0.2-0.2h0.3c0.1,0,0.2,0.1,0.2,0.3h0.1l0.2-0.4c-0.1,0-0.1-0.1-0.1-0.3l-0.1-0.1H28.9z
		 M29.4,136.2l0.2,1.1h0.1v-0.2l-0.1-0.6l0.1-0.2v-0.1H29.4z M30,134.5l-0.1,0.3l0.7,0.3v-0.1c-0.1,0-0.1-0.1-0.1-0.3l-0.3-0.2H30z
		 M30,132.5l0.3,0.3h0.3l0.1-0.1h-0.6v-0.1H30z M30.3,140.5c0.1,0.3,0.1,0.4,0.2,0.4l0.1-0.1v-0.1l-0.2-0.2H30.3z M30.4,137.8
		l-0.1,0.3v0.1h0.1V137.8L30.4,137.8L30.4,137.8z M30.7,135.6L30.7,135.6l-0.1,0.2l0.3-0.1v-0.1H30.7z M30.6,139.1l0.3,0.4H31v-0.1
		c-0.1,0-0.2-0.1-0.2-0.3H30.6z M30.7,141.9c0.3,0.1,0.5,0.2,0.6,0.4l0.6,0.2v-0.2c-0.3,0-0.6-0.2-0.8-0.5l-0.1-0.1h-0.2L30.7,141.9
		z M30.8,140.9l0.1,0.1h0.2v-0.1H30.8z M30.8,142.8l0.1,0.1H31L30.8,142.8L30.8,142.8z M30.9,133.3v0.6H31v-0.6H30.9z M31,140.2
		L31,140.2l0.2,0.1V140L31,140.2z M31.4,131.6l-0.1,0.2l0.1,0.2h0.1l0.1-0.4H31.4z M31.6,137.9L31.6,137.9L31.6,137.9l0.3-0.1v-0.2
		L31.6,137.9z M31.6,143.8v0.2h0.1l0.4-0.1v-0.2h-0.1L31.6,143.8z M31.8,138.5L31.8,138.5l0.2-0.2H32L31.8,138.5z M32.2,139.9
		l-0.2-0.1l-0.2,0.1v0.1h0.5l0.1,0.1c0.3-0.1,0.4-0.2,0.4-0.3l-0.1-0.1h-0.1C32.5,139.8,32.4,139.9,32.2,139.9z M31.8,140.6l0.1,0.3
		H32l0.3-0.1v-0.2H31.8z M32.1,139.4L32.1,139.4l0.1,0.2h0.1l0.1-0.1L32.1,139.4z M32.6,142.5c0,0.2,0,0.3-0.1,0.3l0.1,0.1v0.1
		l-0.1,0.2v0.1h0.3L32.6,142.5L32.6,142.5z M32.5,128.5L32.5,128.5l0.2-0.1h-0.1L32.5,128.5z M32.6,138.5v0.1l0.4-0.1v-0.1H32.6z
		 M32.8,141.4c0,0.1,0.2,0.2,0.5,0.4h0.2v-0.1c0-0.1-0.2-0.2-0.5-0.4H32.8z M32.9,139.2H33l0.3-0.2v-0.1h-0.1
		C33,139,32.9,139.1,32.9,139.2z M33.2,137.4l-0.1,0.2l0.3,0.2l0.1-0.1h0.1l0.4,0.3v-0.6h-0.2l-0.4,0.1L33.2,137.4z M33.1,140.6v0.2
		h0.3v-0.2H33.1z M33.1,136.6L33.1,136.6l0.2,0.1v-0.1H33.1z M33.3,138v0.4c0.1,0,0.2-0.1,0.2-0.2L33.3,138L33.3,138z M33.6,142.1
		l0.1,0.1l0.1-0.1H33.6z M34.4,142.5v0.1h0.3v-0.1H34.4z M35.8,144.7h0.4l0.1,0.1l-0.1,0.1h-0.4l-0.2-0.1L35.8,144.7z"/>
	<path class="st1" d="M40.2,124.1h2.4l0.1,0.1v1.9h-0.1c0-0.3,0-0.4-0.1-0.4l-0.1,0.1v0.1c0,0.1,0.1,0.2,0.4,0.3v2.2l-0.5-0.1h-0.1
		v0.1l0.6,0.2v0.9h-0.2v0.1c0.1,0,0.2,0,0.2,0.1v3.4c-0.2,0-0.3,0.2-0.3,0.5l0.1,0.1l-0.2,0.1h-0.2c-0.1,0-0.1-0.1-0.1-0.4h-0.1
		c0,0.2-0.1,0.4-0.2,0.4h-0.4l-0.1-0.1v-0.3c0.1,0,0.2,0,0.2-0.1l-0.1-0.4l-0.1,0.1h-0.1l0.1,0.1v0.2l-0.2,0.1h-0.2
		c-0.2-0.1-0.4-0.3-0.4-0.6v-0.1l0.2-0.1l-0.1-0.4c0.2,0,0.3-0.1,0.3-0.4h0.6v-0.3h0.4l0.1-0.1h0.1c0-0.1-0.1-0.2-0.3-0.2l-0.1-0.4
		l-0.1,0.1h-0.1l0.1,0.1v0.2l-0.2,0.2l-0.3,0.1v0.2l-0.1-0.1h-0.1l-0.1,0.4l-0.3-0.2v0.2h-0.7v-0.3l0.1-0.4c-0.1,0-0.2,0-0.2-0.1
		v-0.3l0.2-0.1c0.1,0.3,0.3,0.5,0.6,0.5v-0.1c-0.2-0.1-0.4-0.3-0.4-0.5l0.1-0.1l0.1,0.1h0.4v-0.4c0-0.1,0.1-0.2,0.2-0.2v-0.1
		c-0.3,0-0.4-0.1-0.4-0.4l-0.1,0.1h-0.1l-0.6-0.1l-0.1,0.1v-0.1c0.1,0,0.2-0.1,0.2-0.2v-0.2h-0.1v0.1l-0.4-0.1h-0.1v0.1h0.1v0.1
		l-0.3,0.1v-0.4h0.2V129l-0.1-0.1v-0.1c0.2-0.1,0.3-0.2,0.3-0.4h0.2l0.2,0.2l-0.1,0.2l0.1,0.4H40v-0.3h0.1l0.1,0.1l-0.1,0.1v0.1h0.1
		l0.4-0.1v-0.1c-0.3,0-0.6-0.2-0.9-0.5v-0.6h-0.1c0,0.1-0.1,0.3-0.3,0.4l-0.1-0.1h-0.4l0.1,0.5c0,0.2-0.2,0.3-0.6,0.6v0.1h-0.3v-0.6
		l0.1-0.5h-0.1V128h0.1v0.2c0.4,0,0.5-0.1,0.6-0.3v-0.1h-0.1v0.2c-0.4,0-0.6-0.2-0.6-0.5l0.3-0.2H39l-0.1,0.4v0.1H39
		c0-0.2,0.1-0.3,0.1-0.3l-0.1-0.6l0.1-0.1v-0.1c-0.1,0-0.2,0-0.2-0.1l-0.1,0.1h-0.1l-0.2-0.2v-0.1c0.2,0,0.4-0.1,0.4-0.3l-0.1-0.1
		l0.1-0.1l0.1,0.1h0.2l0.4-0.1l0.1,0.4h0.1c0.2-0.1,0.3-0.2,0.4-0.2v-0.1l-0.3-0.1l0.2-0.6c-0.1,0-0.2-0.1-0.3-0.4l0.1-0.2l0.4,0.1
		l0.1-0.1L40.2,124.1L40.2,124.1z M39.3,124.1v0.2h0.1c0-0.1,0.1-0.2,0.3-0.2l0.1,0.2v0.1c-0.1,0-0.2,0.1-0.2,0.2l-0.3,0.1l-0.3-0.1
		c-0.1,0.2-0.2,0.3-0.3,0.4l-0.1-0.1h-0.1l-0.2,0.3l0.4,0.1v0.5c-0.2,0-0.3,0.1-0.3,0.2h-0.3v-0.8l0.1-0.6l-0.1-0.5l0.1-0.1H39.3z
		 M38.2,129.6h0.1l0.1,0.4l-0.1,0.5l-0.1-0.1V129.6z M38.9,129.8c0.1,0,0.2,0.2,0.4,0.7h0.1l0.1-0.4c-0.2,0-0.2,0-0.2-0.1l0.4-0.1
		l0.4,0.2h0.1v0.2l-0.1,0.2h-0.4c0,0.2-0.1,0.4-0.2,0.5h0.1l-0.1,0.1v0.1l0.2,0.4l-0.2,0.1l-0.2-0.2H39l-0.1,0.1
		c0,0.4,0.2,0.6,0.5,0.6v0.1l0.1-0.1h0.1l0.1,0.1v0.5c-0.2,0-0.4,0.1-0.4,0.2v0.1c0.1,0.2,0.3,0.3,0.5,0.3c0-0.3,0-0.4,0.1-0.4v0.1
		l0.2-0.1v-0.1c0-0.1-0.1-0.1-0.2-0.1l-0.1-0.1v-0.2l0.1-0.2c0.4,0,0.6,0.2,0.6,0.5c-0.1,0-0.1,0.1-0.1,0.4h-0.2v0.2
		c0.6,0.4,0.9,0.7,0.9,0.8c0,0.1,0.1,0.1,0.4,0.1l0.1,0.1v0.4l-0.1,0.4h0.1L42,135l0.1,0.1v-0.1c0-0.1-0.1-0.1-0.3-0.1
		c0-0.1,0.1-0.2,0.4-0.2v-0.1l0.4,0.2v-0.1l0.1-0.3h0.1v1.6l-0.1,0.5l0.1,0.6v4.7c0,0.2-0.1,0.4-0.3,0.6v0.1l0.1-0.1h0.2v0.1
		l-0.1,0.1l0.1,0.4v0.9l-0.4,0.4H42l-0.2-0.1l0.1-0.1v-0.2l-0.4,0.2v0.1H41v-0.3l0.3-0.1h0.1v-0.1l-0.1-0.1h-0.1
		c0,0.1-0.1,0.3-0.4,0.4l-0.4-0.1c0.1-0.3,0.1-0.5,0.2-0.5h0.4c0-0.1,0.1-0.2,0.4-0.2l0.3-0.4v-0.1h-0.3v-0.4h0.3l0.4,0.4h0.2v-0.1
		c-0.2,0-0.4-0.1-0.4-0.4V142c0.2,0,0.3-0.1,0.4-0.4h0.1v0.1h0.1v-0.2l-0.1-0.6h-0.1l-0.2,0.4l0.2,0.1l-0.8,0.6l-0.2-0.1v0.1
		c0,0.2-0.2,0.4-0.6,0.4c-0.1-0.2-0.2-0.3-0.4-0.4V142l0.1-0.1h0.1l0.4,0.1l-0.1-0.1v-0.1l0.1-0.4h-0.4l0.1,0.1v0.1h-0.2l-0.1-0.3
		v-0.1h-0.1c0,0.3,0,0.5-0.1,0.5h-0.1l-0.2-0.1v0.1l-0.1,0.4l-0.1-0.1h-0.1l-0.1,0.2c0.3,0,0.5,0.1,0.5,0.3l0.1,0.4L39,143l0.1,0.1
		v0.5c0.3,0,0.4,0,0.4,0.1v0.4h-0.4c-0.1,0-0.2-0.1-0.2-0.4c-0.3,0-0.5,0-0.5-0.1V143h0.1V143c-0.2,0-0.3,0-0.3-0.1v-1.3l0.5-0.4
		h-0.5V141l0.1-0.2v-0.2l-0.1-0.2v-4.2c0-0.1,0.1-0.1,0.2-0.1V136c-0.1,0-0.2,0-0.2-0.1v-1.6l0.1-0.1h0.1l0.1,0.1h0.1v-0.1l-0.4-0.4
		v-2.8h0.1l0.1,0.1h-0.1l0.1,0.2h0.2v-0.4c0-0.1,0.1-0.1,0.4-0.1v-0.1l-0.5-0.1v-0.2l0.1-0.1v-0.1l-0.1-0.1
		C38.7,130.1,38.9,130,38.9,129.8z M38.4,144.1L38.4,144.1l0.1,0.1l-0.1,0.1l-0.1-0.1v-0.1L38.4,144.1z M38.6,139v0.1h0.2l-0.1,0.1
		v0.1l0.1,0.2h-0.1l-0.2,0.1v0.1h0.2c0.2-0.3,0.5-0.5,0.9-0.5V139l-0.6,0.1l-0.1-0.1H38.6z M38.6,131.9l-0.1,0.2l0.1,0.1h0.1
		l0.1-0.2l-0.1-0.1H38.6z M39.2,134.7h0.2v0.1l-0.4,0.1v0.1h0.1v0.3l0.1,0.4l-0.4,0.1v-0.1l-0.4,0.1v0.1l0.1,0.1v0.1l0.7-0.1v0.1
		h0.1v-0.5h0.4l-0.1-0.3l0.1-0.2h0.5l0.2,0.2l-0.1,0.1v0.1l0.1,0.2v-0.2h0.1l0.3,0.3v0.1l-0.1,0.1l0.1,0.1v0.1l-0.1,0.4h0.1l0.1-0.6
		l0.1,0.1h0.1v-0.1c-0.1,0-0.1-0.1-0.1-0.4c-0.2,0-0.4-0.1-0.4-0.2l0.3-0.6h-0.2v0.2h-0.2l-0.1-0.1h-0.1l0.1-0.4v-0.1h-0.1l-0.1,0.4
		l-0.1-0.1h-0.1l-0.1,0.2h-0.5v0.3h-0.3v-0.1h0.2v-0.1l-0.1-0.2h0.1c0.1,0,0.2-0.2,0.3-0.5h-0.3L39.2,134.7z M38.7,142.4
		c0,0.1-0.1,0.2-0.2,0.2l0.2,0.1l-0.1,0.1v0.1h0.4v-0.1C38.8,142.8,38.8,142.6,38.7,142.4L38.7,142.4z M38.7,136.4v0.1l0.2,0.1
		l0.1-0.1v-0.4h-0.1L38.7,136.4z M38.8,132.9L38.8,132.9l-0.1,0.3l0.2-0.2L38.8,132.9L38.8,132.9z M38.8,138.1L38.8,138.1l-0.1,0.1
		h0.1V138.1l0.1,0.1H39v-0.1L38.8,138.1z M38.9,141L38.9,141l0.1,0.2h0.1v-0.1L39,141H38.9z M38.9,137.3v0.1l0.2,0.2l0.4-0.1v-0.1
		l-0.2-0.1H38.9L38.9,137.3z M38.9,140.2v0.3l0.4-0.4l-0.1-0.1L38.9,140.2z M39.1,138.3L39.1,138.3l0.2,0.3v-0.1L39.1,138.3z
		 M39.1,140.8l0.1,0.1l0.2-0.1v-0.1H39.1z M39.1,141.5L39.1,141.5l0.1,0.2l0.1-0.1L39.1,141.5z M39.4,126.7v0.1h0.1l0.4-0.1v-0.2
		L39.4,126.7z M39.9,135.6c0,0.2,0,0.4-0.1,0.4l-0.2-0.1c0.1,0.1,0.1,0.3,0.1,0.5h0.1c0.1,0,0.2-0.1,0.2-0.4l-0.1-0.1l0.3-0.1v0.1
		h0.1v-0.3L39.9,135.6z M39.7,138.6L39.7,138.6l0.3,0.1v-0.1h-0.1L39.7,138.6z M40,142.8v0.4l-0.1,0.1l-0.1-0.4l0.1-0.1H40z
		 M39.9,126.7v0.2h0.1v-0.2H39.9z M40.5,127.3v0.2h0.1v-0.2H40.5z M40.6,126.5L40.6,126.5l0.1,0.1l0.1-0.2h-0.1L40.6,126.5z
		 M40.7,127L40.7,127l0.1,0.1l0.1-0.1l-0.1-0.1h-0.1L40.7,127z M40.7,125.4L40.7,125.4l0.3-0.2h-0.1L40.7,125.4z M40.7,137.4v0.1H41
		l0.2-0.2v-0.1h-0.1L40.7,137.4z M41.3,125.5v0.4h-0.1l-0.2-0.1l0.1-0.1h-0.2v0.4h-0.1v0.1h0.1c0-0.2,0.2-0.3,0.6-0.3
		c0.1-0.2,0.2-0.3,0.4-0.3v-0.1H41.3z M41.8,130.5c0,0.2-0.1,0.4-0.2,0.4l-0.3-0.1l-0.5,0.1v0.2l1-0.2l0.1-0.1v-0.1L41.8,130.5z
		 M41.7,128.1h-0.4l-0.2-0.1l-0.2,0.1v0.3l0.4,0.1l0.1-0.1l0.7,0.2v-0.1c0-0.1-0.1-0.1-0.2-0.1v-0.1l0.3-0.3h0.4l0.1-0.2l-0.1-0.1
		h-0.1L41.7,128.1z M41.2,124.7l-0.2,0.3h0.2l0.1-0.1L41.2,124.7z M41.1,129.1L41.1,129.1l-0.1,0.1l0.2,0.2l0.1-0.1h0.1
		c0.2,0,0.4,0.1,0.4,0.3h0.2v-0.1C41.9,129.4,41.6,129.2,41.1,129.1z M41.1,138.3v0.1l0.4,0.1v0.1c0,0.2-0.1,0.3-0.2,0.5v0.1h0.1
		c0.1,0,0.1-0.1,0.1-0.3l0.4-0.1v-0.4L41.1,138.3z M41.2,136.8v0.2h0.1l0.2-0.1v-0.1H41.2z M41.4,129.7v0.1c0.1,0,0.1,0.1,0.1,0.3
		h0.1L41.4,129.7L41.4,129.7L41.4,129.7z M41.7,126.7l0.1,0.4h-0.1v0.2h0.1l0.6-0.3h0.1v-0.1l-0.4-0.1h-0.2v-0.1H41.7z M41.6,132.4
		L41.6,132.4l0.1,0.3h0.3v-0.1L41.6,132.4L41.6,132.4z M41.7,130.2v0.2h0.1L41.7,130.2L41.7,130.2z M41.7,136.1L41.7,136.1l0.1,0.2
		v-0.2H41.7z M41.9,137.7l-0.1,0.3h0.1L41.9,137.7L41.9,137.7z M42.2,140.3c0,0.2-0.1,0.4-0.4,0.4v0.1l0.6,0.1v-0.4L42.2,140.3z
		 M41.9,137L41.9,137l0.1,0.6h0.2c0-0.2,0.1-0.4,0.4-0.4c0-0.2-0.2-0.3-0.4-0.4L41.9,137z M42.1,135.7v0.3c0.1,0,0.1-0.1,0.2-0.3
		H42.1z M42.2,124.8c0.1,0.4,0.2,0.6,0.3,0.6l0.2-0.2c-0.1,0-0.1-0.1-0.1-0.4l-0.1-0.1h-0.1L42.2,124.8z M42.2,129.7h0.3l-0.1-0.2
		L42.2,129.7z M42.2,143.5L42.2,143.5L42.2,143.5c0.4,0,0.5,0,0.5-0.1v-0.1h-0.3L42.2,143.5z M42.2,132.2l0.1,0.1h0.1v-0.1l-0.1-0.2
		h-0.1L42.2,132.2z M42.4,139L42.4,139l-0.1,0.3c0.1,0,0.2,0.1,0.2,0.3h0.2C42.5,139.3,42.4,139.2,42.4,139l0.2,0.1V139H42.4z
		 M43.7,124.1h1.7l0.1,0.1l-0.1,0.1v0.2h0.1c0.1,0,0.2-0.2,0.2-0.5h1.2l0.1,0.1l0.1-0.1H48c0,0.2,0.1,0.4,0.2,0.4l0.1-0.1h0.1
		l-0.1-0.1v-0.2h1.8v0.2l0.1-0.1l0.1,0.1h0.1v-0.1l-0.1-0.1v-0.1h2.6l0.2,0.1v3.4l-0.2,0.1H51v-0.2c-0.1,0-0.1,0.1-0.1,0.2h-4.1
		l-0.2-0.1l-0.2,0.1h-2.6l-0.2-0.1v-0.6l0.1-0.1l-0.1-0.1v-2.2h0.2v-0.2h-0.2v-0.3L43.7,124.1z M43.7,131.8c0.3,0,0.5,0.2,0.6,0.6
		l-0.1,0.1h0.1l0.1-0.1l0.1,0.1h0.1l0.2-0.2l-0.4-0.4v-0.1h0.1l0.1,0.1h0.1l0.1-0.1l0.4,0.1h0.6l0.4-0.1v0.1l0.1-0.1h0.2l0.2,0.1
		l0.4-0.1h1.2l0.6,0.1l0.2-0.1h0.1l0.1,0.1l0.1-0.1h2.9l0.1,0.1v0.1H52l-0.4-0.1l-0.1,0.1v0.1l0.6,0.2l0.1-0.2h0.1v1.3
		c-0.3,0-0.6-0.2-0.8-0.4h-0.4v-0.1h-0.4c0-0.2-0.1-0.3-0.3-0.3v0.1c0.1,0.4,0.2,0.6,0.4,0.6c0.1,0,0.2,0.1,0.2,0.2l0.1,0.1h0.1
		c0-0.2,0.1-0.3,0.2-0.3l0.2-0.1l0.4,0.3h0.2l0.1-0.1h0.1l0.1,0.5v0.9l-0.1,0.1l0.1,0.1v0.1l-0.1,0.5l-0.5-0.1l-0.1,0.2h-0.1v-0.1
		l-0.5,0.1h-0.9l-0.1-0.1l-0.1,0.1h-0.5l-0.1-0.1l-0.1,0.1h-0.4l-0.3-0.1l-0.3,0.1h-0.5l-0.1-0.2l-0.6,0.2h-1.9
		c-0.1,0-0.2-0.1-0.3-0.4h-0.1l-0.1,0.2l-0.2-0.1v0.1c0,0.1-0.1,0.2-0.4,0.2h-0.4v-0.2h0.4v-0.1l-0.1-0.1l0.1-0.2h0.1l0.1,0.1h0.1
		l0.1-0.1v-0.4c0-0.1-0.1-0.2-0.2-0.2l-0.1,0.1H44l-0.2-0.1l0.1,0.1l-0.1,0.1v0.1l0.1,0.2l-0.1,0.4h-0.2v-0.9l0.1-0.1l-0.1-0.1v-1.5
		h0.1c0.1,0,0.2,0.2,0.2,0.6h0.1c0-0.3,0-0.5,0.1-0.6v-0.1l-0.4-0.4v-0.2l0.1-0.1l-0.1-0.1V131.8z M44.7,140.5h0.4l0.3,0.2
		c0-0.2,0-0.2,0.1-0.2h0.6v0.1l-0.1,0.1v0.1l0.1,0.1h0.1l0.3-0.3H49l0.2,0.2l0.3-0.2c0.2,0.1,0.3,0.2,0.3,0.3l-0.1,0.1l0.6,0.3V141
		c-0.2,0-0.3-0.2-0.4-0.5h1.2c0.2,0,0.5,0.1,1,0.4l0.1-0.1l-0.1-0.1v-0.2h0.9l0.1,0.2v0.6l-0.4,0.6h0.1l0.3-0.2h0.1v0.9l-0.1,0.1
		l0.1,0.1v0.1l-0.1,0.2l0.1,0.2v0.9l-0.1,0.1h-2.9v-0.1l0.3-0.1v-0.1h-0.2v0.1l-0.1-0.1h-0.2v0.2H49l-0.4-0.3l0.2-0.4
		c-0.4,0-0.7-0.1-0.8-0.2l-0.5,0.2v0.2c0.1,0,0.2,0.1,0.2,0.2h-0.1l0.1,0.1v0.1l-0.1,0.1h-1v-0.1c0-0.1,0.1-0.1,0.2-0.1l-0.2-0.3
		h-0.4v-0.1h-0.4c0,0.2-0.1,0.4-0.4,0.4l-0.2-0.2v-0.5h0.2l-0.1-0.1v-0.4l0.1-0.1v-0.1c-0.2-0.1-0.3-0.2-0.4-0.2v-0.1l0.1-0.1
		l-0.1-0.1v-0.1l0.1-0.2c0-0.1-0.1-0.2-0.4-0.4l-0.3,0.1l0.1,0.4c0,0.2-0.1,0.3-0.2,0.5v0.1c0,0.1,0.1,0.2,0.4,0.2v0.2h-0.2
		c0,0.1,0.1,0.2,0.3,0.2v0.7h0.3v0.1l-0.1,0.1H44c0-0.1-0.1-0.2-0.3-0.2l-0.1-0.1v-0.4l0.2-0.2v-0.3h-0.2v-0.6l0.4-0.4
		c0-0.1,0.1-0.2,0.3-0.2v-0.1H44l0.1-0.7c0.1,0,0.1,0.1,0.1,0.2c0.2,0,0.3-0.1,0.3-0.3l0.1-0.1l-0.1-0.1h-0.1v-0.2L44.7,140.5z
		 M43.6,141.3h0.2l0.1,0.2v0.3h-0.3V141.3z M44.2,126.1L44.2,126.1l-0.1,0.2l0.1,0.1h0.1l0.1-0.1l0.2,0.3v0.4h0.1l0.2-0.1v-0.1
		C44.7,126.6,44.5,126.3,44.2,126.1z M44.2,125.1l0.2,0.1l0.1-0.2l-0.1-0.1h-0.1L44.2,125.1z M44.4,127.1v0.2h0.1l0.2-0.2H44.4z
		 M44.4,134.4L44.4,134.4L44.4,134.4h0.4v-0.1h-0.1L44.4,134.4z M44.4,133.4v0.1h0.2c0,0.1,0.1,0.1,0.2,0.1v0.5h0.1l0.1-0.4
		C44.7,133.5,44.6,133.4,44.4,133.4z M44.8,132.7c0,0.3,0.1,0.5,0.4,0.6l0.4-0.5v-0.1h-0.1c0,0.1-0.1,0.1-0.3,0.1v0.1h-0.1v-0.1
		l-0.1-0.1H44.8z M44.9,127.4v0.3h0.1l0.1-0.2L44.9,127.4L44.9,127.4z M45.1,125.7v0.3l0.1-0.1v-0.1H45.1z M45.7,134l0.1,0.2
		l-0.4,0.1c0,0.1,0.1,0.1,0.3,0.2c0-0.1,0.1-0.1,0.4-0.2l0.1,0.1l-0.1-0.3l-0.1,0.1h-0.1V134H45.7z M45.9,144h0.2l0.3,0.3v0.1h-0.6
		l-0.1-0.1L45.9,144z M45.9,132.1L45.9,132.1h0.2v-0.1h-0.1L45.9,132.1z M45.9,133.1L45.9,133.1l0.1,0.3h0.1l0.2-0.1L45.9,133.1z
		 M45.9,142.1L45.9,142.1l0.4,0.4l0.1-0.1h0.3l0.6,0.6l0.1-0.1v-0.1c-0.2,0-0.3-0.1-0.3-0.4l0.1-0.4l-0.2,0.3h-0.2l-0.5-0.2
		l-0.3,0.1L45.9,142.1z M46.2,132.5v0.2h0.2v-0.1L46.2,132.5z M46.2,132v0.2h0.1l0.2-0.1v-0.1h-0.1L46.2,132z M46.5,126.9v0.1h0.1
		l0.1-0.1H46.5z M46.7,125.4l-0.1,0.3h0.1l0.1-0.1L46.7,125.4z M47,141v0.1h0.2v-0.3L47,141z M47.7,135v0.2h0.1l0.2-0.1v-0.1
		L47.7,135z M47.9,143.6c0.3,0,0.5,0.1,0.6,0.4h0.1v0.1l-0.4,0.1H48c0-0.2-0.1-0.4-0.3-0.6L47.9,143.6z M48,142v0.4l0.1,0.1v0.1
		h-0.2c0,0.1,0.1,0.2,0.4,0.3v-0.1l-0.1-0.1v-0.1l0.1-0.1l-0.2-0.1c0-0.2,0.1-0.4,0.2-0.4l-0.1-0.1H48z M47.9,140.8L47.9,140.8
		l0.2,0.1v-0.1l-0.1-0.1H47.9z M48.2,127.1l-0.1,0.4h0.1l0.2-0.2v-0.2H48.2z M48.2,132.9v0.2h0.4v-0.2l-0.1,0.1h-0.1L48.2,132.9z
		 M48.2,141.3l0.1,0.2l0.1-0.2H48.2z M48.7,134.1v0.3l0.2,0.1L49,134L48.7,134.1z M49,142.4v1.1c0.2,0.2,0.3,0.4,0.6,0.4v-0.1
		l-0.3-0.5l0.1-0.3l-0.3-0.3v-0.4H49z M49.1,132.2c0.1,0,0.3,0.1,0.5,0.3c0-0.1,0.1-0.2,0.2-0.2c0,0.1,0.2,0.2,0.5,0.4v-0.1
		c-0.2,0-0.4-0.1-0.6-0.4h-0.4L49.1,132.2z M49.2,141.6L49.2,141.6l-0.1,0.3h0.1c0-0.1,0-0.2,0.1-0.2v-0.1H49.2z M49.2,127.5v0.1
		l0.1,0.1v-0.3H49.2z M49.3,126h0.2v-0.2L49.3,126z M49.4,141v0.4l0.1-0.2L49.4,141L49.4,141z M49.4,142.1L49.4,142.1l0.1,0.3h0.1
		v-0.1L49.4,142.1L49.4,142.1z M49.5,134.3v0.1l0.2,0.5h0.1v-0.4c-0.1,0-0.1-0.1-0.1-0.2H49.5z M49.7,135c0,0.1-0.1,0.2-0.2,0.2v0.1
		l0.3-0.1V135H49.7z M49.5,142v0.1l0.3-0.1v-0.3L49.5,142L49.5,142z M50.2,125.1c0,0.2-0.1,0.3-0.4,0.3l-0.1-0.1l-0.1,0.3H50
		L50.2,125.1L50.2,125.1L50.2,125.1z M49.7,133.2l0.1,0.3h0.1l0.1-0.1l-0.1-0.1H49.7z M49.7,133.7v0.3h0.1L49.7,133.7L49.7,133.7z
		 M49.8,142.7v0.2l-0.1,0.4h0.1l0.1-0.1v-0.4H49.8z M50.2,142.5v0.1l0.1,0.1h0.1v-0.1L50.2,142.5L50.2,142.5z M50.8,142.6
		L50.8,142.6l0.1,0.1c0.1,0,0.1,0.1,0.1,0.3l0.2,0.1l0.1-0.1v-0.1l-0.4-0.3H50.8z M51.1,133.8l0.1,0.4l0.2-0.2l-0.2-0.2H51.1z
		 M51.5,141.7v0.1l0.1,0.4h0.1l0.1-0.4l-0.1-0.1H51.5z M52.5,142l-0.1,0.1c0,0.4,0.1,0.6,0.2,0.7l-0.3,0.4h0.1
		c0-0.1,0.1-0.1,0.2-0.1v-0.2l-0.1-0.4l0.3-0.1l0.1,0.1l0.1-0.1l-0.1-0.3l-0.4,0.1l-0.1-0.1l0.1-0.1L52.5,142L52.5,142z"/>
	<path class="st1" d="M58.4,124.1h2.4l0.1,0.1v1.9h-0.1c0-0.3,0-0.4-0.1-0.4l-0.1,0.1v0.1c0,0.1,0.1,0.2,0.4,0.3v2.2l-0.5-0.1h-0.1
		v0.1l0.6,0.2v0.9h-0.2v0.1c0.1,0,0.2,0,0.2,0.1v3.4c-0.2,0-0.3,0.2-0.3,0.5l0.1,0.1l-0.2,0.1h-0.2c-0.1,0-0.1-0.1-0.1-0.4h-0.1
		c0,0.2-0.1,0.4-0.2,0.4h-0.4l-0.1-0.1v-0.3c0.1,0,0.2,0,0.2-0.1l-0.1-0.4l-0.1,0.1h-0.1l0.1,0.1v0.2l-0.2,0.1h-0.2
		c-0.2-0.1-0.4-0.3-0.4-0.6v-0.1l0.2-0.1l-0.1-0.4c0.2,0,0.3-0.1,0.3-0.4h0.6v-0.3h0.4l0.1-0.1h0.1c0-0.1-0.1-0.2-0.3-0.2l-0.1-0.4
		l-0.1,0.1h-0.1l0.1,0.1v0.2l-0.2,0.2l-0.3,0.1v0.2l-0.1-0.1h-0.1l-0.1,0.4l-0.3-0.2v0.2H58v-0.3l0.1-0.4c-0.1,0-0.2,0-0.2-0.1v-0.3
		l0.2-0.1c0.1,0.3,0.3,0.5,0.6,0.5v-0.1c-0.2-0.1-0.4-0.3-0.4-0.5l0.1-0.1l0.1,0.1h0.4v-0.4c0-0.1,0.1-0.2,0.2-0.2v-0.1
		c-0.3,0-0.4-0.1-0.4-0.4l-0.1,0.1h-0.1l-0.6-0.1l-0.1,0.1v-0.1c0.1,0,0.2-0.1,0.2-0.2v-0.2h-0.1v0.1l-0.4-0.1h-0.1v0.1h0.1v0.1
		l-0.3,0.1v-0.4h0.2V129l-0.1-0.1v-0.1c0.2-0.1,0.3-0.2,0.3-0.4h0.2l0.2,0.2l-0.1,0.2l0.1,0.4h0.1v-0.3h0.1l0.1,0.1l-0.1,0.1v0.1
		h0.1l0.4-0.1v-0.1c-0.3,0-0.6-0.2-0.9-0.5v-0.6h-0.1c0,0.1-0.1,0.3-0.3,0.4l-0.1-0.1h-0.4l0.1,0.5c0,0.2-0.2,0.3-0.6,0.6v0.1h-0.3
		v-0.6l0.1-0.5h-0.1V128h0.1v0.2c0.4,0,0.5-0.1,0.6-0.3v-0.1h-0.1v0.2c-0.4,0-0.6-0.2-0.6-0.5l0.3-0.2h0.4l-0.1,0.4v0.1h0.1
		c0-0.2,0.1-0.3,0.1-0.3l-0.1-0.6l0.1-0.1v-0.1c-0.1,0-0.2,0-0.2-0.1l-0.1,0.1H57l-0.2-0.2v-0.1c0.2,0,0.4-0.1,0.4-0.3l-0.1-0.1
		l0.1-0.1l0.1,0.1h0.2l0.4-0.1l0.1,0.4h0.1c0.2-0.1,0.3-0.2,0.4-0.2v-0.1l-0.3-0.1l0.2-0.6c-0.1,0-0.2-0.1-0.3-0.4l0.1-0.2l0.4,0.1
		l0.1-0.1L58.4,124.1L58.4,124.1z M57.5,124.1v0.2h0.1c0-0.1,0.1-0.2,0.3-0.2l0.1,0.2v0.1c-0.1,0-0.2,0.1-0.2,0.2l-0.3,0.1l-0.3-0.1
		c-0.1,0.2-0.2,0.3-0.3,0.4l-0.1-0.1h-0.1l-0.2,0.3l0.4,0.1v0.5c-0.2,0-0.3,0.1-0.3,0.2h-0.3v-0.8l0.1-0.6l-0.1-0.5l0.1-0.1H57.5z
		 M56.4,129.6h0.1l0.1,0.4l-0.1,0.5l-0.1-0.1V129.6z M57.2,129.8c0.1,0,0.2,0.2,0.4,0.7h0.1l0.1-0.4c-0.1,0-0.2,0-0.2-0.1l0.4-0.1
		l0.4,0.2h0.1v0.2l-0.1,0.2h-0.4c0,0.2-0.1,0.4-0.2,0.5h0.1l-0.1,0.1v0.1l0.2,0.4l-0.2,0.1l-0.2-0.2h-0.1l-0.1,0.1
		c0,0.4,0.2,0.6,0.5,0.6v0.1l0.1-0.1h0.1l0.1,0.1v0.5c-0.2,0-0.4,0.1-0.4,0.2v0.1c0.1,0.2,0.3,0.3,0.5,0.3c0-0.3,0-0.4,0.1-0.4v0.1
		l0.2-0.1v-0.1c0-0.1-0.1-0.1-0.2-0.1l-0.1-0.1v-0.2l0.1-0.2c0.4,0,0.6,0.2,0.6,0.5c-0.1,0-0.1,0.1-0.1,0.4h-0.2v0.2
		c0.6,0.4,0.9,0.7,0.9,0.8c0,0.1,0.1,0.1,0.4,0.1l0.1,0.1v0.4l-0.1,0.4h0.1l0.4-0.1l0.1,0.1v-0.1c0-0.1-0.1-0.1-0.3-0.1
		c0-0.1,0.1-0.2,0.4-0.2v-0.1l0.4,0.2v-0.1l0.1-0.3H61v1.6l-0.1,0.5l0.1,0.6v4.7c0,0.2-0.1,0.4-0.3,0.6v0.1l0.1-0.1H61v0.1l-0.1,0.1
		L61,143v0.9l-0.4,0.4h-0.4l-0.2-0.1l0.1-0.1v-0.2l-0.4,0.2v0.1h-0.4v-0.3l0.3-0.1h0.1v-0.1l-0.1-0.1h-0.1c0,0.1-0.1,0.3-0.4,0.4
		l-0.4-0.1c0.1-0.3,0.1-0.5,0.2-0.5h0.4c0-0.1,0.1-0.2,0.4-0.2l0.3-0.4v-0.1h-0.3v-0.4h0.3l0.4,0.4h0.2v-0.1c-0.2,0-0.4-0.1-0.4-0.4
		V142c0.2,0,0.3-0.1,0.4-0.4h0.1v0.1h0.1v-0.2l-0.1-0.6h-0.1l-0.2,0.4l0.2,0.1l-0.8,0.6l-0.2-0.1v0.1c0,0.2-0.2,0.4-0.6,0.4
		c-0.1-0.2-0.2-0.3-0.4-0.4V142l0.1-0.1h0.1l0.4,0.1l-0.1-0.1v-0.1l0.1-0.4h-0.4l0.1,0.1v0.1h-0.2l-0.1-0.3v-0.1h-0.1
		c0,0.3,0,0.5-0.1,0.5h-0.1l-0.2-0.1v0.1l-0.1,0.4l-0.1-0.1h-0.1l-0.1,0.2c0.3,0,0.5,0.1,0.5,0.3l0.1,0.4l-0.6,0.1l0.1,0.1v0.5
		c0.3,0,0.4,0,0.4,0.1v0.4h-0.4c-0.1,0-0.2-0.1-0.2-0.4c-0.3,0-0.5,0-0.5-0.1V143h0.1V143c-0.2,0-0.3,0-0.3-0.1v-1.3l0.5-0.4h-0.5
		V141l0.1-0.2v-0.2l-0.1-0.2v-4.2c0-0.1,0.1-0.1,0.2-0.1V136c-0.1,0-0.2,0-0.2-0.1v-1.6l0.1-0.1h0.1l0.1,0.1h0.1v-0.1l-0.4-0.4v-2.8
		h0.1l0.1,0.1h-0.1l0.1,0.2h0.2v-0.4c0-0.1,0.1-0.1,0.4-0.1v-0.1l-0.5-0.1v-0.2l0.1-0.1v-0.1l-0.1-0.1C57,130.1,57.1,130,57.2,129.8
		z M56.6,144.1L56.6,144.1l0.1,0.1l-0.1,0.1l-0.1-0.1v-0.1L56.6,144.1z M56.8,139v0.1h0.2l-0.1,0.1v0.1l0.1,0.2h-0.1l-0.2,0.1v0.1
		h0.2c0.2-0.3,0.5-0.5,0.9-0.5V139l-0.6,0.1L57,139H56.8z M56.8,131.9l-0.1,0.2l0.1,0.1h0.1L57,132l-0.1-0.1H56.8z M57.4,134.7h0.2
		v0.1l-0.4,0.1v0.1h0.1v0.3l0.1,0.4l-0.4,0.1v-0.1l-0.4,0.1v0.1l0.1,0.1v0.1l0.7-0.1v0.1h0.1v-0.5H58l-0.1-0.3L58,135h0.5l0.2,0.2
		l-0.1,0.1v0.1l0.1,0.2v-0.2h0.1l0.3,0.3v0.1l-0.1,0.1l0.1,0.1v0.1l-0.1,0.4h0.1l0.1-0.6l0.1,0.1h0.1v-0.1c-0.1,0-0.1-0.1-0.1-0.4
		c-0.2,0-0.4-0.1-0.4-0.2l0.3-0.6h-0.2v0.2h-0.2l-0.1-0.1h-0.1l0.1-0.4v-0.1h-0.1l-0.1,0.4l-0.1-0.1h-0.1l-0.1,0.2h-0.5v0.3h-0.3
		v-0.1h0.2v-0.1l-0.1-0.2h0.1c0.1,0,0.2-0.2,0.3-0.5h-0.3L57.4,134.7z M56.9,142.4c0,0.1-0.1,0.2-0.2,0.2l0.2,0.1l-0.1,0.1v0.1h0.4
		v-0.1C57.1,142.8,57,142.6,56.9,142.4L56.9,142.4z M56.9,136.4v0.1l0.2,0.1l0.1-0.1v-0.4h-0.1L56.9,136.4z M57,132.9L57,132.9
		l-0.1,0.3l0.2-0.2L57,132.9L57,132.9z M57,138.1L57,138.1l-0.1,0.1H57V138.1l0.1,0.1h0.1v-0.1L57,138.1z M57.1,141L57.1,141
		l0.1,0.2h0.1v-0.1l-0.1-0.1H57.1z M57.2,137.3v0.1l0.2,0.2l0.4-0.1v-0.1l-0.2-0.1H57.2L57.2,137.3z M57.2,140.2v0.3l0.4-0.4
		l-0.1-0.1L57.2,140.2z M57.3,138.3L57.3,138.3l0.2,0.3v-0.1L57.3,138.3z M57.3,140.8l0.1,0.1l0.2-0.1v-0.1H57.3z M57.3,141.5
		L57.3,141.5l0.1,0.2l0.1-0.1L57.3,141.5z M57.6,126.7v0.1h0.1l0.4-0.1v-0.2L57.6,126.7z M58.1,135.6c0,0.2,0,0.4-0.1,0.4l-0.2-0.1
		c0.1,0.1,0.1,0.3,0.1,0.5H58c0.1,0,0.2-0.1,0.2-0.4l-0.1-0.1l0.3-0.1v0.1h0.1v-0.3L58.1,135.6z M57.9,138.6L57.9,138.6l0.3,0.1
		v-0.1h-0.1L57.9,138.6z M58.2,142.8v0.4l-0.1,0.1l-0.1-0.4l0.1-0.1H58.2z M58.2,126.7v0.2h0.1v-0.2H58.2z M58.7,127.3v0.2h0.1v-0.2
		H58.7z M58.8,126.5L58.8,126.5l0.1,0.1l0.1-0.2h-0.1L58.8,126.5z M58.9,127L58.9,127l0.1,0.1l0.1-0.1l-0.1-0.1H59L58.9,127z
		 M58.9,125.4L58.9,125.4l0.3-0.2h-0.1L58.9,125.4z M58.9,137.4v0.1h0.3l0.2-0.2v-0.1h-0.1L58.9,137.4z M59.5,125.5v0.4h-0.1
		l-0.2-0.1l0.1-0.1h-0.2v0.4H59v0.1h0.1c0-0.2,0.2-0.3,0.6-0.3c0.1-0.2,0.2-0.3,0.4-0.3v-0.1H59.5z M60,130.5c0,0.2-0.1,0.4-0.2,0.4
		l-0.3-0.1l-0.5,0.1v0.2l1-0.2l0.1-0.1v-0.1L60,130.5z M59.9,128.1h-0.4l-0.2-0.1l-0.2,0.1v0.3l0.4,0.1l0.1-0.1l0.7,0.2v-0.1
		c0-0.1-0.1-0.1-0.2-0.1v-0.1l0.3-0.3h0.4l0.1-0.2l-0.1-0.1h-0.1L59.9,128.1z M59.4,124.7l-0.2,0.3h0.2l0.1-0.1L59.4,124.7z
		 M59.4,129.1L59.4,129.1l-0.1,0.1l0.2,0.2l0.1-0.1h0.1c0.2,0,0.4,0.1,0.4,0.3h0.2v-0.1C60.1,129.4,59.8,129.2,59.4,129.1z
		 M59.4,138.3v0.1l0.4,0.1v0.1c0,0.2-0.1,0.3-0.2,0.5v0.1h0.1c0.1,0,0.1-0.1,0.1-0.3l0.4-0.1v-0.4L59.4,138.3z M59.4,136.8v0.2h0.1
		l0.2-0.1v-0.1H59.4z M59.6,129.7v0.1c0.1,0,0.1,0.1,0.1,0.3h0.1L59.6,129.7L59.6,129.7L59.6,129.7z M59.9,126.7l0.1,0.4h-0.1v0.2
		h0.1l0.6-0.3h0.1v-0.1l-0.4-0.1H60v-0.1H59.9z M59.8,132.4L59.8,132.4l0.1,0.3h0.3v-0.1L59.8,132.4L59.8,132.4z M59.9,130.2v0.2H60
		L59.9,130.2L59.9,130.2z M59.9,136.1L59.9,136.1l0.1,0.2v-0.2H59.9z M60.1,137.7L60,138h0.1L60.1,137.7L60.1,137.7z M60.4,140.3
		c0,0.2-0.1,0.4-0.4,0.4v0.1l0.6,0.1v-0.4L60.4,140.3z M60.2,137L60.2,137l0.1,0.6h0.2c0-0.2,0.1-0.4,0.4-0.4c0-0.2-0.2-0.3-0.4-0.4
		L60.2,137z M60.3,135.7v0.3c0.1,0,0.1-0.1,0.2-0.3H60.3z M60.4,124.8c0.1,0.4,0.2,0.6,0.3,0.6l0.2-0.2c-0.1,0-0.1-0.1-0.1-0.4
		l-0.1-0.1h-0.1L60.4,124.8z M60.4,129.7h0.3l-0.1-0.2L60.4,129.7z M60.4,143.5L60.4,143.5L60.4,143.5c0.4,0,0.5,0,0.5-0.1v-0.1
		h-0.3L60.4,143.5z M60.4,132.2l0.1,0.1h0.1v-0.1l-0.1-0.2h-0.1L60.4,132.2z M60.6,139L60.6,139l-0.1,0.3c0.1,0,0.2,0.1,0.2,0.3h0.2
		C60.8,139.3,60.7,139.2,60.6,139l0.2,0.1V139H60.6z M61.9,131.8c0.3,0,0.4,0.2,0.5,0.6l-0.1,0.1h0.1l0.1-0.1l0.1,0.1h0.1l0.2-0.2
		l-0.3-0.4v-0.1h0.1l0.1,0.1h0.1l0.1-0.1l0.3,0.1h0.5l0.3-0.1v0.1l0.1-0.1h0.2l0.2,0.1l0.3-0.1h1l0.5,0.1l0.1-0.1h0.1l0.1,0.1
		l0.1-0.1h2.4l0.1,0.1v0.1h-0.1l-0.3-0.1l-0.1,0.1v0.1l0.5,0.2L69,132h0.1v1.3c-0.3,0-0.5-0.2-0.7-0.4h-0.4v-0.1h-0.4
		c0-0.2-0.1-0.3-0.2-0.3v0.1c0.1,0.4,0.2,0.6,0.3,0.6c0.1,0,0.2,0.1,0.2,0.2l0.1,0.1h0.1c0-0.2,0.1-0.3,0.2-0.3l0.2-0.1l0.4,0.3h0.1
		l0.1-0.1h0.1l0.1,0.5v0.9l-0.1,0.1l0.1,0.1v0.1l-0.1,0.5l-0.4-0.1l-0.1,0.2h-0.1v-0.1l-0.4,0.1h-0.7l-0.1-0.1l-0.1,0.1h-0.4
		l-0.1-0.1l-0.1,0.1h-0.4l-0.2-0.1l-0.2,0.1h-0.4l-0.1-0.2l-0.5,0.2h-1.6c-0.1,0-0.2-0.1-0.2-0.4h-0.1l-0.1,0.2l-0.2-0.1v0.1
		c0,0.1-0.1,0.2-0.3,0.2h-0.4v-0.2h0.3v-0.1l-0.1-0.1l0.1-0.2h0.1l0.1,0.1h0.1l0.1-0.1v-0.4c0-0.1-0.1-0.2-0.2-0.2l-0.1,0.1h-0.1
		l-0.2-0.1l0.1,0.1l-0.1,0.1v0.1l0.1,0.2l-0.1,0.4h-0.1v-0.9l0.1-0.1l-0.1-0.1v-1.5h0.1c0.1,0,0.2,0.2,0.2,0.6h0.1
		c0-0.3,0-0.5,0.1-0.6v-0.1l-0.4-0.4v-0.2l0.1-0.1l-0.1-0.1V131.8z M62.5,134.4L62.5,134.4L62.5,134.4h0.4v-0.1h-0.1L62.5,134.4z
		 M62.5,133.4v0.1h0.1c0,0.1,0.1,0.1,0.2,0.1v0.5h0.1l0.1-0.4C62.8,133.5,62.6,133.4,62.5,133.4z M62.8,132.7c0,0.3,0.1,0.5,0.3,0.6
		l0.3-0.5v-0.1h-0.1c0,0.1-0.1,0.1-0.2,0.1v0.1h-0.1v-0.1l-0.1-0.1H62.8z M63.5,134l0.1,0.2l-0.3,0.1c0,0.1,0.1,0.1,0.2,0.2
		c0-0.1,0.1-0.1,0.3-0.2l0.1,0.1l-0.1-0.3l-0.1,0.1h-0.1V134H63.5z M63.8,132.1L63.8,132.1H64v-0.1h-0.1L63.8,132.1z M63.8,133.1
		L63.8,133.1l0.1,0.3h0.1l0.1-0.1L63.8,133.1z M64,132.5v0.2h0.1v-0.1L64,132.5z M64,132v0.2h0.1l0.2-0.1v-0.1h-0.1L64,132z
		 M65.2,135v0.2h0.1l0.2-0.1v-0.1L65.2,135z M65.7,132.9v0.2H66v-0.2l-0.1,0.1h-0.1L65.7,132.9z M66.1,134.1v0.3l0.2,0.1l0.1-0.4
		L66.1,134.1z M66.4,132.2c0.1,0,0.3,0.1,0.4,0.3c0-0.1,0.1-0.2,0.2-0.2c0,0.1,0.1,0.2,0.4,0.4v-0.1c-0.2,0-0.4-0.1-0.5-0.4h-0.4
		L66.4,132.2z M66.8,134.3v0.1L67,135H67v-0.4c-0.1,0-0.1-0.1-0.1-0.2H66.8z M66.9,135c0,0.1,0,0.2-0.1,0.2v0.1l0.2-0.1V135H66.9z
		 M66.9,133.2l0.1,0.3h0.1l0.1-0.1l-0.1-0.1H66.9z M67,133.7v0.3H67L67,133.7L67,133.7z M68.1,133.8l0.1,0.4l0.2-0.2l-0.1-0.2H68.1z
		 M70.1,124.1h4.3l0.1,0.1v1.6l-0.1,0.2h-0.1c0-0.1-0.1-0.3-0.4-0.4v-0.1h-0.1l-0.1,0.1h-0.1l0.4,0.6l-0.4,0.3h0.1l0.6-0.4l0.1,0.1
		v9h-0.4l-0.4-0.2c0,0.2-0.1,0.3-0.3,0.3c0,0.3,0,0.4-0.1,0.4h-0.4l-0.2-0.1l-0.1,0.2l0.1,0.1h0.4v0.1c0.2,0,0.4,0.1,0.6,0.4
		l0.1-0.2c-0.1,0-0.2,0-0.2-0.1v-0.4h0.4l0.1,0.1v0.4c-0.2,0-0.2,0-0.2,0.1c0.2,0,0.4,0.1,0.5,0.4v0.9l-0.5,0.6h0.4v-0.3h0.1v3.2
		c-0.1,0.2-0.2,0.3-0.4,0.3l0.1,0.1l0.2-0.1v2h-0.1c0-0.2,0-0.4-0.1-0.4l-0.4-0.2v0.1c0,0.1,0.1,0.1,0.4,0.2l0.1,0.4v0.1l-0.2,0.2
		H74l-0.4-0.4v0.1l0.4,0.4l-0.1,0.2h0.1c0.3,0,0.4-0.1,0.4-0.3h0.2v0.6l-0.1,0.1H74l-0.2-0.1l-0.1,0.1h-0.5c-0.1,0-0.1-0.1-0.1-0.2
		h-0.4c0,0.1,0,0.2-0.1,0.2h-0.4l-0.4-0.4h-0.1v0.4h-0.9v-0.2h-0.4v0.1h0.2v0.1h-0.3l-0.1-0.1v-0.1l0.1-0.2v-0.4H70v-0.6l0.3-0.4
		c0-0.1-0.1-0.2-0.2-0.2l-0.1-0.1v-0.5l0.1-0.1h0.3l0.2,0.1h0.2l-0.1-0.1l-0.4-0.1l-0.2-0.4h-0.1v0.4H70v-2.7l0.1-0.1h0.1l0.4,0.1
		v0.1l0.4-0.1h0.6c0-0.1-0.1-0.1-0.3-0.1v-0.1h-0.5l-0.1-0.1l0.1-0.3c-0.2,0-0.3-0.3-0.3-0.8l-0.1,0.1h-0.2l-0.1-0.2v-0.6h0.2
		l-0.1-0.1v-0.1l0.1-0.2l-0.2-0.4v-11.6L70.1,124.1z M70,137.4c0.2,0,0.4,0.2,0.4,0.4c-0.2,0.1-0.3,0.2-0.3,0.4H70v-0.6L70,137.4
		L70,137.4z M70.7,139c0,0.2,0,0.3-0.1,0.3l-0.2-0.1l-0.1,0.1v0.2c0.2,0,0.2,0.1,0.2,0.2h0.1c0-0.2,0.1-0.4,0.4-0.4h0.2
		C71,139.2,70.9,139,70.7,139z M70.3,135.4L70.3,135.4c0.2,0.1,0.3,0.2,0.4,0.4h0.1l0.2-0.2l-0.2-0.4h-0.1
		C70.6,135.4,70.4,135.4,70.3,135.4z M70.3,126.7v0.1l0.2,0.1l0.1-0.1v-0.1L70.3,126.7L70.3,126.7z M70.3,134.2l0.4,0.3h0.2
		C70.9,134.4,70.7,134.3,70.3,134.2z M70.5,133.3v0.4h0.1v-0.4H70.5z M71,141.1h0.2l0.1-0.2h-0.2L71,141.1z M71,143.6l0.2,0.2
		l0.2-0.1l-0.1-0.3L71,143.6z M71.7,136l-0.1,0.4l0.2,0.2v0.1l-0.4,0.1h-0.2l-0.2,0.4v0.1l0.2,0.1h0.1l0.4-0.1l0.1,0.4h0.1v-0.4
		c0.1,0,0.1-0.1,0.1-0.3l0.1-0.1h0.1l0.3,0.1v-0.1c0-0.1-0.1-0.2-0.4-0.3l-0.1-0.4v-0.1h0.2v-0.1c-0.2,0-0.2,0-0.2-0.1H71.7z
		 M71.2,142.5v0.1h0.1l0.1-0.1H71.2z M71.4,124.3l-0.1,0.2h0.1l0.2-0.1L71.4,124.3z M71.3,139.8h0.1l0.1-0.1h-0.1L71.3,139.8z
		 M71.4,133.8v0.2l0.1,0.1v-0.3H71.4z M71.7,140.6v0.1c-0.1,0-0.2,0-0.2,0.1h0.2V140.6L71.7,140.6L71.7,140.6z M71.6,143.2l0.1,0.1
		H72v-0.1H71.6z M71.7,139L71.7,139c0.2,0.1,0.3,0.2,0.3,0.4h0.1c0-0.2,0.1-0.4,0.4-0.6C71.9,138.8,71.7,138.9,71.7,139z
		 M71.8,142.4L71.8,142.4l0.2,0.1c0-0.1,0.1-0.2,0.2-0.2v-0.1L71.8,142.4z M71.8,134.4v0.3H72v-0.1l-0.1-0.2H71.8z M71.9,138.3h0.2
		l0.1-0.1h0.1l-0.1-0.2L71.9,138.3z M72.2,124.9v0.1l0.1,0.1h0.1V125L72.2,124.9L72.2,124.9z M72.2,126.1L72.2,126.1l0.9,0.4
		l0.1,0.1h0.1l-0.1-0.4v-0.1l0.1-0.2h-0.6L72.2,126.1z M72.3,133.9L72.3,133.9l0.7,0.6v-0.3c-0.2-0.2-0.4-0.4-0.4-0.6
		c-0.1,0-0.1,0.1-0.2,0.4H72.3z M72.5,142.2L72.5,142.2l0.2,0.3v0.1c0,0.1-0.1,0.2-0.3,0.2v0.1h0.4l0.1-0.4
		C72.7,142.3,72.6,142.2,72.5,142.2z M72.6,138.3L72.6,138.3c0,0.1,0.2,0.3,0.5,0.4v-0.2c-0.1,0-0.2-0.1-0.2-0.2l-0.1-0.1H72.6z
		 M72.7,134.9l0.1,0.2c0.4-0.1,0.7-0.3,0.7-0.4l-0.1-0.1C73.3,134.8,73,134.9,72.7,134.9z M73.2,137.5l-0.2-0.1v0.3h0.2
		c0-0.2,0.2-0.3,0.5-0.4v-0.1h-0.1L73.2,137.5z M73.1,139L73.1,139l0.3,0.1l-0.1-0.1v-0.1L73.1,139z M73.2,140L73.2,140L73.2,140
		c0.1-0.1,0.3-0.2,0.6-0.2v-0.3C73.4,139.6,73.2,139.8,73.2,140z M73.2,143.6v0.1h0.2v-0.1H73.2z M73.3,126.6l0.2,0.2h0.1v-0.2H73.3
		z M73.5,138v0.1c0.2-0.1,0.3-0.1,0.3-0.2L73.5,138z M74,132.4v0.6h0.2l0.1-0.2L74,132.4L74,132.4z M74,136.6v0.1h0.4v-0.2L74,136.6
		z M74.1,139.9l-0.1,0.3h0.2l0.1-0.3H74.1z M74.3,134.1l-0.1,0.4v0.1l0.3-0.1L74.3,134.1L74.3,134.1z M74.6,135.2v0.7h-0.1v-0.1
		l-0.1-0.5l0.1-0.1H74.6z"/>
	<path class="st1" d="M78,124h1.9l0.1,0.1L80,124h1.8v0.1l-0.1,0.2v0.1h0.1l0.2-0.1h0.2c0.1,0,0.1,0.1,0.1,0.4l0.2,0.1v9.6h-0.1
		l-0.1-0.1h-0.1l-0.1,0.1v0.1l0.3,0.3v0.6h-0.1l0.1-0.1v-0.1h-0.2c0,0.4-0.1,0.6-0.4,0.9h-0.4v0.4c0.1,0,0.2,0.1,0.2,0.4h0.1
		c0.1,0,0.2-0.2,0.3-0.6l0.4-0.1v8.1l-0.1,0.1h-0.1l-0.3-0.2h-0.1c0,0.1,0,0.2-0.1,0.2h-0.3c-0.1,0-0.1-0.1-0.1-0.2h-0.4
		c0,0.1-0.3,0.2-0.9,0.2h-0.4l-0.3-0.1l-0.3,0.1h-0.9l-0.2-0.2V144c0.3-0.8,0.5-1.2,0.7-1.2v-0.1l-0.1-0.1v0.2l-0.4-0.1v0.2
		l-0.1,0.4h-0.1v-7.2c0-0.1,0.2-0.1,0.6-0.1l0.1-0.2l-0.1-0.2v-0.4l0.1-0.2v-0.2h-0.1c0,0.1-0.1,0.2-0.4,0.3l0.1,0.1l-0.2,0.7H78
		l-0.1-0.2v-4h0.4v-0.1l-0.2-0.1l-0.2,0.1V126l0.1-0.1h0.1l0.2,0.1v-0.1l-0.1-0.2v-0.1l0.1-0.1v-0.1h-0.4v-1.2L78,124z M78.1,127.1
		l0.1,0.4l0.2-0.1v-0.2H78.1z M78.4,125.3l0.6,0.1l0.1-0.1v-0.2h-0.5L78.4,125.3z M79.1,128.1v0.4l0.1-0.1h0.1l0.1,0.1v0.4l-0.1,0.2
		H79c0-0.1-0.1-0.2-0.4-0.2h-0.3v0.1c0.4,0,0.7,0.3,1,0.9h0.4v-0.1c-0.2,0-0.4-0.1-0.5-0.4c0-0.3,0.2-0.4,0.5-0.4l-0.1-0.4
		c-0.2,0-0.3-0.2-0.3-0.5L79.1,128.1z M78.5,126.8L78.5,126.8l0.1,0.1l-0.1,0.1v0.1l0.4,0.1h0.1v-0.1l-0.2-0.4H78.5z M78.5,142.3
		L78.5,142.3l0.3,0.1v-0.2h-0.1L78.5,142.3z M78.7,136.4L78.7,136.4L78.7,136.4l0.2-0.1v-0.1h-0.1L78.7,136.4z M78.8,124.6h0.2
		l0.1-0.2v-0.1H79L78.8,124.6z M78.8,143.8l0.1,0.2c0.2-0.1,0.3-0.2,0.4-0.3v-0.1h-0.3L78.8,143.8z M79.2,138.9l-0.2,0.5l0.2,0.2
		l0.6-0.2v-0.1C79.4,139.2,79.2,139,79.2,138.9L79.2,138.9z M79.1,136.9L79.1,136.9c0.1,0.2,0.1,0.3,0.1,0.6l0.1-0.1h0.1l0.3,0.2
		v-0.2l-0.4-0.5H79.1z M79.1,137.6v0.2h0.1v-0.1L79.1,137.6z M79.2,138.7L79.2,138.7c0.3-0.1,0.4-0.1,0.4-0.2h-0.2L79.2,138.7z
		 M79.2,130.3L79.2,130.3l0.2,0.4h0.4L79.2,130.3L79.2,130.3z M79.4,127.6L79.4,127.6v0.1v0.2l0.4-0.1h0.2v-0.1l-0.2-0.2h-0.1
		l-0.1,0.1l-0.1-0.1H79.4z M79.6,143.1c0.3,0.1,0.5,0.3,0.5,0.4h0.1c0.2-0.2,0.4-0.3,0.6-0.3l-0.1-0.1h-0.6l-0.2-0.1L79.6,143.1z
		 M79.7,138.1v0.2h0.4v-0.2H79.7z M80,128.9L80,128.9l0.1,0.1l-0.1,0.1v0.1l0.2-0.1V129L80,128.9L80,128.9z M80.2,134.9v0.6l0.1,0.2
		c0.3-0.1,0.4-0.1,0.4-0.2v-0.1l-0.4,0.1l-0.1-0.2v-0.1l0.1-0.4H80.2z M80.2,140.7v0.2l0.1,0.1h0.1l0.1-0.1
		C80.4,141,80.3,140.9,80.2,140.7L80.2,140.7z M80.5,139.1L80.5,139.1l-0.1,0.1h0.2L80.5,139.1z M80.6,134.4L80.6,134.4l-0.1,0.3
		l0.1-0.1l0.4,0.1l0.2-0.2L80.6,134.4z M81.5,141.7c0,0.3-0.1,0.4-0.2,0.4l-0.4-0.1c0,0.1-0.1,0.2-0.2,0.2v0.1l0.4,0.1
		c0.2-0.1,0.4-0.2,0.4-0.3h0.1l0.1,0.1h0.1c0-0.2,0.1-0.3,0.1-0.3C81.8,141.9,81.7,141.8,81.5,141.7z M81,138.4l-0.1,0.4v0.2
		c0.2-0.1,0.3-0.2,0.3-0.4L81,138.4L81,138.4z M81.5,139.5h-0.6c0,0.1,0.2,0.2,0.7,0.3h0.1l0.1-0.1v-0.2L81.5,139.5z M81,135.9v0.1
		l0.3,0.3h0.1v-0.1h-0.1v-0.1l0.2-0.3H81z M81.4,134.3L81.4,134.3l0.1,0.3c0,0.1-0.1,0.1-0.2,0.1l-0.1,0.1v0.1h0.4v-0.6H81.4z
		 M81.2,138v0.2l0.1,0.1h0.1v-0.2L81.2,138L81.2,138z M81.5,143.3v0.4h0.1l0.1-0.3l-0.1-0.3L81.5,143.3z M81.8,141.2v0.2l0.2,0.1
		l0.1-0.1v-0.1L81.8,141.2L81.8,141.2z M81.8,143.4L81.8,143.4l0.1-0.1v-0.1L81.8,143.4z M82.2,130.7v0.1h0.2L82.2,130.7L82.2,130.7
		z M83.3,124h3.1c2.7,0,4.7,0.7,5.9,2.2l0.1-0.1v0.1l-0.1,0.1c0.9,1.3,1.3,2.7,1.3,4.1v0.3c0,1.6-0.4,3-1.3,4h-0.1v0.1l0.1,0.2
		l-0.5,0.4h-0.1v-0.1h-0.1l-0.1,0.2l0.1,0.2c-1,1.1-3.2,1.6-6.5,1.6h-1.7l-0.1-0.1v-1.8l0.1-0.2l-0.1-0.1v-1.4l0.1-0.2h2.7
		c0.2,0,0.5,0.1,0.6,0.2h0.2v-0.1l-0.1-0.2c1.4-0.5,2.2-1.4,2.2-2.9v-0.4c-0.3-1.6-1.2-2.4-2.6-2.4c0-0.1-0.1-0.2-0.4-0.2l-0.7,0.1
		l-0.1-0.1v-0.1l-0.5,0.2l-0.4-0.1v-0.1l0.1-0.1v-0.1h-0.1l-0.3,0.2h-0.6l-0.1-0.2v-3.5L83.3,124z M83.3,134.3L83.3,134.3l0.4,0.1
		c0,0.3,0.2,0.5,0.6,0.6l0.1-0.1v-0.1c-0.3,0-0.4-0.2-0.4-0.5l0.1-0.2L84,134l-0.2,0.1V134C83.5,134.2,83.3,134.3,83.3,134.3z
		 M84.6,134.2l0.6,0.2l0.1-0.1v-0.1c-0.1,0-0.1-0.1-0.2-0.3l-0.1-0.1h-0.1C84.8,133.9,84.7,134,84.6,134.2z M85,127.9v0.2h-0.1V128
		L85,127.9z M84.9,127.3l0.1,0.1l0.1-0.1v-0.1H84.9z M85.1,135.2v0.2h0.1v-0.2H85.1z M85.3,135.7v0.2l0.2-0.1v-0.1H85.3z
		 M85.4,135.5L85.4,135.5l0.4,0.1v-0.1H85.4z M86.3,123.5h0.4l-0.5,0.4v-0.1L86.3,123.5z M86.3,134.3v0.1l0.1,0.3l0.3-0.1l-0.2-0.4
		H86.3z M89.4,128.6l0.1,0.4h0.1l-0.1-0.1v-0.1l0.1-0.3H89.4z M90.8,129.2l0.1,0.1l0.1-0.1v-0.1H90.8z M91.5,130.7v0.1h0.4v0.2H92
		v-0.2l-0.2-0.1H91.5z M92.1,125.2h0.1c0,0.1,0.1,0.1,0.2,0.1v0.2h-0.1c-0.1,0-0.1-0.1-0.1-0.2h-0.1v0.1h-0.2L92.1,125.2z"/>
	<path class="st1" d="M107.7,124.1l7.1,20.2h-5.2c-0.8-2.9-1.2-4.3-1.4-4.3h-5.6l1.1-3.7h3.4v-0.1c-1-3-1.7-5.5-2.1-7.4h-0.1
		c0,0.6-1,4-2.9,10.4c-0.5,1.9-0.9,3-1.1,3.3H101v0.1l0.1,0.2l-0.4,1.5h-0.1l-0.2-0.1l-0.4,0.1h-0.4l-0.2-0.1l-0.4,0.1h-0.9
		l-0.4-0.1l-0.2,0.1v-0.1l-0.1,0.1h-0.9v-0.9l0.1-0.4l-0.1-0.2l0.1,0.1h0.1l0.1-0.1v-0.1h-0.2v-0.9l0.1-0.1h0.1l0.2,0.1v-0.1
		l-0.1-0.2h-0.2l-0.1,0.1l-0.2-0.1l0.1-0.6h0.1l0.6-1.9l0.2,0.1l0.1-0.1V139l-0.2-0.2l0.4-1.3h0.1c0,0.1,0.1,0.1,0.2,0.1v0.4
		l0.1-0.2v-0.6c0-0.2,0.1-0.2,0.4-0.2V137l-0.1-0.2h-0.1c-0.2,0-0.3,0.2-0.4,0.7h-0.1v-0.1l0.4-1.4h0.3v0.1h0.2V136l-0.2-0.2
		l0.2-0.4l-0.1-0.1h-0.1c0,0.3,0,0.5-0.1,0.5h-0.1l1.6-4.7h0.1v0.1h0.1l-0.1-0.2c0.1-0.4,0.2-0.6,0.3-0.6l-0.1-0.1v-0.1l2.2-6.2
		H107.7z M96.8,143.4v0.2c0.2-0.1,0.3-0.1,0.3-0.2H96.8z M97.3,140.8c0,0.1-0.1,0.1-0.2,0.1l0.1,0.1h0.1l0.3-0.1v-0.1H97.3z
		 M97.7,141.2c-0.2,0-0.3,0.1-0.3,0.2h0.3V141.2H98l-0.1-0.2l-0.1,0.1h-0.1V141.2z M97.8,138.3L97.8,138.3l0.4,0.2l-0.1-0.2H97.8z
		 M98.3,139.7v0.3h0.2c0-0.1,0.1-0.1,0.2-0.1v-0.2H98.3L98.3,139.7z M98.3,143L98.3,143l0.4,0.2c0-0.1,0.1-0.1,0.2-0.1V143l-0.2-0.1
		h-0.3L98.3,143z M98.7,138.7v0.1H99v-0.1H98.7z M99.2,142.3l-0.1,0.6l0.1,0.4l-0.5,0.2l0.1,0.2h0.1c0-0.1,0.1-0.2,0.3-0.3h0.4v0.1
		c0.1,0,0.2,0.1,0.3,0.4h0.2l-0.1-0.5c0.1,0,0.2-0.1,0.2-0.2l-0.1-0.4v-0.1h0.1v-0.2H100l-0.1,0.1v0.1l0.1,0.6l-0.6-0.5v-0.3
		l0.1-0.2v-0.1L99.2,142.3z M98.9,135L98.9,135l0.1,0.2l0.1-0.1V135H98.9z M99.7,134c0,0.3-0.1,0.4-0.3,0.4l0.1,0.1v0.1
		c-0.1,0-0.2,0.1-0.2,0.3h0.3c0-0.4,0.1-0.6,0.3-0.6V134H99.7z M99.3,137.4L99.3,137.4l0.1-0.1v-0.1L99.3,137.4z M99.3,139.4v0.1
		h0.5v-0.1l-0.2-0.1v0.1l-0.1-0.1H99.3z M99.6,138.7L99.6,138.7l-0.1,0.1l0.2,0.2h0.1v-0.1L99.6,138.7z M99.5,141.7L99.5,141.7
		l0.1,0.3h0.1v-0.3H99.5z M99.8,132.7v0.1l0.4-0.1v-0.1H99.8z M100.2,136.8c0.1,0.2,0.3,0.3,0.4,0.3v0.4h0.1l0.1-0.3
		c-0.1-0.2-0.2-0.3-0.4-0.4H100.2z M100.3,138.3v0.3l0.1-0.1h0.1L100.3,138.3L100.3,138.3z M100.8,141.6c0,0.1-0.1,0.1-0.2,0.1
		c0.2,0.2,0.3,0.3,0.3,0.5h0.1l0.1-0.1V142C101.1,141.7,101,141.6,100.8,141.6z M101,135.8L101,135.8l-0.1,0.1h0.2L101,135.8z
		 M101.1,130.4v0.2l0.3,0.1v-0.1L101.1,130.4L101.1,130.4z"/>
	<path class="st1" d="M122,137.5L122,137.5l0.1,0.1l-0.1,0.2v0.1c0.2,0,0.3,0.2,0.3,0.7c0.2,0.5,0.4,0.8,0.7,1.1v0.1l-0.1-0.1h-0.1
		v0.1h0.1l0.1-0.1c0.9,0.5,1.5,0.8,1.9,0.8v0.2h0.1v-0.1h0.4c0.3,0,0.4,0.1,0.4,0.2v0.5c0,0.1-0.1,0.1-0.2,0.1l-0.1-0.1h-0.1v0.1
		c0.2,0,0.3,0.1,0.3,0.4l-0.2,0.3c0.1,0,0.2,0,0.2,0.1v0.1l-0.1,0.3l-0.1-0.1h-0.1l-0.1,0.1v0.3c0.2,0,0.3,0.1,0.4,0.3v0.4
		c0,0.1-0.1,0.1-0.3,0.1l0.2,0.3l-0.1,0.1h-0.3c0-0.1-0.2-0.3-0.5-0.5v-0.1h-0.4v0.1h0.2v0.4H124c-0.2-0.4-0.4-0.5-0.5-0.5l-0.1,0.1
		v0.1c0.1,0,0.2,0.1,0.2,0.4h-0.1l-0.3,0.1c-0.9-0.1-1.8-0.4-2.7-0.9c0.1-0.3,0.2-0.5,0.4-0.5v-0.2c-0.2,0-0.5,0.2-0.6,0.3h-0.3
		c-1-0.7-1.7-1.8-2.1-3.1l-0.1-0.8l0.1-0.1v-0.1l-0.1,0.1h-0.1c-0.1-0.2-0.1-0.5-0.1-0.9l0.1-0.1h0.1l0.1,0.1l0.1-0.1h0.2l0.4,0.1
		l0.4-0.1h1v0.2h0.1c0-0.2,0.1-0.3,0.2-0.3h1.2L122,137.5z M118,138.1v0.5h0.1c0-0.1,0.1-0.1,0.2-0.1v-0.1l-0.1-0.3H118z
		 M125.7,124.1L125.7,124.1l0.1,3.4c0,0.1-0.5,0.2-1.6,0.3c0-0.2,0.2-0.3,0.5-0.4l0.3,0.1h0.1v-0.1h-0.7v0.1h-0.5l0.1,0.3
		c-0.7,0.5-1,0.9-1,1.2l-0.1,0.3v0.4c0,0.9,1.2,1.6,3.5,2l0.1,0.1l-0.1,0.1v0.1l0.3-0.2c2.4,0.5,4,1,5,1.6l1.2,1v0.1h-0.2v-0.1
		c-0.2,0-0.3-0.1-0.3-0.3H132l0.5,0.4l0.1,0.4h-0.1v0.1h0.1l0.2-0.1l-0.2,0.5h0.6c0,0.1,0.1,0.2,0.2,0.2c0,0.1,0.1,0.3,0.3,0.5
		c0.2,0.1,0.3,0.3,0.3,0.6l-0.2,0.1H133c0,0.1-0.1,0.2-0.3,0.3h-0.5v0.1c0.2,0,0.4,0,0.5,0.1c0-0.1,0.1-0.1,0.3-0.1l0.2-0.2
		c0.1,0.2,0.1,0.4,0.2,0.4l0.1-0.1l0.1,0.1c0-0.3,0.1-0.5,0.4-0.5l0.1,0.1v0.5l-0.1,0.1c0,0.1-0.1,0.1-0.4,0.1c0,0.2,0,0.3-0.1,0.3
		c-0.2,0-0.3,0.1-0.3,0.3h-0.5v0.1l0.1,0.3h0.1v-0.1l-0.1-0.1l0.5-0.2h0.3v0.1h0.1l0.3-0.1v-0.4h0.1c0,0.8-0.1,1.5-0.3,2l-0.1-0.1
		h-0.1v0.1h0.1c-0.1,0.5-0.2,0.8-0.4,0.8l-0.2-0.1v0.1l0.3,0.1c-0.1,0.3-0.3,0.5-0.5,0.8l-0.1-0.1h-0.1c0,0.3-0.1,0.5-0.4,0.7
		l-0.1-0.1h-0.1l0.1-0.5l-0.8-0.6h0.1v-0.1l-0.1-0.1l-0.3,0.1v-0.6c0-0.1,0.1-0.2,0.3-0.2v-0.1c0-0.1-0.2-0.2-0.5-0.2l0.1,0.2v0.5
		H131l-0.2-0.1l0.1,0.2v0.1l-0.3,0.3l-0.1-0.1l-0.1,0.1h-0.1l-0.1-0.1h-0.1c0-0.3,0.1-0.5,0.4-0.5v-0.1l-0.4-0.3h-0.4l0.1,0.1v0.1
		l-0.1,0.1c-0.3,0-0.5-0.1-0.5-0.2l0.1-0.1l-0.1-0.1c0-0.2,0.2-0.3,0.5-0.3l0.1-0.1v-0.1c-0.2,0-0.3-0.1-0.4-0.3
		c0.2-0.3,0.3-0.7,0.3-1.2l0.3,0.1c0.1-0.2,0.2-0.4,0.3-0.4v-0.1l-0.1-0.1h-0.2l-0.2,0.1h-0.1l-0.5-0.6v-0.1h0.1l0.5,0.1
		c0-0.1,0.1-0.2,0.3-0.2V137l0.1,0.1h0.3l0.1-0.1v-0.1c-0.2,0-0.4-0.1-0.5-0.3h-0.2l-0.2,0.1h-1l-0.2-0.1l-0.3,0.1
		c-0.3-0.1-0.5-0.2-0.5-0.3v-0.1c0.1,0,0.2-0.1,0.4-0.3c-0.2-0.2-0.5-0.3-0.9-0.3v0.1l-0.4-0.1l-0.1,0.1l-0.7-0.8
		c-0.1,0.3-0.3,0.4-0.5,0.4c0,0.2-0.2,0.3-0.5,0.3v0.1h-0.3c-4.2-0.7-6.3-2.6-6.3-5.7v-0.3c0-3.2,2-5,6.1-5.6L125.7,124.1z
		 M118.6,139.3h0.2v-0.1h-0.1L118.6,139.3z M118.8,138.6h0.3v-0.1h-0.2L118.8,138.6z M118.9,140.2L118.9,140.2l0.1,0.1v-0.2
		L118.9,140.2z M119.4,138.2L119.4,138.2l-0.1,0.2h0.2v-0.1L119.4,138.2z M119.5,126.7l0.1,0.1h0.1v-0.1H119.5z M119.7,132.4
		l0.2,0.2l0.1-0.2l-0.1-0.1L119.7,132.4z M119.7,138.7v0.3h0.1v-0.3H119.7z M120.1,140.4l0.1,0.4h0.1v-0.1l-0.1-0.3H120.1z
		 M120.2,133.6l0.1,0.1h0.1v-0.1H120.2z M120.3,138.7l0.1,0.1h0.2l-0.1-0.3L120.3,138.7z M120.4,137.9l0.1,0.1l0.1-0.1v-0.1h-0.1
		L120.4,137.9z M120.5,141.9L120.5,141.9l0.3,0.1l-0.1-0.1v-0.1L120.5,141.9z M120.7,132.5v0.3l0.1,0.1v-0.4H120.7z M121.1,139.8
		v0.1l0.1,0.3h0.1v-0.1l-0.1-0.3H121.1z M121.2,126.9v0.1c0.2,0,0.3,0,0.3,0.1h0.1l-0.2-0.3H121.2z M121.3,138.3v0.1
		c0.2,0,0.3,0.1,0.3,0.3h0.2v-0.1l-0.1-0.1h-0.1l0.1-0.1v-0.2h-0.2L121.3,138.3z M121.4,133.1L121.4,133.1l-0.1,0.1h0.3v-0.1
		L121.4,133.1z M121.4,125.7l0.1,0.1h0.1l0.1-0.1v-0.1L121.4,125.7z M121.5,131L121.5,131l0.8,0.2l-0.5-0.3L121.5,131z M121.6,143.2
		L121.6,143.2c0.3,0.1,0.5,0.2,0.5,0.5h0.1v-0.1l0.1-0.1l-0.1-0.1L121.6,143.2L121.6,143.2z M122,140.4c0,0.1-0.1,0.2-0.2,0.2v0.1
		l0.3-0.3H122z M122,141.9L122,141.9l0.1-0.1h0.1l0.2,0.2h0.1v-0.1l-0.1-0.2h-0.3L122,141.9z M122.1,142.4l0.1,0.1h0.1L122.1,142.4
		L122.1,142.4z M122.5,140.9c0,0.1,0.1,0.1,0.3,0.1l-0.1,0.1v0.1l0.3,0.1v-0.1l-0.2-0.3H122.5z M122.7,142.8L122.7,142.8l-0.1,0.3
		l0.1-0.1h0.1l0.3,0.1L122.7,142.8z M122.9,131.5v0.1h0.2v-0.1H122.9z M123.3,133.1L123.3,133.1l-0.1,0.1h0.3v-0.1L123.3,133.1z
		 M123.4,142v0.2l0.3,0.2h0.1v-0.3h-0.1l-0.1,0.1C123.6,142.2,123.5,142.2,123.4,142L123.4,142z M123.9,144.1L123.9,144.1l-0.1,0.1
		v0.1l-0.2-0.1v-0.1L123.9,144.1z M124,143.2v0.3h0.1v-0.1L124,143.2z M124.2,141.9L124.2,141.9l0.1,0.2h0.1l0.2-0.1V142
		L124.2,141.9L124.2,141.9z M124.2,144.2h0.3v0.1h-0.1L124.2,144.2L124.2,144.2z M124.9,134.7l-0.5-0.1l0.3,0.4h0.3
		c0-0.1,0.1-0.2,0.3-0.2v-0.1l0.2-0.1l-0.1-0.2L124.9,134.7z M125.5,135.6h0.5l0.2,0.2v0.4c-0.9-0.2-1.3-0.3-1.3-0.4h0.6V135.6z
		 M124.9,143.1v0.3l0.1,0.1l0.1-0.1h0.1v0.1h0.1v-0.1L124.9,143.1z M125,141.3v0.2h0.2v-0.1L125,141.3L125,141.3z M125.3,133.8v0.3
		h0.1L125.3,133.8L125.3,133.8z M126,132.2L126,132.2l0.1,0.4c-0.1,0-0.2,0.1-0.3,0.4h-0.4l0.1,0.3l-0.1,0.2c0.5-0.3,0.7-0.7,0.7-1
		v-0.3H126z M125.8,135.2h0.2l0.2,0.2v0.2h-0.1l-0.3-0.1V135.2z M126.5,124.1c2,0,3.7,0.6,5.3,1.7c0.7,0.8,1.1,1.3,1.1,1.5
		c0.2,0,0.5,0.9,0.9,2.7v0.2l-2.3,0.3v-0.1l-1.9,0.2c-0.2-1.1-0.5-1.8-1-2.2c-0.4-0.3-1.1-0.6-2.1-0.7v-0.1l0.1-0.4l-0.1-0.7v-2.2
		L126.5,124.1L126.5,124.1z M128.3,140.3c0.3,0,0.6,0.1,0.8,0.3c0.5,0,0.7,0.2,0.7,0.5l0.2,0.1l0.1-0.1l0.1,0.2l-0.1,0.1v0.1
		c0.3,0.2,0.4,0.4,0.4,0.5h0.1c0-0.2,0.2-0.3,0.5-0.3l0.1,0.1l-0.1,0.1v0.1l0.1,0.1c0,0.2-0.1,0.4-0.2,0.4v0.3
		c0,0.2-0.1,0.3-0.4,0.3c0,0.1,0.1,0.2,0.4,0.2v-0.1l0.1-0.1h0.1v-0.5h0.1v-0.1l-0.1-0.1c0-0.2,0.2-0.3,0.5-0.3
		c0.1,0.3,0.2,0.5,0.3,0.5v0.1c-0.9,0.7-1.7,1.1-2.2,1.1v-0.1l-0.7,0.1v-0.1l0.1-0.2h-0.1l-0.2,0.1v0.1l0.1,0.2v0.1
		c0,0.2-0.8,0.3-2.5,0.4l-0.1-0.1v-0.8l0.1-0.1v-0.1l0.3,0.1h0.1c0.1,0,0.1-0.1,0.1-0.3l0.2-0.2v-0.1h-0.1l-0.1,0.1h-0.1
		c0-0.2-0.1-0.5-0.3-0.8l0.1-0.2l-0.5-0.4v-0.4c0-0.1,0.1-0.2,0.3-0.2l0.4,0.1c0-0.2,0.2-0.3,0.7-0.3v0.4h-0.7l0.2,0.4h0.1v-0.1h0.5
		l-0.1-0.1v-0.1h0.1l0.2,0.1l0.1-0.1l0.1,0.4h0.1v-0.2l-0.1-0.3l0.1-0.1c-0.1,0-0.2-0.1-0.3-0.3H128v-0.1L128.3,140.3z M126.4,141.7
		h0.1l0.1,0.2l-0.1,0.2h-0.1V141.7z M126.6,142.2l0.3,0.1v0.5h-0.4l-0.1-0.1v-0.3C126.4,142.3,126.5,142.2,126.6,142.2z
		 M126.8,144.1L126.8,144.1l0.5,0.1l-0.1-0.2L126.8,144.1z M127.2,143.6v0.3l0.3-0.1C127.6,143.7,127.5,143.6,127.2,143.6z
		 M127.3,133.6h0.3v-0.1h-0.1L127.3,133.6z M127.5,134.8L127.5,134.8l-0.1,0.1h0.2L127.5,134.8z M128,134.1l-0.1,0.1v0.1h0.2
		L128,134.1L128,134.1z M128,142.6c0.1,0.2,0.1,0.3,0.2,0.3h0.1v-0.1l-0.2-0.2H128z M128.2,124.7L128.2,124.7l0.2,0.1v-0.1H128.2z
		 M128.8,140.9l0.1,0.2l0.1-0.1v-0.2h-0.1L128.8,140.9z M129.1,141.5v0.1h0.3l-0.1-0.1H129.1z M129.2,135.9l-0.1,0.2h0.1l0.1-0.1
		l-0.1-0.1H129.2z M129.4,142.4v0.3l0.5-0.1v-0.1c-0.2,0-0.3-0.1-0.3-0.2H129.4z M131.1,133.7l0.1,0.3l-0.3,0.1l-0.1-0.1h-0.2
		l-0.1,0.1v0.1l0.1,0.2v0.3l-0.1,0.3h-0.3l-0.2-0.1v0.3h-0.5v0.1l0.3,0.1l0.2-0.2h0.1l0.2,0.1c0-0.2,0.2-0.3,0.4-0.3v0.3h-0.2v0.2
		l0.3,0.3l0.1-0.1v-0.5l0.1-0.1h0.1l0.2,0.1v-0.5h-0.5v-0.1l0.1-0.3h0.1l0.3,0.1c0-0.2,0-0.3,0.1-0.3
		C131.4,134,131.3,133.8,131.1,133.7z M129.6,125.2l0.3-0.2h-0.1L129.6,125.2z M129.6,139L129.6,139c0,0.2,0.2,0.3,0.5,0.3
		c0,0.2,0,0.3,0.1,0.3h0.1l0.1-0.1l-0.8-0.4H129.6z M129.9,143.4h0.4v-0.1l-0.1-0.1h-0.1L129.9,143.4z M130.2,142.3
		c0,0.1-0.1,0.2-0.2,0.2v0.1h0.3l0.1-0.3H130.2z M130.2,138.6l0.1,0.1h0.1L130.2,138.6L130.2,138.6z M131.7,137.4v0.1h-0.3
		c-0.1,0.1-0.4,0.1-0.8,0.2l-0.1-0.1v0.1h0.6c0,0.3,0,0.4,0.1,0.4h0.1l-0.1-0.2v-0.1l0.1-0.1h0.5l0.2,0.1v-0.3l-0.1-0.1v-0.1
		l0.1-0.1H131.7z M130.5,127.4v0.1h0.3v-0.1H130.5z M131,135.9c0,0.2-0.1,0.3-0.4,0.3v0.2h0.1l0.6-0.5L131,135.9z M130.6,139.7v0.1
		l0.3,0.1h0.1v-0.1L130.6,139.7z M131.4,126.7v0.1H131v0.1h0.3l0.3-0.1l0.1,0.2l0.2-0.1v-0.2l-0.1-0.1H131.4z M131.1,139.3
		L131.1,139.3c0,0.2,0.1,0.3,0.4,0.4v-0.3C131.2,139.4,131.1,139.4,131.1,139.3L131.1,139.3z M131.3,138.7v0.1h0.3v-0.4
		c-0.1,0-0.1,0.1-0.1,0.3H131.3z M131.5,134.6l-0.1,0.2h0.2v-0.2H131.5z M131.4,141.5h0.3v0.3l-0.2,0.1l-0.1-0.1V141.5z
		 M131.5,135.3v0.1l0.3,0.1v-0.1L131.5,135.3z M131.5,136.6v0.1h0.4l-0.1-0.1H131.5z M131.6,139v0.3h0.1V139H131.6z M131.6,140.9
		L131.6,140.9l0.1,0.1v0.1l0.3-0.3c0.2,0,0.3-0.1,0.3-0.3h0.1c0-0.1-0.1-0.2-0.3-0.2v-0.1h-0.1c-0.1,0-0.1,0.2-0.1,0.7L131.6,140.9z
		 M131.8,140L131.8,140l0.2,0.1V140H131.8z M131.9,135.1v0.1l0.4-0.1v-0.1H131.9z M131.9,135.6l0.1,0.1h0.1L131.9,135.6L131.9,135.6
		z M132.1,138.1l0.1,0.3l0.2-0.3H132.1z M132.2,139.2v0.1l0.1,0.1h0.1v-0.3H132.2z M132.2,141.5v0.1h0.2v-0.1H132.2z M132.3,136.2
		v0.1l0.3,0.1h0.2v-0.1C132.5,136.3,132.4,136.2,132.3,136.2z M132.4,139.5v0.3h0.1l0.1-0.1L132.4,139.5z M132.8,134.7L132.8,134.7
		c0.2,0.1,0.3,0.2,0.3,0.4h-0.3l-0.1-0.1v-0.1L132.8,134.7z M132.8,137.8v0.1h0.1l0.1-0.1H132.8z M133,128.4v0.4l0.2,0.1v-0.1
		L133,128.4L133,128.4z"/>
	<path class="st1" d="M141.3,137.5L141.3,137.5l0.1,0.1l-0.1,0.2v0.1c0.2,0,0.3,0.2,0.3,0.7c0.2,0.5,0.4,0.8,0.7,1.1v0.1l-0.1-0.1
		h-0.1v0.1h0.1l0.1-0.1c0.9,0.5,1.5,0.8,1.9,0.8v0.2h0.1v-0.1h0.4c0.3,0,0.4,0.1,0.4,0.2v0.5c0,0.1-0.1,0.1-0.2,0.1l-0.1-0.1h-0.1
		v0.1c0.2,0,0.3,0.1,0.3,0.4l-0.2,0.3c0.1,0,0.2,0,0.2,0.1v0.1l-0.1,0.3l-0.1-0.1h-0.1l-0.1,0.1v0.3c0.2,0,0.3,0.1,0.4,0.3v0.4
		c0,0.1-0.1,0.1-0.3,0.1l0.2,0.3l-0.1,0.1h-0.3c0-0.1-0.2-0.3-0.5-0.5v-0.1h-0.4v0.1h0.2v0.4h-0.5c-0.2-0.4-0.4-0.5-0.5-0.5
		l-0.1,0.1v0.1c0.1,0,0.2,0.1,0.2,0.4h-0.1l-0.3,0.1c-0.9-0.1-1.8-0.4-2.7-0.9c0.1-0.3,0.2-0.5,0.4-0.5v-0.2c-0.2,0-0.5,0.2-0.6,0.3
		h-0.3c-1-0.7-1.7-1.8-2.1-3.1l-0.1-0.8l0.1-0.1v-0.1l-0.1,0.1h-0.1c-0.1-0.2-0.1-0.5-0.1-0.9l0.1-0.1h0.1l0.1,0.1l0.1-0.1h0.2
		l0.4,0.1l0.4-0.1h1v0.2h0.1c0-0.2,0.1-0.3,0.2-0.3h1.2L141.3,137.5z M137.3,138.1v0.5h0.1c0-0.1,0.1-0.1,0.2-0.1v-0.1l-0.1-0.3
		H137.3z M145,124.1L145,124.1l0.1,3.4c0,0.1-0.5,0.2-1.6,0.3c0-0.2,0.2-0.3,0.5-0.4l0.3,0.1h0.1v-0.1h-0.7v0.1h-0.5l0.1,0.3
		c-0.7,0.5-1,0.9-1,1.2l-0.1,0.3v0.4c0,0.9,1.2,1.6,3.5,2l0.1,0.1l-0.1,0.1v0.1l0.3-0.2c2.4,0.5,4,1,5,1.6l1.2,1v0.1h-0.2v-0.1
		c-0.2,0-0.3-0.1-0.3-0.3h-0.3l0.5,0.4l0.1,0.4h-0.1v0.1h0.1l0.2-0.1l-0.2,0.5h0.6c0,0.1,0.1,0.2,0.2,0.2c0,0.1,0.1,0.3,0.3,0.5
		c0.2,0.1,0.3,0.3,0.3,0.6l-0.2,0.1h-0.7c0,0.1-0.1,0.2-0.3,0.3h-0.5v0.1c0.2,0,0.4,0,0.5,0.1c0-0.1,0.1-0.1,0.3-0.1l0.2-0.2
		c0.1,0.2,0.1,0.4,0.2,0.4l0.1-0.1l0.1,0.1c0-0.3,0.1-0.5,0.4-0.5l0.1,0.1v0.5l-0.1,0.1c0,0.1-0.1,0.1-0.4,0.1c0,0.2,0,0.3-0.1,0.3
		c-0.2,0-0.3,0.1-0.3,0.3h-0.5v0.1l0.1,0.3h0.1v-0.1l-0.1-0.1l0.5-0.2h0.3v0.1h0.1l0.3-0.1v-0.4h0.1c0,0.8-0.1,1.5-0.3,2l-0.1-0.1
		h-0.1v0.1h0.1c-0.1,0.5-0.2,0.8-0.4,0.8l-0.2-0.1v0.1l0.3,0.1c-0.1,0.3-0.3,0.5-0.5,0.8l-0.1-0.1H152c0,0.3-0.1,0.5-0.4,0.7
		l-0.1-0.1h-0.1l0.1-0.5l-0.8-0.6h0.1v-0.1l-0.1-0.1l-0.3,0.1v-0.6c0-0.1,0.1-0.2,0.3-0.2v-0.1c0-0.1-0.2-0.2-0.5-0.2l0.1,0.2v0.5
		h-0.1l-0.2-0.1l0.1,0.2v0.1l-0.3,0.3l-0.1-0.1l-0.1,0.1h-0.1l-0.1-0.1h-0.1c0-0.3,0.1-0.5,0.4-0.5v-0.1l-0.4-0.3h-0.4l0.1,0.1v0.1
		l-0.1,0.1c-0.3,0-0.5-0.1-0.5-0.2l0.1-0.1l-0.1-0.1c0-0.2,0.2-0.3,0.5-0.3l0.1-0.1v-0.1c-0.2,0-0.3-0.1-0.4-0.3
		c0.2-0.3,0.3-0.7,0.3-1.2l0.3,0.1c0.1-0.2,0.2-0.4,0.3-0.4v-0.1l-0.1-0.1h-0.2l-0.2,0.1H149l-0.5-0.6v-0.1h0.1l0.5,0.1
		c0-0.1,0.1-0.2,0.3-0.2V137l0.1,0.1h0.3l0.1-0.1v-0.1c-0.2,0-0.4-0.1-0.5-0.3H149l-0.2,0.1h-1l-0.2-0.1l-0.3,0.1
		c-0.3-0.1-0.5-0.2-0.5-0.3v-0.1c0.1,0,0.2-0.1,0.4-0.3c-0.2-0.2-0.5-0.3-0.9-0.3v0.1l-0.4-0.1l-0.1,0.1l-0.7-0.8
		c-0.1,0.3-0.3,0.4-0.5,0.4c0,0.2-0.2,0.3-0.5,0.3v0.1h-0.3c-4.2-0.7-6.3-2.6-6.3-5.7v-0.3c0-3.2,2-5,6.1-5.6L145,124.1z M138,139.3
		h0.2v-0.1h-0.1L138,139.3z M138.1,138.6h0.3v-0.1h-0.2L138.1,138.6z M138.3,140.2L138.3,140.2l0.1,0.1v-0.2L138.3,140.2z
		 M138.7,138.2L138.7,138.2l-0.1,0.2h0.2v-0.1L138.7,138.2z M138.8,126.7l0.1,0.1h0.1v-0.1H138.8z M139.1,132.4l0.2,0.2l0.1-0.2
		l-0.1-0.1L139.1,132.4z M139.1,138.7v0.3h0.1v-0.3H139.1z M139.4,140.4l0.1,0.4h0.1v-0.1l-0.1-0.3H139.4z M139.6,133.6l0.1,0.1h0.1
		v-0.1H139.6z M139.7,138.7l0.1,0.1h0.2l-0.1-0.3L139.7,138.7z M139.8,137.9l0.1,0.1l0.1-0.1v-0.1h-0.1L139.8,137.9z M139.9,141.9
		L139.9,141.9l0.3,0.1l-0.1-0.1v-0.1L139.9,141.9z M140,132.5v0.3l0.1,0.1v-0.4H140z M140.4,139.8v0.1l0.1,0.3h0.1v-0.1l-0.1-0.3
		H140.4z M140.6,126.9v0.1c0.2,0,0.3,0,0.3,0.1h0.1l-0.2-0.3H140.6z M140.6,138.3v0.1c0.2,0,0.3,0.1,0.3,0.3h0.2v-0.1l-0.1-0.1h-0.1
		l0.1-0.1v-0.2h-0.2L140.6,138.3z M140.8,133.1L140.8,133.1l-0.1,0.1h0.3v-0.1L140.8,133.1z M140.8,125.7l0.1,0.1h0.1l0.1-0.1v-0.1
		L140.8,125.7z M140.8,131L140.8,131l0.8,0.2l-0.5-0.3L140.8,131z M140.9,143.2L140.9,143.2c0.3,0.1,0.5,0.2,0.5,0.5h0.1v-0.1
		l0.1-0.1l-0.1-0.1L140.9,143.2L140.9,143.2z M141.3,140.4c0,0.1-0.1,0.2-0.2,0.2v0.1l0.3-0.3H141.3z M141.4,141.9L141.4,141.9
		l0.1-0.1h0.1l0.2,0.2h0.1v-0.1l-0.1-0.2h-0.3L141.4,141.9z M141.5,142.4l0.1,0.1h0.1L141.5,142.4L141.5,142.4z M141.9,140.9
		c0,0.1,0.1,0.1,0.3,0.1l-0.1,0.1v0.1l0.3,0.1v-0.1l-0.2-0.3H141.9z M142,142.8L142,142.8l-0.1,0.3l0.1-0.1h0.1l0.3,0.1L142,142.8z
		 M142.2,131.5v0.1h0.2v-0.1H142.2z M142.7,133.1L142.7,133.1l-0.1,0.1h0.3v-0.1L142.7,133.1z M142.8,142v0.2l0.3,0.2h0.1v-0.3h-0.1
		l-0.1,0.1C142.9,142.2,142.8,142.2,142.8,142L142.8,142z M143.2,144.1L143.2,144.1l-0.1,0.1v0.1l-0.2-0.1v-0.1L143.2,144.1z
		 M143.3,143.2v0.3h0.1v-0.1L143.3,143.2z M143.5,141.9L143.5,141.9l0.1,0.2h0.1l0.2-0.1V142L143.5,141.9L143.5,141.9z M143.5,144.2
		h0.3v0.1h-0.1L143.5,144.2L143.5,144.2z M144.3,134.7l-0.5-0.1l0.3,0.4h0.3c0-0.1,0.1-0.2,0.3-0.2v-0.1l0.2-0.1l-0.1-0.2
		L144.3,134.7z M144.8,135.6h0.5l0.2,0.2v0.4c-0.9-0.2-1.3-0.3-1.3-0.4h0.6V135.6z M144.3,143.1v0.3l0.1,0.1l0.1-0.1h0.1v0.1h0.1
		v-0.1L144.3,143.1z M144.4,141.3v0.2h0.2v-0.1L144.4,141.3L144.4,141.3z M144.6,133.8v0.3h0.1L144.6,133.8L144.6,133.8z
		 M145.4,132.2L145.4,132.2l0.1,0.4c-0.1,0-0.2,0.1-0.3,0.4h-0.4l0.1,0.3l-0.1,0.2c0.5-0.3,0.7-0.7,0.7-1v-0.3H145.4z M145.2,135.2
		h0.2l0.2,0.2v0.2h-0.1l-0.3-0.1V135.2z M145.8,124.1c2,0,3.7,0.6,5.3,1.7c0.7,0.8,1.1,1.3,1.1,1.5c0.2,0,0.5,0.9,0.9,2.7v0.2
		l-2.3,0.3v-0.1l-1.9,0.2c-0.2-1.1-0.5-1.8-1-2.2c-0.4-0.3-1.1-0.6-2.1-0.7v-0.1l0.1-0.4l-0.1-0.7v-2.2L145.8,124.1L145.8,124.1z
		 M147.6,140.3c0.3,0,0.6,0.1,0.8,0.3c0.5,0,0.7,0.2,0.7,0.5l0.2,0.1l0.1-0.1l0.1,0.2l-0.1,0.1v0.1c0.3,0.2,0.4,0.4,0.4,0.5h0.1
		c0-0.2,0.2-0.3,0.5-0.3l0.1,0.1l-0.1,0.1v0.1l0.1,0.1c0,0.2-0.1,0.4-0.2,0.4v0.3c0,0.2-0.1,0.3-0.4,0.3c0,0.1,0.1,0.2,0.4,0.2v-0.1
		l0.1-0.1h0.1v-0.5h0.1v-0.1l-0.1-0.1c0-0.2,0.2-0.3,0.5-0.3c0.1,0.3,0.2,0.5,0.3,0.5v0.1c-0.9,0.7-1.7,1.1-2.2,1.1v-0.1l-0.7,0.1
		v-0.1l0.1-0.2h-0.1l-0.2,0.1v0.1l0.1,0.2v0.1c0,0.2-0.8,0.3-2.5,0.4l-0.1-0.1v-0.8l0.1-0.1v-0.1l0.3,0.1h0.1c0.1,0,0.1-0.1,0.1-0.3
		l0.2-0.2v-0.1h-0.1l-0.1,0.1h-0.1c0-0.2-0.1-0.5-0.3-0.8l0.1-0.2l-0.5-0.4v-0.4c0-0.1,0.1-0.2,0.3-0.2l0.4,0.1
		c0-0.2,0.2-0.3,0.7-0.3v0.4h-0.7l0.2,0.4h0.1v-0.1h0.5l-0.1-0.1v-0.1h0.1l0.2,0.1l0.1-0.1l0.1,0.4h0.1v-0.2l-0.1-0.3l0.1-0.1
		c-0.1,0-0.2-0.1-0.3-0.3h-0.2v-0.1L147.6,140.3z M145.8,141.7h0.1l0.1,0.2l-0.1,0.2h-0.1V141.7z M146,142.2l0.3,0.1v0.5h-0.4
		l-0.1-0.1v-0.3C145.8,142.3,145.8,142.2,146,142.2z M146.2,144.1L146.2,144.1l0.5,0.1l-0.1-0.2L146.2,144.1z M146.6,143.6v0.3
		l0.3-0.1C146.9,143.7,146.8,143.6,146.6,143.6z M146.6,133.6h0.3v-0.1h-0.1L146.6,133.6z M146.9,134.8L146.9,134.8l-0.1,0.1h0.2
		L146.9,134.8z M147.4,134.1l-0.1,0.1v0.1h0.2L147.4,134.1L147.4,134.1z M147.3,142.6c0.1,0.2,0.1,0.3,0.2,0.3h0.1v-0.1l-0.2-0.2
		H147.3z M147.5,124.7L147.5,124.7l0.2,0.1v-0.1H147.5z M148.2,140.9l0.1,0.2l0.1-0.1v-0.2h-0.1L148.2,140.9z M148.4,141.5v0.1h0.3
		l-0.1-0.1H148.4z M148.6,135.9l-0.1,0.2h0.1l0.1-0.1l-0.1-0.1H148.6z M148.8,142.4v0.3l0.5-0.1v-0.1c-0.2,0-0.3-0.1-0.3-0.2H148.8z
		 M150.4,133.7l0.1,0.3l-0.3,0.1l-0.1-0.1H150l-0.1,0.1v0.1l0.1,0.2v0.3l-0.1,0.3h-0.3l-0.2-0.1v0.3h-0.5v0.1l0.3,0.1l0.2-0.2h0.1
		l0.2,0.1c0-0.2,0.2-0.3,0.4-0.3v0.3h-0.2v0.2l0.3,0.3l0.1-0.1v-0.5l0.1-0.1h0.1l0.2,0.1v-0.5h-0.5v-0.1l0.1-0.3h0.1l0.3,0.1
		c0-0.2,0-0.3,0.1-0.3C150.8,134,150.6,133.8,150.4,133.7z M149,125.2l0.3-0.2h-0.1L149,125.2z M149,139L149,139
		c0,0.2,0.2,0.3,0.5,0.3c0,0.2,0,0.3,0.1,0.3h0.1l0.1-0.1l-0.8-0.4H149z M149.2,143.4h0.4v-0.1l-0.1-0.1h-0.1L149.2,143.4z
		 M149.5,142.3c0,0.1-0.1,0.2-0.2,0.2v0.1h0.3l0.1-0.3H149.5z M149.5,138.6l0.1,0.1h0.1L149.5,138.6L149.5,138.6z M151,137.4v0.1
		h-0.3c-0.1,0.1-0.4,0.1-0.8,0.2l-0.1-0.1v0.1h0.6c0,0.3,0,0.4,0.1,0.4h0.1l-0.1-0.2v-0.1l0.1-0.1h0.5l0.2,0.1v-0.3l-0.1-0.1v-0.1
		l0.1-0.1H151z M149.9,127.4v0.1h0.3v-0.1H149.9z M150.3,135.9c0,0.2-0.1,0.3-0.4,0.3v0.2h0.1l0.6-0.5L150.3,135.9z M150,139.7v0.1
		l0.3,0.1h0.1v-0.1L150,139.7z M150.7,126.7v0.1h-0.4v0.1h0.3l0.3-0.1l0.1,0.2l0.2-0.1v-0.2l-0.1-0.1H150.7z M150.4,139.3
		L150.4,139.3c0,0.2,0.1,0.3,0.4,0.4v-0.3C150.6,139.4,150.5,139.4,150.4,139.3L150.4,139.3z M150.6,138.7v0.1h0.3v-0.4
		c-0.1,0-0.1,0.1-0.1,0.3H150.6z M150.8,134.6l-0.1,0.2h0.2v-0.2H150.8z M150.7,141.5h0.3v0.3l-0.2,0.1l-0.1-0.1V141.5z
		 M150.9,135.3v0.1l0.3,0.1v-0.1L150.9,135.3z M150.9,136.6v0.1h0.4l-0.1-0.1H150.9z M150.9,139v0.3h0.1V139H150.9z M150.9,140.9
		L150.9,140.9l0.1,0.1v0.1l0.3-0.3c0.2,0,0.3-0.1,0.3-0.3h0.1c0-0.1-0.1-0.2-0.3-0.2v-0.1h-0.1c-0.1,0-0.1,0.2-0.1,0.7L150.9,140.9z
		 M151.2,140L151.2,140l0.2,0.1V140H151.2z M151.2,135.1v0.1l0.4-0.1v-0.1H151.2z M151.3,135.6l0.1,0.1h0.1L151.3,135.6L151.3,135.6
		z M151.5,138.1l0.1,0.3l0.2-0.3H151.5z M151.6,139.2v0.1l0.1,0.1h0.1v-0.3H151.6z M151.6,141.5v0.1h0.2v-0.1H151.6z M151.6,136.2
		v0.1l0.3,0.1h0.2v-0.1C151.9,136.3,151.7,136.2,151.6,136.2z M151.8,139.5v0.3h0.1l0.1-0.1L151.8,139.5z M152.2,134.7L152.2,134.7
		c0.2,0.1,0.3,0.2,0.3,0.4h-0.3l-0.1-0.1v-0.1L152.2,134.7z M152.1,137.8v0.1h0.1l0.1-0.1H152.1z M152.4,128.4v0.4l0.2,0.1v-0.1
		L152.4,128.4L152.4,128.4z"/>
</g>
</svg>
