<svg id="Ebene_1" data-name="Ebene 1" xmlns="http://www.w3.org/2000/svg" viewBox="0 0 88.09 100.13"><defs><style>.cls-1{fill:#fff;}</style></defs><title>Zeichenfläche 1500</title><g id="Streifen_1" data-name="Streifen 1"><path class="cls-1" d="M86,54.16c-2.27-2.83-7-3.62-9-3.83H77a.42.42,0,0,0-.4.29l-2.54,7a.4.4,0,0,0,.06.37.4.4,0,0,0,.31.14h0a29.47,29.47,0,0,1,3.5-.22c3.9,0,6.64,1,8.17,2.92a7,7,0,0,1,1.31,3.07c.07.36.4.33.44,0C88.33,60.82,88.23,57,86,54.16Zm-5.61,2.68c-.65-.07-1.36-.12-2.11-.14s-1.55,0-2.24,0a.25.25,0,0,1-.25-.34l1.62-4.53a.61.61,0,0,1,.69-.39c.66.13,1.36.3,2.1.52s1.18.37,1.71.57a.32.32,0,0,1,.19.4c-.44,1.2-.87,2.41-1.3,3.61A.38.38,0,0,1,80.39,56.84Zm3.79.95a11,11,0,0,0-2.38-.73.19.19,0,0,1-.13-.24l1.24-3.45a.15.15,0,0,1,.22-.07,8.94,8.94,0,0,1,2,1.89.36.36,0,0,1,0,.33l-.79,2.17A.17.17,0,0,1,84.18,57.79Zm2.19,1.49a5.27,5.27,0,0,0-.48-.45,6.23,6.23,0,0,0-.9-.61.23.23,0,0,1-.11-.29L85.57,56a.08.08,0,0,1,.14,0,10,10,0,0,1,.82,1.75A9.28,9.28,0,0,1,86.89,59,.31.31,0,0,1,86.37,59.28Z"/></g><path class="cls-1" d="M81.09,70.05a1.45,1.45,0,0,1,.47-.42,8.41,8.41,0,0,0,2.72-2.39,8.26,8.26,0,0,0,1.39-3.14.2.2,0,0,1,.4,0A12.1,12.1,0,0,1,84.6,71a12.79,12.79,0,0,1-8.82,6,.43.43,0,0,1-.36-.75c.76-.63,1.55-1.35,2.35-2.16A32.56,32.56,0,0,0,81.09,70.05Z"/><path class="cls-1" d="M51,43.65a4.3,4.3,0,1,0-7.8,3.64,4.32,4.32,0,0,0,5.72,2.08A4.3,4.3,0,0,0,51,43.65ZM48.32,48a2.83,2.83,0,1,1,1.37-3.76A2.83,2.83,0,0,1,48.32,48ZM51,43.65a4.3,4.3,0,1,0-7.8,3.64,4.32,4.32,0,0,0,5.72,2.08A4.3,4.3,0,0,0,51,43.65ZM48.32,48a2.83,2.83,0,1,1,1.37-3.76A2.83,2.83,0,0,1,48.32,48Zm33.79,1.5a35.22,35.22,0,1,0-2.75,10.13c-.48,0-1-.06-1.52-.06a28.22,28.22,0,0,0-3.29.21l-.27,0A2.15,2.15,0,0,1,72.59,59a2.18,2.18,0,0,1-.36-2.1l2.54-7a2.26,2.26,0,0,1,2.12-1.49h.21l.73.08v0A22.46,22.46,0,0,1,82.11,49.53Zm-21-23.35a.76.76,0,0,1,.17,1.05L56,34.5a.74.74,0,0,1-.6.31.71.71,0,0,1-.44-.15.74.74,0,0,1-.17-1l5.28-7.27A.75.75,0,0,1,61.16,26.18ZM41.4,15.55a30.21,30.21,0,0,1,11.49,0,5.4,5.4,0,0,1,4.21,6.38A5.21,5.21,0,0,1,56.76,23L53.81,29.9A7.79,7.79,0,0,1,53,31.4,7.08,7.08,0,0,1,49.13,34a5.74,5.74,0,0,1-1,.21,6.77,6.77,0,0,1-1,.07,7,7,0,0,1-1-.07,5.83,5.83,0,0,1-1-.21,7.1,7.1,0,0,1-4.68-4.12l-3-6.88a5,5,0,0,1-.34-1.08A5.42,5.42,0,0,1,41.4,15.55ZM33.07,26.18a.75.75,0,0,1,1,.17l5.28,7.27a.74.74,0,0,1-.17,1,.71.71,0,0,1-.44.15.74.74,0,0,1-.6-.31L32.9,27.23A.76.76,0,0,1,33.07,26.18ZM22.28,47.72a5.42,5.42,0,0,1-5.39-6,30.75,30.75,0,0,1,3.56-10.93,5.4,5.4,0,0,1,7.41-2l.16.1a2.46,2.46,0,0,1,.34.22,4,4,0,0,1,.4.32l5.62,4.93A7.28,7.28,0,0,1,30.25,47l-7.46.69A4.35,4.35,0,0,1,22.28,47.72ZM33.9,50.55l-8.54,2.77a.67.67,0,0,1-.24,0,.75.75,0,0,1-.23-1.46l8.55-2.78a.75.75,0,0,1,.46,1.43ZM43.38,62l-1.65,7.3a4.71,4.71,0,0,1-.19.64c0,.12-.09.24-.14.36a5.4,5.4,0,0,1-7.19,2.76,30.48,30.48,0,0,1-9.32-6.74,5.4,5.4,0,0,1,.38-7.72,4.46,4.46,0,0,1,.85-.63l6.44-3.83a7.13,7.13,0,0,1,3.71-1.05,7.36,7.36,0,0,1,5.09,2.09,3,3,0,0,1,.25.25c.16.17.31.35.46.53A7.15,7.15,0,0,1,43.38,62Zm4.49,6.6a.75.75,0,0,1-1.5,0v-9a.75.75,0,0,1,1.5,0Zm-.75-17.31A5.81,5.81,0,0,1,44.67,40.2a5.81,5.81,0,1,1,2.45,11.08ZM69.26,66.39A30.08,30.08,0,0,1,60,73.07a5.32,5.32,0,0,1-7.17-2.78,3.52,3.52,0,0,1-.15-.42c-.05-.15-.09-.3-.13-.46L50.86,62a7.28,7.28,0,0,1,10.82-7.87L68.12,58a4.4,4.4,0,0,1,.45.3c.14.11.28.21.41.33A5.45,5.45,0,0,1,69.26,66.39ZM59.85,49.6a.75.75,0,0,1,.95-.48l8.54,2.78a.75.75,0,0,1-.23,1.46.62.62,0,0,1-.23,0l-8.55-2.77A.75.75,0,0,1,59.85,49.6Zm12.68-1.9-.57,0-.5,0L64,47a7.28,7.28,0,0,1-4.13-12.73l5.62-4.93a4.94,4.94,0,0,1,.9-.64,5.41,5.41,0,0,1,7.43,2.07c.32.58.63,1.19.92,1.8a30.63,30.63,0,0,1,2.63,9.16A5.39,5.39,0,0,1,72.53,47.7ZM51,43.65a4.3,4.3,0,1,0-7.8,3.64,4.32,4.32,0,0,0,5.72,2.08A4.3,4.3,0,0,0,51,43.65ZM48.32,48a2.83,2.83,0,1,1,1.37-3.76A2.83,2.83,0,0,1,48.32,48Z"/><path class="cls-1" d="M72.57,45.43v.23a3,3,0,0,1-.67.07l-.32,0L64.11,45a5.27,5.27,0,0,1-3-9.22l5.63-4.94a3.18,3.18,0,0,1,.86-.55A25.32,25.32,0,0,1,72.57,45.43Z"/><path class="cls-1" d="M39.25,22.23a3.21,3.21,0,0,1-.26-1,25.51,25.51,0,0,1,16.14,0,3.21,3.21,0,0,1-.26,1l-3,6.88a5.28,5.28,0,0,1-9.7,0Z"/><path class="cls-1" d="M22.22,45.72a3,3,0,0,1-.66-.07,1.62,1.62,0,0,1,0-.22,25.39,25.39,0,0,1,5-15.12,3.14,3.14,0,0,1,.86.55L33,35.79A5.28,5.28,0,0,1,30,45l-7.45.69Z"/><path class="cls-1" d="M67.79,60.29a25.4,25.4,0,0,1-13.08,9.47,3.53,3.53,0,0,1-.28-.79l-1.68-7.42a5.12,5.12,0,0,1,1-4.43,5.37,5.37,0,0,1,4.16-2,5.28,5.28,0,0,1,2.7.76L67,59.68A3,3,0,0,1,67.79,60.29Z"/><path class="cls-1" d="M41.37,61.55l-1.65,7.3a3.55,3.55,0,0,1-.34.91,25.51,25.51,0,0,1-13.05-9.48,3.41,3.41,0,0,1,.75-.6l6.44-3.84a5.27,5.27,0,0,1,2.69-.76,5.39,5.39,0,0,1,4.17,2A5.15,5.15,0,0,1,41.37,61.55Z"/><path class="cls-1" d="M83.67,28.44A40.27,40.27,0,0,0,32.3,8L30.09,2.85h0L29.2.76a1.25,1.25,0,0,0-2.3,1l.42,1A47.18,47.18,0,0,0,45.2,92.62v3.59H36.3a2,2,0,0,0,0,3.92H58.12a2,2,0,0,0,0-3.92H49.2V92.62a47.38,47.38,0,0,0,15.63-3.43l.39.9a1.26,1.26,0,0,0,1.15.75,1.31,1.31,0,0,0,.5-.1,1.25,1.25,0,0,0,.64-1.65l-3.14-7.23a40,40,0,0,0,19.8-20.51A5.89,5.89,0,0,0,82,60.17a37.78,37.78,0,1,1,2.62-9.5,10.5,10.5,0,0,1,2.26,1.71A39.88,39.88,0,0,0,83.67,28.44Zm-73,34A40,40,0,0,0,33.41,83.29a40,40,0,0,0,28.67-.43l1.76,4A44.66,44.66,0,0,1,12.25,17.65,45,45,0,0,1,28.29,5L30,9A40.3,40.3,0,0,0,10.69,62.47Z"/></svg>