<svg id="Ebene_1" data-name="Ebene 1" xmlns="http://www.w3.org/2000/svg" viewBox="0 0 157.47 157.47"><defs><style>.cls-1{fill:#1da64a;}.cls-2{fill:#fff;}</style></defs><title>Filmmakers4Future_Circle_RGB2</title><circle class="cls-1" cx="78.73" cy="78.73" r="78.73"/><path class="cls-2" d="M16.12,103.59l2.79-1.07-2-5.24,2.7-1,2,5.25,5.27-2,1.23,3.24-13.55,5.16L11.15,99,14,97.91Z"/><path class="cls-2" d="M24.31,91.46,10.1,94.32l-.7-3.45L23.62,88Z"/><path class="cls-2" d="M23.08,84.93l-14.49.6L8.44,82l11.45-.47-.24-5.61,3.05-.13Z"/><path class="cls-2" d="M25.56,61l-10-2.48v.06l9.1,6.06L24.11,67,13.27,68.17v.06l10,2.32-.77,3.2L8.38,70.37l1.17-4.85,9.82-1,0-.08-8.31-5.24,1.19-4.92,14.1,3.38Z"/><path class="cls-2" d="M34.34,44.49l-8.6-5.61,0,0,6.6,8.72L31,49.72,20.37,47.27l0,0L29,52.79l-1.77,2.78L15,47.74l2.68-4.2,9.61,2.24.05-.07L21.25,38,24,33.76l12.21,7.83Z"/><path class="cls-2" d="M46.21,33.15l-2.68-1.48L39.2,35.24l1,2.87-2.95,2.42L32.72,25.47l2.63-2.16,13.87,7.37Zm-9.76-5.73,1.74,5L41,30.11Z"/><path class="cls-2" d="M58.91,26.47l-7.66-4,0,0,2.7,6.1L50.78,30,44.9,16.7,48,15.35l2.4,5.4.05,0,2.37-7.44,4-1.72-3,8.57,9.25,4.54Z"/><path class="cls-2" d="M64.26,24.58,61.7,10.3l9.6-1.72.52,2.9-6.27,1.13.48,2.7L72,14.25l.5,2.76-5.93,1.06.53,3,6.63-1.19.53,2.94Z"/><path class="cls-2" d="M84,23.07l-2.85-5.91L80,17.1l-.29,5.75-3.41-.18L77,8.19l5.52.28a9.77,9.77,0,0,1,2,.32,5.37,5.37,0,0,1,1.74.82A3.78,3.78,0,0,1,87.49,11a4.22,4.22,0,0,1,.37,2.12,3.83,3.83,0,0,1-.93,2.43,4.33,4.33,0,0,1-2.28,1.32l3.47,6.39Zm.37-10a1.54,1.54,0,0,0-.18-.84,1.47,1.47,0,0,0-.53-.52,2.23,2.23,0,0,0-.75-.27,6,6,0,0,0-.81-.11l-1.87-.09-.17,3.37,1.67.09a6.79,6.79,0,0,0,.89,0,2.74,2.74,0,0,0,.83-.21A1.51,1.51,0,0,0,84.4,13Z"/><path class="cls-2" d="M100.54,15.75a3.12,3.12,0,0,0-.88-1.21,3.08,3.08,0,0,0-1.25-.72,3.13,3.13,0,0,0-.69-.14,1.77,1.77,0,0,0-.69,0,1.71,1.71,0,0,0-.59.29,1.23,1.23,0,0,0-.38.63,1.14,1.14,0,0,0,0,.63,1.35,1.35,0,0,0,.31.54,5.16,5.16,0,0,0,.58.53l.8.56c.42.3.86.61,1.32,1A6.12,6.12,0,0,1,100.21,19a4.12,4.12,0,0,1,.7,1.48,3.53,3.53,0,0,1-.1,1.86,4.7,4.7,0,0,1-1.06,1.94,4.29,4.29,0,0,1-1.61,1.1,5.49,5.49,0,0,1-2,.34,7.67,7.67,0,0,1-2.06-.31,8.52,8.52,0,0,1-2.74-1.38,6.39,6.39,0,0,1-1.88-2.16l2.86-1.59a4.13,4.13,0,0,0,1,1.44,3.83,3.83,0,0,0,1.53.92,3.28,3.28,0,0,0,.75.13,1.8,1.8,0,0,0,.7-.07,1.39,1.39,0,0,0,.56-.35,1.49,1.49,0,0,0,.36-.66,1.18,1.18,0,0,0,0-.72,2,2,0,0,0-.42-.67,5,5,0,0,0-.78-.68c-.32-.23-.69-.49-1.11-.77A12.31,12.31,0,0,1,93.84,18a4.71,4.71,0,0,1-.91-1.09,3.87,3.87,0,0,1-.48-1.36,3.94,3.94,0,0,1,.17-1.69A4.09,4.09,0,0,1,93.68,12a4.17,4.17,0,0,1,1.63-1,5.78,5.78,0,0,1,2-.27,8.61,8.61,0,0,1,2,.33,7.65,7.65,0,0,1,2.28,1.15,6.43,6.43,0,0,1,1.77,1.91Z"/><path class="cls-2" d="M114.9,21.89l-1.64,2.5,4.7,3.08-1.59,2.41-4.69-3.07-3.09,4.71-2.9-1.9,8-12.13,8,5.23L120,25.23Z"/><path class="cls-2" d="M130.39,41.51a8.14,8.14,0,0,1-2.71,1.71,7.12,7.12,0,0,1-5.76-.32A8.81,8.81,0,0,1,119.37,41a8.62,8.62,0,0,1-1.74-2.68,7.35,7.35,0,0,1-.55-2.89,7,7,0,0,1,.66-2.87,8.13,8.13,0,0,1,1.9-2.58,7.83,7.83,0,0,1,2.71-1.7,6.8,6.8,0,0,1,2.87-.42,7.44,7.44,0,0,1,2.81.8,8.87,8.87,0,0,1,2.53,1.94,9.16,9.16,0,0,1,1.76,2.67,7.39,7.39,0,0,1,.6,2.87,7,7,0,0,1-.63,2.84A8.12,8.12,0,0,1,130.39,41.51Zm-2.55-2.74a5,5,0,0,0,1.08-1.43,4.24,4.24,0,0,0,.45-1.58,3.74,3.74,0,0,0-.22-1.58,4.06,4.06,0,0,0-.9-1.47,4,4,0,0,0-1.39-1,4.1,4.1,0,0,0-1.57-.34,4,4,0,0,0-1.6.34,4.91,4.91,0,0,0-1.5,1,5.14,5.14,0,0,0-1.12,1.46,4.25,4.25,0,0,0-.46,1.59,3.77,3.77,0,0,0,.2,1.59,4.1,4.1,0,0,0,5.49,2.45A5.32,5.32,0,0,0,127.84,38.77Z"/><path class="cls-2" d="M129.18,54.64l3.6-5.49-.56-1-5.08,2.71-1.6-3L138.33,41l2.6,4.88a9.7,9.7,0,0,1,.77,1.9,5.49,5.49,0,0,1,.2,1.91,3.83,3.83,0,0,1-.61,1.75,4.12,4.12,0,0,1-1.62,1.4,3.84,3.84,0,0,1-2.56.46A4.33,4.33,0,0,1,134.8,52l-3.69,6.27ZM138,49.78a1.43,1.43,0,0,0,.63-.58,1.37,1.37,0,0,0,.17-.72,2.2,2.2,0,0,0-.15-.78,5.13,5.13,0,0,0-.32-.75l-.88-1.65-3,1.59.79,1.47a5.24,5.24,0,0,0,.48.75,2.67,2.67,0,0,0,.61.6,1.46,1.46,0,0,0,1.66.07Z"/><path class="cls-2" d="M67.93,137.17l-.5,3,5.54.94-.49,2.85L67,143,66,148.52,62.6,148,65,133.64l9.41,1.6-.49,2.95Z"/><path class="cls-2" d="M88.71,146.11A5.33,5.33,0,0,1,87.57,148a6,6,0,0,1-1.9,1.32,8,8,0,0,1-5.14.31,5.58,5.58,0,0,1-2-1.07,5.25,5.25,0,0,1-1.34-1.77,6.45,6.45,0,0,1-.58-2.35l-.56-9,3.48-.21.54,8.73a4.46,4.46,0,0,0,.22,1.11,2.88,2.88,0,0,0,.53.92,2.26,2.26,0,0,0,.88.62,3,3,0,0,0,1.28.16,2.87,2.87,0,0,0,1.24-.32,2.15,2.15,0,0,0,.8-.72,2.6,2.6,0,0,0,.42-1,4.64,4.64,0,0,0,.07-1.13L85,134.9l3.49-.22.56,9A6.11,6.11,0,0,1,88.71,146.11Z"/><path class="cls-2" d="M98,135l3.4,11L98,147l-3.4-11-3.91,1.21-.88-2.86L101,130.92l.88,2.85Z"/><path class="cls-2" d="M118.78,133.82a5.22,5.22,0,0,1-.12,2.23,5.76,5.76,0,0,1-1.08,2,7.87,7.87,0,0,1-4.41,2.66,5.63,5.63,0,0,1-2.28,0,5.15,5.15,0,0,1-2-.94,6.64,6.64,0,0,1-1.61-1.82l-4.67-7.74,3-1.79,4.52,7.48a3.92,3.92,0,0,0,.71.89,3.1,3.1,0,0,0,.9.57,2.21,2.21,0,0,0,1.06.14,3.34,3.34,0,0,0,2.16-1.3,2.34,2.34,0,0,0,.39-1,2.73,2.73,0,0,0-.09-1.06,4.53,4.53,0,0,0-.46-1l-4.53-7.48,3-1.81,4.68,7.73A6.25,6.25,0,0,1,118.78,133.82Z"/><path class="cls-2" d="M130.83,127l-6.3-1.81-.84.84,4.08,4.06-2.4,2.43-10.3-10.22,3.9-3.93a9.69,9.69,0,0,1,1.58-1.29,5.49,5.49,0,0,1,1.77-.76,3.86,3.86,0,0,1,1.85.06,4.18,4.18,0,0,1,1.82,1.14,3.87,3.87,0,0,1,1.19,2.31,4.35,4.35,0,0,1-.54,2.58l7.08,1.68Zm-7.24-7a1.47,1.47,0,0,0-.74-.43,1.43,1.43,0,0,0-.74,0,2.37,2.37,0,0,0-.7.37,4.71,4.71,0,0,0-.62.54l-1.32,1.33,2.4,2.38,1.18-1.19a5.54,5.54,0,0,0,.57-.68,2.78,2.78,0,0,0,.4-.76,1.52,1.52,0,0,0-.43-1.61Z"/><path class="cls-2" d="M136.08,120.75,123.84,113l5.22-8.24,2.49,1.58-3.41,5.38,2.32,1.48,3.22-5.09,2.37,1.5-3.22,5.09,2.54,1.62,3.61-5.7,2.52,1.61Z"/><g id="Streifen_1" data-name="Streifen 1"><path class="cls-2" d="M115.58,85.55c-2.15-2.68-6.65-3.43-8.49-3.63H107a.41.41,0,0,0-.38.28l-2.4,6.65a.39.39,0,0,0,0,.35.37.37,0,0,0,.3.13h0a28.45,28.45,0,0,1,3.32-.2c3.7,0,6.29.92,7.74,2.76a6.65,6.65,0,0,1,1.24,2.91c.07.34.38.31.42,0C117.79,91.86,117.69,88.2,115.58,85.55Zm-5.32,2.54c-.61-.06-1.29-.11-2-.13a20.71,20.71,0,0,0-2.12.05.24.24,0,0,1-.24-.32c.52-1.43,1-2.87,1.54-4.3a.59.59,0,0,1,.65-.37c.63.13,1.29.29,2,.5s1.12.35,1.62.54a.3.3,0,0,1,.18.38c-.41,1.13-.82,2.28-1.23,3.42A.36.36,0,0,1,110.26,88.09Zm3.59.9a10.33,10.33,0,0,0-2.25-.69.17.17,0,0,1-.12-.23l1.17-3.26a.14.14,0,0,1,.21-.07,8.42,8.42,0,0,1,1.92,1.79.32.32,0,0,1,0,.31l-.75,2.06A.17.17,0,0,1,113.85,89Zm2.08,1.42a3.82,3.82,0,0,0-.46-.43,5.15,5.15,0,0,0-.85-.58.21.21,0,0,1-.1-.27l.65-1.84c0-.07.11-.08.13,0a8.94,8.94,0,0,1,.78,1.66,8,8,0,0,1,.34,1.21A.29.29,0,0,1,115.93,90.41Z"/></g><path class="cls-2" d="M110.93,100.61a1.31,1.31,0,0,1,.44-.4A7.72,7.72,0,0,0,115.26,95a.19.19,0,0,1,.38,0,11.35,11.35,0,0,1-1.39,6.46,12.07,12.07,0,0,1-8.36,5.66.41.41,0,0,1-.34-.71c.72-.6,1.47-1.28,2.22-2A30.47,30.47,0,0,0,110.93,100.61Z"/><path class="cls-2" d="M82.43,75.59a4.08,4.08,0,0,0-3.7-2.36,4.21,4.21,0,0,0-1.72.38,4.13,4.13,0,0,0-2.11,2.31,4.09,4.09,0,0,0,2.44,5.23A4,4,0,0,0,80.46,81,4.07,4.07,0,0,0,82.43,75.59Zm-2.56,4.15a2.68,2.68,0,1,1,1.3-3.56A2.68,2.68,0,0,1,79.87,79.74Zm2.56-4.15a4.08,4.08,0,0,0-3.7-2.36,4.21,4.21,0,0,0-1.72.38,4.13,4.13,0,0,0-2.11,2.31,4.09,4.09,0,0,0,2.44,5.23A4,4,0,0,0,80.46,81,4.07,4.07,0,0,0,82.43,75.59Zm-2.56,4.15a2.68,2.68,0,1,1,1.3-3.56A2.68,2.68,0,0,1,79.87,79.74Zm32,1.43a33.34,33.34,0,1,0-2.6,9.59c-.46,0-.94-.05-1.45-.05a25.23,25.23,0,0,0-3.11.2l-.26,0a2.08,2.08,0,0,1-1.94-2.77l2.41-6.65a2.12,2.12,0,0,1,2-1.42h.2l.7.08v0A21.27,21.27,0,0,1,111.89,81.17ZM92,59a.73.73,0,0,1,.16,1l-5,6.88a.7.7,0,0,1-.57.3.73.73,0,0,1-.42-.14.71.71,0,0,1-.16-1l5-6.89A.72.72,0,0,1,92,59ZM73.32,49A28.64,28.64,0,0,1,84.2,49a5.1,5.1,0,0,1,4,6,4.9,4.9,0,0,1-.32,1l-2.79,6.52A7.83,7.83,0,0,1,84.27,64a7.26,7.26,0,0,1-.67.77,6.74,6.74,0,0,1-3,1.71,6.66,6.66,0,0,1-1.9.26,6.24,6.24,0,0,1-1-.06,6.3,6.3,0,0,1-.94-.2,6.72,6.72,0,0,1-4.43-3.9l-2.8-6.52a5.29,5.29,0,0,1-.32-1A5.12,5.12,0,0,1,73.32,49ZM65.42,59a.72.72,0,0,1,1,.16l5,6.89a.72.72,0,0,1-.58,1.13.73.73,0,0,1-.57-.3l-5-6.88A.73.73,0,0,1,65.42,59ZM55.2,79.45a4.89,4.89,0,0,1-.54,0,5.12,5.12,0,0,1-4.57-5.69,29.28,29.28,0,0,1,3.37-10.36,5.12,5.12,0,0,1,7-1.92s.1,0,.15.09a2.2,2.2,0,0,1,.32.21c.13.1.26.19.38.3l5.32,4.67a6.9,6.9,0,0,1-3.91,12.06l-7.07.65A3.85,3.85,0,0,1,55.2,79.45Zm11,2.68-8.09,2.63a.61.61,0,0,1-.23,0,.71.71,0,0,1-.22-1.38l8.1-2.63a.71.71,0,0,1,.44,1.35Zm9,10.84-1.56,6.92a6.13,6.13,0,0,1-.18.61c0,.11-.09.22-.13.34a5.12,5.12,0,0,1-6.82,2.61,28.89,28.89,0,0,1-8.83-6.38A5.13,5.13,0,0,1,58,89.75a4.05,4.05,0,0,1,.81-.6l6.1-3.63a6.77,6.77,0,0,1,3.52-1,7,7,0,0,1,4.82,2c.07.07.16.15.24.24s.29.33.43.5A6.72,6.72,0,0,1,75.19,93Zm4.26,6.26a.71.71,0,1,1-1.42,0V90.71a.71.71,0,1,1,1.42,0Zm-.71-16.41a5.39,5.39,0,0,1-1.89-.34,5.51,5.51,0,0,1-3.29-7,5.5,5.5,0,1,1,5.18,7.39Zm21,14.32a28.35,28.35,0,0,1-8.78,6.33,5,5,0,0,1-6.79-2.63,2.4,2.4,0,0,1-.14-.4c0-.14-.09-.29-.13-.44l-1.59-7a6.9,6.9,0,0,1,10.25-7.46l6.1,3.64a3.23,3.23,0,0,1,.43.29c.13.1.27.2.39.31A5.16,5.16,0,0,1,99.71,97.14ZM90.8,81.23a.7.7,0,0,1,.9-.45l8.09,2.63a.7.7,0,0,1,.46.89.7.7,0,0,1-.68.49.58.58,0,0,1-.22,0l-8.1-2.63A.71.71,0,0,1,90.8,81.23Zm12-1.8a4.89,4.89,0,0,1-.54,0l-.47,0-7.08-.64a6.91,6.91,0,0,1-3.91-12.07l5.32-4.67a5.39,5.39,0,0,1,3.4-1.29,5.09,5.09,0,0,1,4.5,2.65c.3.55.59,1.13.87,1.7a29.06,29.06,0,0,1,2.49,8.68A5.11,5.11,0,0,1,102.81,79.43ZM82.43,75.59a4.08,4.08,0,0,0-3.7-2.36,4.21,4.21,0,0,0-1.72.38,4.13,4.13,0,0,0-2.11,2.31,4.09,4.09,0,0,0,2.44,5.23A4,4,0,0,0,80.46,81,4.07,4.07,0,0,0,82.43,75.59Zm-2.56,4.15a2.68,2.68,0,1,1,1.3-3.56A2.68,2.68,0,0,1,79.87,79.74Z"/><path class="cls-2" d="M102.85,77.28v.22a2.69,2.69,0,0,1-.63.06h-.31l-7.08-.66A5,5,0,0,1,92,68.16l5.34-4.69a3.35,3.35,0,0,1,.81-.52A24,24,0,0,1,102.85,77.28Z"/><path class="cls-2" d="M71.28,55.3a3.26,3.26,0,0,1-.25-.95,24.22,24.22,0,0,1,15.3,0,3.26,3.26,0,0,1-.25.95l-2.81,6.52a5,5,0,0,1-9.19,0Z"/><path class="cls-2" d="M55.14,77.56a2.62,2.62,0,0,1-.62-.07,1.48,1.48,0,0,1,0-.21A24.05,24.05,0,0,1,59.22,63a3.49,3.49,0,0,1,.81.52l5.33,4.68a5,5,0,0,1-2.85,8.74l-7.06.66Z"/><path class="cls-2" d="M98.32,91.36a24,24,0,0,1-12.39,9,3.12,3.12,0,0,1-.27-.74l-1.59-7a4.84,4.84,0,0,1,.94-4.2,4.95,4.95,0,0,1,6.5-1.22l6.1,3.64A2.69,2.69,0,0,1,98.32,91.36Z"/><path class="cls-2" d="M73.29,92.56l-1.57,6.91a3.05,3.05,0,0,1-.32.86,24.12,24.12,0,0,1-12.36-9,3.07,3.07,0,0,1,.71-.57l6.1-3.64a5,5,0,0,1,2.55-.72,5.11,5.11,0,0,1,3.95,1.94A4.87,4.87,0,0,1,73.29,92.56Z"/><path class="cls-2" d="M113.37,61.18A38.14,38.14,0,0,0,64.69,41.86L62.6,36.93h0l-.85-2a1.18,1.18,0,1,0-2.17.92l.39.93A44.7,44.7,0,0,0,76.91,122v3.29a36.82,36.82,0,0,1-8.08-1.3,1.89,1.89,0,1,0-1,3.65,41,41,0,0,0,22.06,0,1.89,1.89,0,1,0-1-3.65,36.75,36.75,0,0,1-8.15,1.3V122a44.81,44.81,0,0,0,14.82-3.24l.37.85a1.18,1.18,0,0,0,2.17-.94l-3-6.86a37.84,37.84,0,0,0,18.76-19.44,5.84,5.84,0,0,0-2.09-1.11,35.71,35.71,0,1,1,2.49-9,9.6,9.6,0,0,1,2.13,1.62A37.8,37.8,0,0,0,113.37,61.18ZM44.21,93.43a38.08,38.08,0,0,0,48.7,19.32l1.67,3.84A42.32,42.32,0,0,1,45.7,51,42.57,42.57,0,0,1,60.89,39l1.63,3.83A38.2,38.2,0,0,0,44.21,93.43Z"/></svg>