<?xml version="1.0" encoding="utf-8"?>
<!-- Generator: Adobe Illustrator 23.0.6, SVG Export Plug-In . SVG Version: 6.00 Build 0)  -->
<svg version="1.1" id="Ebene_1" xmlns="http://www.w3.org/2000/svg" xmlns:xlink="http://www.w3.org/1999/xlink" x="0px" y="0px"
	 viewBox="0 0 1000 1000" style="enable-background:new 0 0 1000 1000;" xml:space="preserve">
<style type="text/css">
	.st0{clip-path:url(#SVGID_2_);fill:#4391C6;}
	.st1{clip-path:url(#SVGID_4_);fill:#FFFFFF;}
	.st2{clip-path:url(#SVGID_6_);fill:#4391C6;}
	.st3{clip-path:url(#SVGID_8_);fill:#C7DCF0;}
	.st4{clip-path:url(#SVGID_10_);fill:#213565;}
	.st5{clip-path:url(#SVGID_12_);fill:#E73C2E;}
	.st6{clip-path:url(#SVGID_14_);fill:#4391C6;}
	.st7{clip-path:url(#SVGID_16_);fill:#4391C6;}
	.st8{clip-path:url(#SVGID_18_);fill:#6BAED7;}
	.st9{clip-path:url(#SVGID_20_);fill:#9FCAE1;}
	.st10{clip-path:url(#SVGID_22_);fill:#FCE0D4;}
	.st11{clip-path:url(#SVGID_24_);fill:#681414;}
	.st12{clip-path:url(#SVGID_26_);fill:#6BAED7;}
	.st13{clip-path:url(#SVGID_28_);fill:#4391C6;}
	.st14{clip-path:url(#SVGID_30_);fill:#E73C2E;}
	.st15{clip-path:url(#SVGID_32_);fill:#0B529C;}
	.st16{clip-path:url(#SVGID_34_);fill:#C7DCF0;}
	.st17{clip-path:url(#SVGID_36_);fill:#C7DCF0;}
	.st18{clip-path:url(#SVGID_38_);fill:#2272B6;}
	.st19{clip-path:url(#SVGID_40_);fill:#0B529C;}
	.st20{clip-path:url(#SVGID_42_);fill:#C7DCF0;}
	.st21{clip-path:url(#SVGID_44_);fill:#DDEBF8;}
	.st22{clip-path:url(#SVGID_46_);fill:#4391C6;}
	.st23{clip-path:url(#SVGID_48_);fill:#6BAED7;}
	.st24{clip-path:url(#SVGID_50_);fill:#4391C6;}
	.st25{clip-path:url(#SVGID_52_);fill:#0B529C;}
	.st26{clip-path:url(#SVGID_54_);fill:#C7DCF0;}
	.st27{clip-path:url(#SVGID_56_);fill:#4391C6;}
	.st28{clip-path:url(#SVGID_58_);fill:#C7DCF0;}
	.st29{clip-path:url(#SVGID_60_);fill:#FCE0D4;}
	.st30{clip-path:url(#SVGID_62_);fill:#E73C2E;}
	.st31{clip-path:url(#SVGID_64_);fill:#213565;}
	.st32{clip-path:url(#SVGID_66_);fill:#F28F73;}
	.st33{clip-path:url(#SVGID_68_);fill:#6BAED7;}
	.st34{clip-path:url(#SVGID_70_);fill:#0B529C;}
	.st35{clip-path:url(#SVGID_72_);fill:#213565;}
	.st36{clip-path:url(#SVGID_74_);fill:#E73C2E;}
	.st37{clip-path:url(#SVGID_76_);fill:#4391C6;}
	.st38{clip-path:url(#SVGID_78_);fill:#FCE0D4;}
	.st39{clip-path:url(#SVGID_80_);fill:#4391C6;}
	.st40{clip-path:url(#SVGID_82_);fill:#0B529C;}
	.st41{clip-path:url(#SVGID_84_);fill:#2272B6;}
	.st42{clip-path:url(#SVGID_86_);fill:#6BAED7;}
	.st43{clip-path:url(#SVGID_88_);fill:#4391C6;}
	.st44{clip-path:url(#SVGID_90_);fill:#DDEBF8;}
	.st45{clip-path:url(#SVGID_92_);fill:#F28F73;}
	.st46{clip-path:url(#SVGID_94_);fill:#ED694E;}
	.st47{clip-path:url(#SVGID_96_);fill:#4391C6;}
	.st48{clip-path:url(#SVGID_98_);fill:#213565;}
	.st49{clip-path:url(#SVGID_100_);fill:#0B529C;}
	.st50{clip-path:url(#SVGID_102_);fill:#FCE0D4;}
	.st51{clip-path:url(#SVGID_104_);fill:#2272B6;}
	.st52{clip-path:url(#SVGID_106_);fill:#0B529C;}
	.st53{clip-path:url(#SVGID_108_);fill:#2272B6;}
	.st54{clip-path:url(#SVGID_110_);fill:#2272B6;}
	.st55{clip-path:url(#SVGID_112_);fill:#0B529C;}
	.st56{clip-path:url(#SVGID_114_);fill:#FCE0D4;}
	.st57{clip-path:url(#SVGID_116_);fill:#6BAED7;}
	.st58{clip-path:url(#SVGID_118_);fill:#2272B6;}
	.st59{clip-path:url(#SVGID_120_);fill:#FCE0D4;}
	.st60{clip-path:url(#SVGID_122_);fill:#9FCAE1;}
	.st61{clip-path:url(#SVGID_124_);fill:#C7DCF0;}
	.st62{clip-path:url(#SVGID_126_);fill:#4391C6;}
	.st63{clip-path:url(#SVGID_128_);fill:#2272B6;}
	.st64{clip-path:url(#SVGID_130_);fill:#E73C2E;}
	.st65{clip-path:url(#SVGID_132_);fill:#9FCAE1;}
	.st66{clip-path:url(#SVGID_134_);fill:#DDEBF8;}
	.st67{clip-path:url(#SVGID_136_);fill:#6BAED7;}
	.st68{clip-path:url(#SVGID_138_);fill:#DDEBF8;}
	.st69{clip-path:url(#SVGID_140_);fill:#9FCAE1;}
	.st70{clip-path:url(#SVGID_142_);fill:#4391C6;}
	.st71{clip-path:url(#SVGID_144_);fill:#6BAED7;}
	.st72{clip-path:url(#SVGID_146_);fill:#6BAED7;}
	.st73{clip-path:url(#SVGID_148_);fill:#ED694E;}
	.st74{clip-path:url(#SVGID_150_);fill:#C7DCF0;}
	.st75{clip-path:url(#SVGID_152_);fill:#4391C6;}
	.st76{clip-path:url(#SVGID_154_);fill:#213565;}
	.st77{clip-path:url(#SVGID_156_);fill:#4391C6;}
	.st78{clip-path:url(#SVGID_158_);fill:#6BAED7;}
	.st79{clip-path:url(#SVGID_160_);fill:#DDEBF8;}
	.st80{clip-path:url(#SVGID_162_);fill:#4391C6;}
	.st81{clip-path:url(#SVGID_164_);fill:#9FCAE1;}
	.st82{clip-path:url(#SVGID_166_);fill:#DDEBF8;}
	.st83{clip-path:url(#SVGID_168_);fill:#DDEBF8;}
	.st84{clip-path:url(#SVGID_170_);fill:#C7DCF0;}
	.st85{clip-path:url(#SVGID_172_);fill:#C7DCF0;}
	.st86{clip-path:url(#SVGID_174_);fill:#DDEBF8;}
	.st87{clip-path:url(#SVGID_176_);fill:#9FCAE1;}
	.st88{clip-path:url(#SVGID_178_);fill:#9FCAE1;}
	.st89{clip-path:url(#SVGID_180_);fill:#9FCAE1;}
	.st90{clip-path:url(#SVGID_182_);fill:#C7DCF0;}
	.st91{clip-path:url(#SVGID_184_);fill:#4391C6;}
	.st92{clip-path:url(#SVGID_186_);fill:#0B529C;}
	.st93{clip-path:url(#SVGID_188_);fill:#4391C6;}
	.st94{clip-path:url(#SVGID_190_);fill:#2272B6;}
	.st95{clip-path:url(#SVGID_192_);fill:#9FCAE1;}
	.st96{clip-path:url(#SVGID_194_);fill:#6BAED7;}
	.st97{clip-path:url(#SVGID_196_);fill:#6BAED7;}
	.st98{clip-path:url(#SVGID_198_);fill:#C7DCF0;}
	.st99{clip-path:url(#SVGID_200_);fill:#9FCAE1;}
	.st100{clip-path:url(#SVGID_202_);fill:#6BAED7;}
	.st101{clip-path:url(#SVGID_204_);fill:#213565;}
	.st102{clip-path:url(#SVGID_206_);fill:#6BAED7;}
	.st103{clip-path:url(#SVGID_208_);fill:#DDEBF8;}
	.st104{clip-path:url(#SVGID_210_);fill:#213565;}
	.st105{clip-path:url(#SVGID_212_);fill:#F8BAA2;}
	.st106{clip-path:url(#SVGID_214_);fill:#0B529C;}
	.st107{clip-path:url(#SVGID_216_);fill:#2272B6;}
	.st108{clip-path:url(#SVGID_218_);fill:#F28F73;}
	.st109{clip-path:url(#SVGID_220_);fill:#6BAED7;}
	.st110{clip-path:url(#SVGID_222_);fill:#ED694E;}
	.st111{clip-path:url(#SVGID_224_);fill:#0B529C;}
	.st112{clip-path:url(#SVGID_226_);fill:#0B529C;}
	.st113{clip-path:url(#SVGID_228_);fill:#ED694E;}
	.st114{clip-path:url(#SVGID_230_);fill:#0B529C;}
	.st115{clip-path:url(#SVGID_232_);fill:#2272B6;}
	.st116{clip-path:url(#SVGID_234_);fill:#2272B6;}
	.st117{clip-path:url(#SVGID_236_);fill:#ED694E;}
	.st118{clip-path:url(#SVGID_238_);fill:#9FCAE1;}
	.st119{clip-path:url(#SVGID_240_);fill:#CC181E;}
	.st120{clip-path:url(#SVGID_242_);fill:#2272B6;}
	.st121{clip-path:url(#SVGID_244_);fill:#2272B6;}
	.st122{clip-path:url(#SVGID_246_);fill:#CC181E;}
	.st123{clip-path:url(#SVGID_248_);fill:#4391C6;}
	.st124{clip-path:url(#SVGID_250_);fill:#A41A18;}
	.st125{enable-background:new    ;}
	.st126{fill:#FFFFFF;}
	.st127{font-family:'Montserrat-Bold';}
	.st128{font-size:119.2425px;}
	.st129{font-size:119.2385px;}
	.st130{font-size:119.2356px;}
	.st131{font-size:119.2374px;}
</style>
<g>
	<g>
		<defs>
			<rect id="SVGID_1_" width="1000" height="1000"/>
		</defs>
		<clipPath id="SVGID_2_">
			<use xlink:href="#SVGID_1_"  style="overflow:visible;"/>
		</clipPath>
		<path class="st0" d="M990.1,500c0,270.7-219.4,490.1-490.1,490.1C229.3,990.1,9.9,770.7,9.9,500C9.9,229.3,229.3,9.9,500,9.9
			C770.7,9.9,990.1,229.3,990.1,500"/>
	</g>
	<g>
		<defs>
			<rect id="SVGID_3_" width="1000" height="1000"/>
		</defs>
		<clipPath id="SVGID_4_">
			<use xlink:href="#SVGID_3_"  style="overflow:visible;"/>
		</clipPath>
		<path class="st1" d="M835,507c0,185-150,335-335,335S165,692,165,507c0-185,150-335,335-335C685,172,835,321.9,835,507"/>
	</g>
</g>
<g>
	<g>
		<defs>
			<path id="SVGID_5_" d="M171.3,498.7C167.1,680.2,310.9,830.8,492.4,835c181.5,4.2,332.1-139.6,336.3-321.1
				c4.2-181.5-139.6-332.1-321.1-336.3c-2.6-0.1-5.1-0.1-7.7-0.1C321.8,177.5,175.4,319.7,171.3,498.7"/>
		</defs>
		<clipPath id="SVGID_6_">
			<use xlink:href="#SVGID_5_"  style="overflow:visible;"/>
		</clipPath>
		<path class="st2" d="M140.1,835.1h-21.5c0-62.9,0-125.8,0-188.8c0-156.3,0-312.6,0-468.8h21.5V835.1z"/>
	</g>
	<g>
		<defs>
			<path id="SVGID_7_" d="M171.3,498.7C167.1,680.2,310.9,830.8,492.4,835c181.5,4.2,332.1-139.6,336.3-321.1
				c4.2-181.5-139.6-332.1-321.1-336.3c-2.6-0.1-5.1-0.1-7.7-0.1C321.8,177.5,175.4,319.7,171.3,498.7"/>
		</defs>
		<clipPath id="SVGID_8_">
			<use xlink:href="#SVGID_7_"  style="overflow:visible;"/>
		</clipPath>
		<path class="st3" d="M514.6,835.1h-17c0-17.5,0-35.1,0-52.6l0-605h17c0,1.8,0,3.7,0,5.5c0,151.3,0,302.6,0,453.9
			C514.6,702.9,514.6,769,514.6,835.1"/>
	</g>
	<g>
		<defs>
			<path id="SVGID_9_" d="M171.3,498.7C167.1,680.2,310.9,830.8,492.4,835c181.5,4.2,332.1-139.6,336.3-321.1
				c4.2-181.5-139.6-332.1-321.1-336.3c-2.6-0.1-5.1-0.1-7.7-0.1C321.8,177.5,175.4,319.7,171.3,498.7"/>
		</defs>
		<clipPath id="SVGID_10_">
			<use xlink:href="#SVGID_9_"  style="overflow:visible;"/>
		</clipPath>
		<path class="st4" d="M378.3,835.1h-17c0-1.1,0-2.2,0-3.3c0-217,0-434,0-651c0-1.1,0-2.2,0-3.3h17c0,1.2,0,2.4,0,3.7
			c0,216.8,0,433.5,0,650.3C378.3,832.7,378.3,833.9,378.3,835.1"/>
	</g>
	<g>
		<defs>
			<path id="SVGID_11_" d="M171.3,498.7C167.1,680.2,310.9,830.8,492.4,835c181.5,4.2,332.1-139.6,336.3-321.1
				c4.2-181.5-139.6-332.1-321.1-336.3c-2.6-0.1-5.1-0.1-7.7-0.1C321.8,177.5,175.4,319.7,171.3,498.7"/>
		</defs>
		<clipPath id="SVGID_12_">
			<use xlink:href="#SVGID_11_"  style="overflow:visible;"/>
		</clipPath>
		<path class="st5" d="M774.3,177.5h13c0,17.3,0,34.6,0,51.8c0,201.9,0,403.8,0,605.8h-13c0-1.7,0-3.4,0-5.1
			c0-190.8,0-381.7,0-572.5C774.3,230.8,774.3,204.2,774.3,177.5"/>
	</g>
	<g>
		<defs>
			<path id="SVGID_13_" d="M171.3,498.7C167.1,680.2,310.9,830.8,492.4,835c181.5,4.2,332.1-139.6,336.3-321.1
				c4.2-181.5-139.6-332.1-321.1-336.3c-2.6-0.1-5.1-0.1-7.7-0.1C321.8,177.5,175.4,319.7,171.3,498.7"/>
		</defs>
		<clipPath id="SVGID_14_">
			<use xlink:href="#SVGID_13_"  style="overflow:visible;"/>
		</clipPath>
		<path class="st6" d="M438.2,835.1h-13c0-103.1,0-206.2,0-309.3c0-116.1,0-232.2,0-348.3h13c0,1.5,0,2.9,0,4.4
			c0,216.3,0,432.6,0,648.8C438.2,832.2,438.2,833.7,438.2,835.1"/>
	</g>
	<g>
		<defs>
			<path id="SVGID_15_" d="M171.3,498.7C167.1,680.2,310.9,830.8,492.4,835c181.5,4.2,332.1-139.6,336.3-321.1
				c4.2-181.5-139.6-332.1-321.1-336.3c-2.6-0.1-5.1-0.1-7.7-0.1C321.8,177.5,175.4,319.7,171.3,498.7"/>
		</defs>
		<clipPath id="SVGID_16_">
			<use xlink:href="#SVGID_15_"  style="overflow:visible;"/>
		</clipPath>
		<path class="st7" d="M204,835.1h-13V177.5h13C204,396.7,204,615.9,204,835.1"/>
	</g>
	<g>
		<defs>
			<path id="SVGID_17_" d="M171.3,498.7C167.1,680.2,310.9,830.8,492.4,835c181.5,4.2,332.1-139.6,336.3-321.1
				c4.2-181.5-139.6-332.1-321.1-336.3c-2.6-0.1-5.1-0.1-7.7-0.1C321.8,177.5,175.4,319.7,171.3,498.7"/>
		</defs>
		<clipPath id="SVGID_18_">
			<use xlink:href="#SVGID_17_"  style="overflow:visible;"/>
		</clipPath>
		<path class="st8" d="M484.7,835.1h-12.5c0-1.7,0-3.4,0-5.1c0-180.1,0-360.3,0-540.4c0-37.4,0-74.7,0-112.1h12.5c0,1.5,0,2.9,0,4.4
			c0,216.3,0,432.6,0,648.8C484.7,832.2,484.7,833.7,484.7,835.1"/>
	</g>
	<g>
		<defs>
			<path id="SVGID_19_" d="M171.3,498.7C167.1,680.2,310.9,830.8,492.4,835c181.5,4.2,332.1-139.6,336.3-321.1
				c4.2-181.5-139.6-332.1-321.1-336.3c-2.6-0.1-5.1-0.1-7.7-0.1C321.8,177.5,175.4,319.7,171.3,498.7"/>
		</defs>
		<clipPath id="SVGID_20_">
			<use xlink:href="#SVGID_19_"  style="overflow:visible;"/>
		</clipPath>
		<path class="st9" d="M608.5,177.5H621c0,22.9,0,45.8,0,68.6c0,196.3,0,392.6,0,589h-12.5c0-1.1,0-2.2,0-3.3v-651
			C608.5,179.7,608.5,178.6,608.5,177.5"/>
	</g>
	<g>
		<defs>
			<path id="SVGID_21_" d="M171.3,498.7C167.1,680.2,310.9,830.8,492.4,835c181.5,4.2,332.1-139.6,336.3-321.1
				c4.2-181.5-139.6-332.1-321.1-336.3c-2.6-0.1-5.1-0.1-7.7-0.1C321.8,177.5,175.4,319.7,171.3,498.7"/>
		</defs>
		<clipPath id="SVGID_22_">
			<use xlink:href="#SVGID_21_"  style="overflow:visible;"/>
		</clipPath>
		<path class="st10" d="M697.4,177.5h8.9c0,117.9,0,235.8,0,353.6c0,101.3,0,202.6,0,304h-8.5c0-44.4,0.1-88.9,0-133.3
			c-0.1-44.4,0.4-88.8-0.3-133.2c-0.3-20.3,0.1-40.6,0.2-60.9c0.4-42.8,0.2-85.7,0.1-128.5c-0.1-42.9,0.5-85.9-0.3-128.8
			c-0.3-18.6-0.1-37.2-0.1-55.9c0-1.2,0-2.4,0.2-3.6C698,186.4,698.1,181.9,697.4,177.5"/>
	</g>
	<g>
		<defs>
			<path id="SVGID_23_" d="M171.3,498.7C167.1,680.2,310.9,830.8,492.4,835c181.5,4.2,332.1-139.6,336.3-321.1
				c4.2-181.5-139.6-332.1-321.1-336.3c-2.6-0.1-5.1-0.1-7.7-0.1C321.8,177.5,175.4,319.7,171.3,498.7"/>
		</defs>
		<clipPath id="SVGID_24_">
			<use xlink:href="#SVGID_23_"  style="overflow:visible;"/>
		</clipPath>
		<path class="st11" d="M816.7,177.5h8.5c0,1.5,0,2.9,0,4.4c0,170.9,0,341.8,0,512.7c0,46.9,0,93.7,0,140.6h-8.5c0-1.5,0-2.9,0-4.4
			c0-216.3,0-432.6,0-648.8C816.8,180.4,816.8,179,816.7,177.5"/>
	</g>
	<g>
		<defs>
			<path id="SVGID_25_" d="M171.3,498.7C167.1,680.2,310.9,830.8,492.4,835c181.5,4.2,332.1-139.6,336.3-321.1
				c4.2-181.5-139.6-332.1-321.1-336.3c-2.6-0.1-5.1-0.1-7.7-0.1C321.8,177.5,175.4,319.7,171.3,498.7"/>
		</defs>
		<clipPath id="SVGID_26_">
			<use xlink:href="#SVGID_25_"  style="overflow:visible;"/>
		</clipPath>
		<path class="st12" d="M557.1,177.5h8.5c0,1.7,0,3.4,0,5.1c0,180,0,360,0,540c0,37.5,0,75,0,112.5h-8.5c0-1.6,0-3.2,0-4.7
			c0-216,0-432.1,0-648.1C557.1,180.7,557.1,179.1,557.1,177.5"/>
	</g>
	<g>
		<defs>
			<path id="SVGID_27_" d="M171.3,498.7C167.1,680.2,310.9,830.8,492.4,835c181.5,4.2,332.1-139.6,336.3-321.1
				c4.2-181.5-139.6-332.1-321.1-336.3c-2.6-0.1-5.1-0.1-7.7-0.1C321.8,177.5,175.4,319.7,171.3,498.7"/>
		</defs>
		<clipPath id="SVGID_28_">
			<use xlink:href="#SVGID_27_"  style="overflow:visible;"/>
		</clipPath>
		<path class="st13" d="M187,835.1h-8.5c0-1.6,0-3.2,0-4.7c0-216,0-432.1,0-648.1c0-1.6,0-3.2,0-4.7h8.5
			C187,396.7,187,615.9,187,835.1"/>
	</g>
	<g>
		<defs>
			<path id="SVGID_29_" d="M171.3,498.7C167.1,680.2,310.9,830.8,492.4,835c181.5,4.2,332.1-139.6,336.3-321.1
				c4.2-181.5-139.6-332.1-321.1-336.3c-2.6-0.1-5.1-0.1-7.7-0.1C321.8,177.5,175.4,319.7,171.3,498.7"/>
		</defs>
		<clipPath id="SVGID_30_">
			<use xlink:href="#SVGID_29_"  style="overflow:visible;"/>
		</clipPath>
		<path class="st14" d="M812.7,835.1h-8.5c0-1.7,0-3.4,0-5.1c0-215.8,0-431.6,0-647.4c0-1.7,0-3.4,0-5.1h8.5c0,116,0,232,0,348
			C812.7,628.7,812.7,731.9,812.7,835.1"/>
	</g>
	<g>
		<defs>
			<path id="SVGID_31_" d="M171.3,498.7C167.1,680.2,310.9,830.8,492.4,835c181.5,4.2,332.1-139.6,336.3-321.1
				c4.2-181.5-139.6-332.1-321.1-336.3c-2.6-0.1-5.1-0.1-7.7-0.1C321.8,177.5,175.4,319.7,171.3,498.7"/>
		</defs>
		<clipPath id="SVGID_32_">
			<use xlink:href="#SVGID_31_"  style="overflow:visible;"/>
		</clipPath>
		<path class="st15" d="M378.3,835.1c0-1.2,0-2.4,0-3.7c0-216.8,0-433.5,0-650.3c0-1.2,0-2.4,0-3.7h8.5c0,1.5,0,2.9,0,4.4
			c0,216.3,0,432.6,0,648.8c0,1.5,0,2.9,0,4.4L378.3,835.1L378.3,835.1z"/>
	</g>
	<g>
		<defs>
			<path id="SVGID_33_" d="M171.3,498.7C167.1,680.2,310.9,830.8,492.4,835c181.5,4.2,332.1-139.6,336.3-321.1
				c4.2-181.5-139.6-332.1-321.1-336.3c-2.6-0.1-5.1-0.1-7.7-0.1C321.8,177.5,175.4,319.7,171.3,498.7"/>
		</defs>
		<clipPath id="SVGID_34_">
			<use xlink:href="#SVGID_33_"  style="overflow:visible;"/>
		</clipPath>
		<path class="st16" d="M621,835.1c0-196.3,0-392.6,0-589c0-22.9,0-45.8,0-68.6h8.5c0,1.5,0,2.9,0,4.4c0,216.3,0,432.6,0,648.8
			c0,1.5,0,2.9,0,4.4H621z"/>
	</g>
	<g>
		<defs>
			<path id="SVGID_35_" d="M171.3,498.7C167.1,680.2,310.9,830.8,492.4,835c181.5,4.2,332.1-139.6,336.3-321.1
				c4.2-181.5-139.6-332.1-321.1-336.3c-2.6-0.1-5.1-0.1-7.7-0.1C321.8,177.5,175.4,319.7,171.3,498.7"/>
		</defs>
		<clipPath id="SVGID_36_">
			<use xlink:href="#SVGID_35_"  style="overflow:visible;"/>
		</clipPath>
		<path class="st17" d="M527.6,177.5h8.5c0,219.2,0,438.4,0,657.6h-8.5c0-75.9,0-151.9,0-227.8C527.6,464,527.6,320.8,527.6,177.5"
			/>
	</g>
	<g>
		<defs>
			<path id="SVGID_37_" d="M171.3,498.7C167.1,680.2,310.9,830.8,492.4,835c181.5,4.2,332.1-139.6,336.3-321.1
				c4.2-181.5-139.6-332.1-321.1-336.3c-2.6-0.1-5.1-0.1-7.7-0.1C321.8,177.5,175.4,319.7,171.3,498.7"/>
		</defs>
		<clipPath id="SVGID_38_">
			<use xlink:href="#SVGID_37_"  style="overflow:visible;"/>
		</clipPath>
		<path class="st18" d="M221,835.1h-8.5c0-103.2,0-206.4,0-309.6c0-116,0-232,0-348h8.5c0,65.1,0,130.2,0,195.3
			C221,527,221,681,221,835.1"/>
	</g>
	<g>
		<defs>
			<path id="SVGID_39_" d="M171.3,498.7C167.1,680.2,310.9,830.8,492.4,835c181.5,4.2,332.1-139.6,336.3-321.1
				c4.2-181.5-139.6-332.1-321.1-336.3c-2.6-0.1-5.1-0.1-7.7-0.1C321.8,177.5,175.4,319.7,171.3,498.7"/>
		</defs>
		<clipPath id="SVGID_40_">
			<use xlink:href="#SVGID_39_"  style="overflow:visible;"/>
		</clipPath>
		<path class="st19" d="M221,835.1c0-154.1,0-308.2,0-462.3c0-65.1,0-130.2,0-195.3h8.5c0,1.5-0.1,2.9-0.1,4.4
			c0,216.3,0,432.6,0,648.9c0,1.5,0,2.9,0.1,4.4H221z"/>
	</g>
	<g>
		<defs>
			<path id="SVGID_41_" d="M171.3,498.7C167.1,680.2,310.9,830.8,492.4,835c181.5,4.2,332.1-139.6,336.3-321.1
				c4.2-181.5-139.6-332.1-321.1-336.3c-2.6-0.1-5.1-0.1-7.7-0.1C321.8,177.5,175.4,319.7,171.3,498.7"/>
		</defs>
		<clipPath id="SVGID_42_">
			<use xlink:href="#SVGID_41_"  style="overflow:visible;"/>
		</clipPath>
		<path class="st20" d="M484.7,835.1c0-1.5,0-2.9,0-4.4c0-216.3,0-432.6,0-648.8c0-1.5,0-2.9,0-4.4h8.5c0,14.9,0,29.7,0,44.6
			c0,204.3,0,408.7,0,613H484.7z"/>
	</g>
	<g>
		<defs>
			<path id="SVGID_43_" d="M171.3,498.7C167.1,680.2,310.9,830.8,492.4,835c181.5,4.2,332.1-139.6,336.3-321.1
				c4.2-181.5-139.6-332.1-321.1-336.3c-2.6-0.1-5.1-0.1-7.7-0.1C321.8,177.5,175.4,319.7,171.3,498.7"/>
		</defs>
		<clipPath id="SVGID_44_">
			<use xlink:href="#SVGID_43_"  style="overflow:visible;"/>
		</clipPath>
		<path class="st21" d="M663.5,177.5h8.5c0,66,0,132,0,198c0,153.2,0,306.4,0,459.6h-8.5c0-1.3,0-2.7,0-4c0-216.5,0-433.1,0-649.6
			C663.5,180.2,663.5,178.9,663.5,177.5"/>
	</g>
	<g>
		<defs>
			<path id="SVGID_45_" d="M171.3,498.7C167.1,680.2,310.9,830.8,492.4,835c181.5,4.2,332.1-139.6,336.3-321.1
				c4.2-181.5-139.6-332.1-321.1-336.3c-2.6-0.1-5.1-0.1-7.7-0.1C321.8,177.5,175.4,319.7,171.3,498.7"/>
		</defs>
		<clipPath id="SVGID_46_">
			<use xlink:href="#SVGID_45_"  style="overflow:visible;"/>
		</clipPath>
		<path class="st22" d="M238,177.5h8.5c0,65.2,0,130.5,0,195.7c0,154,0,307.9,0,461.9H238c0-1.5,0-2.9,0-4.4
			c0-216.3,0-432.6,0-648.9C237.9,180.4,238,179,238,177.5"/>
	</g>
	<g>
		<defs>
			<path id="SVGID_47_" d="M171.3,498.7C167.1,680.2,310.9,830.8,492.4,835c181.5,4.2,332.1-139.6,336.3-321.1
				c4.2-181.5-139.6-332.1-321.1-336.3c-2.6-0.1-5.1-0.1-7.7-0.1C321.8,177.5,175.4,319.7,171.3,498.7"/>
		</defs>
		<clipPath id="SVGID_48_">
			<use xlink:href="#SVGID_47_"  style="overflow:visible;"/>
		</clipPath>
		<path class="st23" d="M450.7,835.1h-8.5c0-1.2,0-2.4,0-3.7c0-216.8,0-433.5,0-650.3c0-1.2,0-2.4,0-3.7h8.5c0,1.5,0,2.9,0,4.4
			c0,216.3,0,432.6,0,648.8C450.7,832.2,450.7,833.7,450.7,835.1"/>
	</g>
	<g>
		<defs>
			<path id="SVGID_49_" d="M171.3,498.7C167.1,680.2,310.9,830.8,492.4,835c181.5,4.2,332.1-139.6,336.3-321.1
				c4.2-181.5-139.6-332.1-321.1-336.3c-2.6-0.1-5.1-0.1-7.7-0.1C321.8,177.5,175.4,319.7,171.3,498.7"/>
		</defs>
		<clipPath id="SVGID_50_">
			<use xlink:href="#SVGID_49_"  style="overflow:visible;"/>
		</clipPath>
		<path class="st24" d="M250.9,177.5c2.8,0,5.7,0,8.5,0c0,1.5,0,2.9,0,4.4c0,216.3,0,432.6,0,648.8c0,1.5,0,2.9,0,4.4H251
			c0-120.5,0-241,0-361.5C250.9,374.9,250.9,276.2,250.9,177.5"/>
	</g>
	<g>
		<defs>
			<path id="SVGID_51_" d="M171.3,498.7C167.1,680.2,310.9,830.8,492.4,835c181.5,4.2,332.1-139.6,336.3-321.1
				c4.2-181.5-139.6-332.1-321.1-336.3c-2.6-0.1-5.1-0.1-7.7-0.1C321.8,177.5,175.4,319.7,171.3,498.7"/>
		</defs>
		<clipPath id="SVGID_52_">
			<use xlink:href="#SVGID_51_"  style="overflow:visible;"/>
		</clipPath>
		<path class="st25" d="M259.4,835.1c0-1.5,0-2.9,0-4.4c0-216.3,0-432.6,0-648.8c0-1.5,0-2.9,0-4.4h8.5v657.6L259.4,835.1
			L259.4,835.1z"/>
	</g>
	<g>
		<defs>
			<path id="SVGID_53_" d="M171.3,498.7C167.1,680.2,310.9,830.8,492.4,835c181.5,4.2,332.1-139.6,336.3-321.1
				c4.2-181.5-139.6-332.1-321.1-336.3c-2.6-0.1-5.1-0.1-7.7-0.1C321.8,177.5,175.4,319.7,171.3,498.7"/>
		</defs>
		<clipPath id="SVGID_54_">
			<use xlink:href="#SVGID_53_"  style="overflow:visible;"/>
		</clipPath>
		<path class="st26" d="M693.4,835.1h-8.5c0-1.3,0-2.7,0-4V181.5c0-1.3,0-2.7,0-4h8.5V835.1z"/>
	</g>
	<g>
		<defs>
			<path id="SVGID_55_" d="M171.3,498.7C167.1,680.2,310.9,830.8,492.4,835c181.5,4.2,332.1-139.6,336.3-321.1
				c4.2-181.5-139.6-332.1-321.1-336.3c-2.6-0.1-5.1-0.1-7.7-0.1C321.8,177.5,175.4,319.7,171.3,498.7"/>
		</defs>
		<clipPath id="SVGID_56_">
			<use xlink:href="#SVGID_55_"  style="overflow:visible;"/>
		</clipPath>
		<path class="st27" d="M416.8,835.1h-8.5c0-103.1,0-206.2,0-309.3c0-116.1,0-232.2,0-348.3h8.5c0,1.8,0,3.7,0,5.5
			c0,205.4,0,410.9,0,616.3C416.7,811.3,416.8,823.2,416.8,835.1"/>
	</g>
	<g>
		<defs>
			<path id="SVGID_57_" d="M171.3,498.7C167.1,680.2,310.9,830.8,492.4,835c181.5,4.2,332.1-139.6,336.3-321.1
				c4.2-181.5-139.6-332.1-321.1-336.3c-2.6-0.1-5.1-0.1-7.7-0.1C321.8,177.5,175.4,319.7,171.3,498.7"/>
		</defs>
		<clipPath id="SVGID_58_">
			<use xlink:href="#SVGID_57_"  style="overflow:visible;"/>
		</clipPath>
		<path class="st28" d="M595.5,835.1H587c0-78.3,0-156.5,0-234.8c0-140.9,0-281.9,0-422.8h8.5V835.1z"/>
	</g>
	<g>
		<defs>
			<path id="SVGID_59_" d="M171.3,498.7C167.1,680.2,310.9,830.8,492.4,835c181.5,4.2,332.1-139.6,336.3-321.1
				c4.2-181.5-139.6-332.1-321.1-336.3c-2.6-0.1-5.1-0.1-7.7-0.1C321.8,177.5,175.4,319.7,171.3,498.7"/>
		</defs>
		<clipPath id="SVGID_60_">
			<use xlink:href="#SVGID_59_"  style="overflow:visible;"/>
		</clipPath>
		<path class="st29" d="M731.8,835.1h-8.5c0-2.1,0-4.1,0-6.2c0-176.4,0-352.7,0-529.1c0-40.8,0-81.5,0-122.3h8.5c0,1.6,0,3.2,0,4.7
			c0,216,0,432.1,0,648.1C731.8,832,731.8,833.5,731.8,835.1"/>
	</g>
	<g>
		<defs>
			<path id="SVGID_61_" d="M171.3,498.7C167.1,680.2,310.9,830.8,492.4,835c181.5,4.2,332.1-139.6,336.3-321.1
				c4.2-181.5-139.6-332.1-321.1-336.3c-2.6-0.1-5.1-0.1-7.7-0.1C321.8,177.5,175.4,319.7,171.3,498.7"/>
		</defs>
		<clipPath id="SVGID_62_">
			<use xlink:href="#SVGID_61_"  style="overflow:visible;"/>
		</clipPath>
		<path class="st30" d="M769.8,835.1h-8.5c0-26.2,0-52.3,0-78.5c0-193,0-386.1,0-579.1h8.5c0,1.6,0,3.2,0,4.7v572.9
			C769.8,781.8,769.8,808.5,769.8,835.1"/>
	</g>
	<g>
		<defs>
			<path id="SVGID_63_" d="M171.3,498.7C167.1,680.2,310.9,830.8,492.4,835c181.5,4.2,332.1-139.6,336.3-321.1
				c4.2-181.5-139.6-332.1-321.1-336.3c-2.6-0.1-5.1-0.1-7.7-0.1C321.8,177.5,175.4,319.7,171.3,498.7"/>
		</defs>
		<clipPath id="SVGID_64_">
			<use xlink:href="#SVGID_63_"  style="overflow:visible;"/>
		</clipPath>
		<path class="st31" d="M348.8,835.1h-8.5c0-1.2,0-2.4,0-3.7c0-216.8,0-433.5,0-650.3c0-1.2,0-2.4,0-3.7h8.5c0,1.5,0,2.9,0,4.4
			c0,216.3,0,432.6,0,648.8C348.8,832.2,348.8,833.7,348.8,835.1"/>
	</g>
	<g>
		<defs>
			<path id="SVGID_65_" d="M171.3,498.7C167.1,680.2,310.9,830.8,492.4,835c181.5,4.2,332.1-139.6,336.3-321.1
				c4.2-181.5-139.6-332.1-321.1-336.3c-2.6-0.1-5.1-0.1-7.7-0.1C321.8,177.5,175.4,319.7,171.3,498.7"/>
		</defs>
		<clipPath id="SVGID_66_">
			<use xlink:href="#SVGID_65_"  style="overflow:visible;"/>
		</clipPath>
		<path class="st32" d="M748.8,177.5h8.5c0,20,0,39.9,0,59.9c0,199.2,0,398.5,0,597.7h-8.5c0-1.5,0-2.9,0-4.4
			c0-216.3,0-432.6,0-648.8C748.8,180.4,748.8,179,748.8,177.5"/>
	</g>
	<g>
		<defs>
			<path id="SVGID_67_" d="M171.3,498.7C167.1,680.2,310.9,830.8,492.4,835c181.5,4.2,332.1-139.6,336.3-321.1
				c4.2-181.5-139.6-332.1-321.1-336.3c-2.6-0.1-5.1-0.1-7.7-0.1C321.8,177.5,175.4,319.7,171.3,498.7"/>
		</defs>
		<clipPath id="SVGID_68_">
			<use xlink:href="#SVGID_67_"  style="overflow:visible;"/>
		</clipPath>
		<path class="st33" d="M318.9,835.1h-8.5c0-1.6,0-3.2,0-4.7c0-216,0-432.1,0-648.1c0-1.6,0-3.2,0-4.7h8.5c0,1.6,0,3.2,0,4.7
			c0,216,0,432.1,0,648.1C318.8,832,318.9,833.5,318.9,835.1"/>
	</g>
	<g>
		<defs>
			<path id="SVGID_69_" d="M171.3,498.7C167.1,680.2,310.9,830.8,492.4,835c181.5,4.2,332.1-139.6,336.3-321.1
				c4.2-181.5-139.6-332.1-321.1-336.3c-2.6-0.1-5.1-0.1-7.7-0.1C321.8,177.5,175.4,319.7,171.3,498.7"/>
		</defs>
		<clipPath id="SVGID_70_">
			<use xlink:href="#SVGID_69_"  style="overflow:visible;"/>
		</clipPath>
		<path class="st34" d="M310.4,177.5c0,1.6,0,3.2,0,4.7c0,216,0,432.1,0,648.1c0,1.6,0,3.2,0,4.7h-8.5c0-1.1,0-2.2,0-3.3
			c0-217,0-434,0-651c0-1.1,0-2.2,0-3.3L310.4,177.5L310.4,177.5z"/>
	</g>
	<g>
		<defs>
			<path id="SVGID_71_" d="M171.3,498.7C167.1,680.2,310.9,830.8,492.4,835c181.5,4.2,332.1-139.6,336.3-321.1
				c4.2-181.5-139.6-332.1-321.1-336.3c-2.6-0.1-5.1-0.1-7.7-0.1C321.8,177.5,175.4,319.7,171.3,498.7"/>
		</defs>
		<clipPath id="SVGID_72_">
			<use xlink:href="#SVGID_71_"  style="overflow:visible;"/>
		</clipPath>
		<path class="st35" d="M301.9,177.5c0,1.1,0,2.2,0,3.3c0,217,0,434,0,651c0,1.1,0,2.2,0,3.3h-4.5c0-1.6,0-3.2,0-4.7
			c0-194.4,0-388.7,0-583.1c0-23.2,0-46.5,0-69.7L301.9,177.5L301.9,177.5z"/>
	</g>
	<g>
		<defs>
			<path id="SVGID_73_" d="M171.3,498.7C167.1,680.2,310.9,830.8,492.4,835c181.5,4.2,332.1-139.6,336.3-321.1
				c4.2-181.5-139.6-332.1-321.1-336.3c-2.6-0.1-5.1-0.1-7.7-0.1C321.8,177.5,175.4,319.7,171.3,498.7"/>
		</defs>
		<clipPath id="SVGID_74_">
			<use xlink:href="#SVGID_73_"  style="overflow:visible;"/>
		</clipPath>
		<path class="st36" d="M748.8,177.5c0,1.5,0,2.9,0,4.4c0,216.3,0,432.6,0,648.8c0,1.5,0,2.9,0,4.4h-4.5c0-1.7,0-3.4,0-5.1
			c0-215.8,0-431.6,0-647.4c0-1.7,0-3.4,0-5.1L748.8,177.5L748.8,177.5z"/>
	</g>
	<g>
		<defs>
			<path id="SVGID_75_" d="M171.3,498.7C167.1,680.2,310.9,830.8,492.4,835c181.5,4.2,332.1-139.6,336.3-321.1
				c4.2-181.5-139.6-332.1-321.1-336.3c-2.6-0.1-5.1-0.1-7.7-0.1C321.8,177.5,175.4,319.7,171.3,498.7"/>
		</defs>
		<clipPath id="SVGID_76_">
			<use xlink:href="#SVGID_75_"  style="overflow:visible;"/>
		</clipPath>
		<path class="st37" d="M322.9,177.5h4.5c0,219.2,0,438.4,0,657.6h-4.5c0-1.5,0-2.9,0-4.4c0-216.3,0-432.6,0-648.8
			C322.9,180.4,322.9,179,322.9,177.5"/>
	</g>
	<g>
		<defs>
			<path id="SVGID_77_" d="M171.3,498.7C167.1,680.2,310.9,830.8,492.4,835c181.5,4.2,332.1-139.6,336.3-321.1
				c4.2-181.5-139.6-332.1-321.1-336.3c-2.6-0.1-5.1-0.1-7.7-0.1C321.8,177.5,175.4,319.7,171.3,498.7"/>
		</defs>
		<clipPath id="SVGID_78_">
			<use xlink:href="#SVGID_77_"  style="overflow:visible;"/>
		</clipPath>
		<path class="st38" d="M735.9,177.5h4.5c0,1.5-0.1,2.9-0.1,4.4c0,216.3,0,432.6,0,648.9c0,1.5,0,2.9,0.1,4.4h-4.5
			c0-1.6,0-3.2,0-4.7c0-216,0-432.1,0-648.1C735.9,180.7,735.9,179.1,735.9,177.5"/>
	</g>
	<g>
		<defs>
			<path id="SVGID_79_" d="M171.3,498.7C167.1,680.2,310.9,830.8,492.4,835c181.5,4.2,332.1-139.6,336.3-321.1
				c4.2-181.5-139.6-332.1-321.1-336.3c-2.6-0.1-5.1-0.1-7.7-0.1C321.8,177.5,175.4,319.7,171.3,498.7"/>
		</defs>
		<clipPath id="SVGID_80_">
			<use xlink:href="#SVGID_79_"  style="overflow:visible;"/>
		</clipPath>
		<path class="st39" d="M335.9,835.1h-4.5V177.5h4.5c0,1.5,0,2.9,0,4.4c0,216.3,0,432.6,0,648.8
			C335.8,832.2,335.9,833.7,335.9,835.1"/>
	</g>
	<g>
		<defs>
			<path id="SVGID_81_" d="M171.3,498.7C167.1,680.2,310.9,830.8,492.4,835c181.5,4.2,332.1-139.6,336.3-321.1
				c4.2-181.5-139.6-332.1-321.1-336.3c-2.6-0.1-5.1-0.1-7.7-0.1C321.8,177.5,175.4,319.7,171.3,498.7"/>
		</defs>
		<clipPath id="SVGID_82_">
			<use xlink:href="#SVGID_81_"  style="overflow:visible;"/>
		</clipPath>
		<path class="st40" d="M335.9,835.1c0-1.5,0-2.9,0-4.4c0-216.3,0-432.6,0-648.8c0-1.5,0-2.9,0-4.4h4.5c0,1.2,0,2.4,0,3.7
			c0,216.8,0,433.5,0,650.3c0,1.2,0,2.4,0,3.7L335.9,835.1L335.9,835.1z"/>
	</g>
	<g>
		<defs>
			<path id="SVGID_83_" d="M171.3,498.7C167.1,680.2,310.9,830.8,492.4,835c181.5,4.2,332.1-139.6,336.3-321.1
				c4.2-181.5-139.6-332.1-321.1-336.3c-2.6-0.1-5.1-0.1-7.7-0.1C321.8,177.5,175.4,319.7,171.3,498.7"/>
		</defs>
		<clipPath id="SVGID_84_">
			<use xlink:href="#SVGID_83_"  style="overflow:visible;"/>
		</clipPath>
		<path class="st41" d="M293.4,835.1h-4.5c0-137.8,0-275.6,0-413.3c0-81.4,0-162.9,0-244.3h4.5V835.1z"/>
	</g>
	<g>
		<defs>
			<path id="SVGID_85_" d="M171.3,498.7C167.1,680.2,310.9,830.8,492.4,835c181.5,4.2,332.1-139.6,336.3-321.1
				c4.2-181.5-139.6-332.1-321.1-336.3c-2.6-0.1-5.1-0.1-7.7-0.1C321.8,177.5,175.4,319.7,171.3,498.7"/>
		</defs>
		<clipPath id="SVGID_86_">
			<use xlink:href="#SVGID_85_"  style="overflow:visible;"/>
		</clipPath>
		<path class="st42" d="M280.4,177.5h4.5c0,1.6,0,3.2,0,4.7c0,216,0,432.1,0,648.1c0,1.6,0,3.2,0,4.7h-4.5c0-1.5,0-2.9,0-4.4
			c0-216.3,0-432.6,0-648.8C280.5,180.4,280.5,179,280.4,177.5"/>
	</g>
	<g>
		<defs>
			<path id="SVGID_87_" d="M171.3,498.7C167.1,680.2,310.9,830.8,492.4,835c181.5,4.2,332.1-139.6,336.3-321.1
				c4.2-181.5-139.6-332.1-321.1-336.3c-2.6-0.1-5.1-0.1-7.7-0.1C321.8,177.5,175.4,319.7,171.3,498.7"/>
		</defs>
		<clipPath id="SVGID_88_">
			<use xlink:href="#SVGID_87_"  style="overflow:visible;"/>
		</clipPath>
		<path class="st43" d="M352.8,177.5h4.5c0,1.5,0,2.9,0,4.4c0,216.3,0,432.6,0,648.8c0,1.5,0,2.9,0,4.4h-4.5
			c0-141.8,0-283.6,0-425.4C352.9,332.3,352.8,254.9,352.8,177.5"/>
	</g>
	<g>
		<defs>
			<path id="SVGID_89_" d="M171.3,498.7C167.1,680.2,310.9,830.8,492.4,835c181.5,4.2,332.1-139.6,336.3-321.1
				c4.2-181.5-139.6-332.1-321.1-336.3c-2.6-0.1-5.1-0.1-7.7-0.1C321.8,177.5,175.4,319.7,171.3,498.7"/>
		</defs>
		<clipPath id="SVGID_90_">
			<use xlink:href="#SVGID_89_"  style="overflow:visible;"/>
		</clipPath>
		<path class="st44" d="M723.3,177.5c0,40.8,0,81.5,0,122.3c0,176.4,0,352.7,0,529.1c0,2.1,0,4.1,0,6.2h-4.5c0-1.5,0-2.9,0-4.4
			c0-216.3,0-432.6,0-648.8c0-1.5,0-2.9,0-4.4L723.3,177.5L723.3,177.5z"/>
	</g>
	<g>
		<defs>
			<path id="SVGID_91_" d="M171.3,498.7C167.1,680.2,310.9,830.8,492.4,835c181.5,4.2,332.1-139.6,336.3-321.1
				c4.2-181.5-139.6-332.1-321.1-336.3c-2.6-0.1-5.1-0.1-7.7-0.1C321.8,177.5,175.4,319.7,171.3,498.7"/>
		</defs>
		<clipPath id="SVGID_92_">
			<use xlink:href="#SVGID_91_"  style="overflow:visible;"/>
		</clipPath>
		<path class="st45" d="M710.4,177.5h4.5c0,1.2,0,2.4,0,3.7c0,216.8,0,433.5,0,650.3c0,1.2,0,2.4,0,3.7h-4.5c0-1.5,0.1-2.9,0.1-4.4
			c0-216.3,0-432.6,0-648.9C710.4,180.4,710.4,179,710.4,177.5"/>
	</g>
	<g>
		<defs>
			<path id="SVGID_93_" d="M171.3,498.7C167.1,680.2,310.9,830.8,492.4,835c181.5,4.2,332.1-139.6,336.3-321.1
				c4.2-181.5-139.6-332.1-321.1-336.3c-2.6-0.1-5.1-0.1-7.7-0.1C321.8,177.5,175.4,319.7,171.3,498.7"/>
		</defs>
		<clipPath id="SVGID_94_">
			<use xlink:href="#SVGID_93_"  style="overflow:visible;"/>
		</clipPath>
		<path class="st46" d="M769.8,835.1c0-26.7,0-53.3,0-80V182.3c0-1.6,0-3.2,0-4.7h4.5c0,26.7,0,53.3,0,80c0,190.8,0,381.7,0,572.5
			c0,1.7,0,3.4,0,5.1H769.8z"/>
	</g>
	<g>
		<defs>
			<path id="SVGID_95_" d="M171.3,498.7C167.1,680.2,310.9,830.8,492.4,835c181.5,4.2,332.1-139.6,336.3-321.1
				c4.2-181.5-139.6-332.1-321.1-336.3c-2.6-0.1-5.1-0.1-7.7-0.1C321.8,177.5,175.4,319.7,171.3,498.7"/>
		</defs>
		<clipPath id="SVGID_96_">
			<use xlink:href="#SVGID_95_"  style="overflow:visible;"/>
		</clipPath>
		<path class="st47" d="M386.8,835.1c0-1.5,0-2.9,0-4.4c0-216.3,0-432.6,0-648.8c0-1.5,0-2.9,0-4.4h4.5c0,1.8,0,3.7,0,5.5
			c0,205.4,0,410.9,0,616.3c0,11.9,0,23.9,0,35.8L386.8,835.1L386.8,835.1z"/>
	</g>
	<g>
		<defs>
			<path id="SVGID_97_" d="M171.3,498.7C167.1,680.2,310.9,830.8,492.4,835c181.5,4.2,332.1-139.6,336.3-321.1
				c4.2-181.5-139.6-332.1-321.1-336.3c-2.6-0.1-5.1-0.1-7.7-0.1C321.8,177.5,175.4,319.7,171.3,498.7"/>
		</defs>
		<clipPath id="SVGID_98_">
			<use xlink:href="#SVGID_97_"  style="overflow:visible;"/>
		</clipPath>
		<path class="st48" d="M165.6,177.5h4.5c0,1.6,0,3.2,0,4.7c0,216,0,432.1,0,648.1c0,1.6,0,3.2,0,4.7h-4.5c0-1.6,0-3.2,0-4.7
			c0-194.5,0-389,0-583.5C165.6,223.8,165.6,200.6,165.6,177.5"/>
	</g>
	<g>
		<defs>
			<path id="SVGID_99_" d="M171.3,498.7C167.1,680.2,310.9,830.8,492.4,835c181.5,4.2,332.1-139.6,336.3-321.1
				c4.2-181.5-139.6-332.1-321.1-336.3c-2.6-0.1-5.1-0.1-7.7-0.1C321.8,177.5,175.4,319.7,171.3,498.7"/>
		</defs>
		<clipPath id="SVGID_100_">
			<use xlink:href="#SVGID_99_"  style="overflow:visible;"/>
		</clipPath>
		<path class="st49" d="M399.8,835.1h-4.5c0-1.6,0-3.2,0-4.7c0-216,0-432.1,0-648.1c0-1.6,0-3.2,0-4.7h4.5c0,1.2,0,2.4,0,3.7
			c0,216.8,0,433.5,0,650.3C399.8,832.7,399.8,833.9,399.8,835.1"/>
	</g>
	<g>
		<defs>
			<path id="SVGID_101_" d="M171.3,498.7C167.1,680.2,310.9,830.8,492.4,835c181.5,4.2,332.1-139.6,336.3-321.1
				c4.2-181.5-139.6-332.1-321.1-336.3c-2.6-0.1-5.1-0.1-7.7-0.1C321.8,177.5,175.4,319.7,171.3,498.7"/>
		</defs>
		<clipPath id="SVGID_102_">
			<use xlink:href="#SVGID_101_"  style="overflow:visible;"/>
		</clipPath>
		<path class="st50" d="M514.6,835.1c0-66.1,0-132.2,0-198.3c0-151.3,0-302.6,0-453.9c0-1.8,0-3.7,0-5.5h4.5c0,99.3,0,198.6,0,298
			c0,119.9,0,239.8,0,359.7H514.6z"/>
	</g>
	<g>
		<defs>
			<path id="SVGID_103_" d="M171.3,498.7C167.1,680.2,310.9,830.8,492.4,835c181.5,4.2,332.1-139.6,336.3-321.1
				c4.2-181.5-139.6-332.1-321.1-336.3c-2.6-0.1-5.1-0.1-7.7-0.1C321.8,177.5,175.4,319.7,171.3,498.7"/>
		</defs>
		<clipPath id="SVGID_104_">
			<use xlink:href="#SVGID_103_"  style="overflow:visible;"/>
		</clipPath>
		<path class="st51" d="M408.3,177.5c0,116.1,0,232.2,0,348.3c0,103.1,0,206.2,0,309.3h-4.5c0-1.5,0-2.9,0-4.4
			c0-216.3,0-432.6,0-648.8c0-1.5,0-2.9,0-4.4H408.3z"/>
	</g>
	<g>
		<defs>
			<path id="SVGID_105_" d="M171.3,498.7C167.1,680.2,310.9,830.8,492.4,835c181.5,4.2,332.1-139.6,336.3-321.1
				c4.2-181.5-139.6-332.1-321.1-336.3c-2.6-0.1-5.1-0.1-7.7-0.1C321.8,177.5,175.4,319.7,171.3,498.7"/>
		</defs>
		<clipPath id="SVGID_106_">
			<use xlink:href="#SVGID_105_"  style="overflow:visible;"/>
		</clipPath>
		<path class="st52" d="M272,177.5h4.5c0,124.2,0,248.4,0,372.6c0,95,0,190,0,285H272C272,615.9,272,396.7,272,177.5"/>
	</g>
	<g>
		<defs>
			<path id="SVGID_107_" d="M171.3,498.7C167.1,680.2,310.9,830.8,492.4,835c181.5,4.2,332.1-139.6,336.3-321.1
				c4.2-181.5-139.6-332.1-321.1-336.3c-2.6-0.1-5.1-0.1-7.7-0.1C321.8,177.5,175.4,319.7,171.3,498.7"/>
		</defs>
		<clipPath id="SVGID_108_">
			<use xlink:href="#SVGID_107_"  style="overflow:visible;"/>
		</clipPath>
		<path class="st53" d="M118.7,177.5c0,156.3,0,312.6,0,468.8c0,62.9,0,125.9,0,188.8h-4.5c0-219.2,0-438.4,0-657.6L118.7,177.5
			L118.7,177.5z"/>
	</g>
	<g>
		<defs>
			<path id="SVGID_109_" d="M171.3,498.7C167.1,680.2,310.9,830.8,492.4,835c181.5,4.2,332.1-139.6,336.3-321.1
				c4.2-181.5-139.6-332.1-321.1-336.3c-2.6-0.1-5.1-0.1-7.7-0.1C321.8,177.5,175.4,319.7,171.3,498.7"/>
		</defs>
		<clipPath id="SVGID_110_">
			<use xlink:href="#SVGID_109_"  style="overflow:visible;"/>
		</clipPath>
		<path class="st54" d="M425.2,177.5c0,116.1,0,232.2,0,348.3c0,103.1,0,206.2,0,309.3h-4.5c0-1.5,0-2.9,0-4.4
			c0-216.3,0-432.6,0-648.8c0-1.5,0-2.9,0-4.4H425.2z"/>
	</g>
	<g>
		<defs>
			<path id="SVGID_111_" d="M171.3,498.7C167.1,680.2,310.9,830.8,492.4,835c181.5,4.2,332.1-139.6,336.3-321.1
				c4.2-181.5-139.6-332.1-321.1-336.3c-2.6-0.1-5.1-0.1-7.7-0.1C321.8,177.5,175.4,319.7,171.3,498.7"/>
		</defs>
		<clipPath id="SVGID_112_">
			<use xlink:href="#SVGID_111_"  style="overflow:visible;"/>
		</clipPath>
		<path class="st55" d="M144.1,177.5h4.5c0,1.2,0,2.4,0,3.7c0,216.8,0,433.5,0,650.3c0,1.2,0,2.4,0,3.7h-4.5
			C144.1,615.9,144.1,396.7,144.1,177.5"/>
	</g>
	<g>
		<defs>
			<path id="SVGID_113_" d="M171.3,498.7C167.1,680.2,310.9,830.8,492.4,835c181.5,4.2,332.1-139.6,336.3-321.1
				c4.2-181.5-139.6-332.1-321.1-336.3c-2.6-0.1-5.1-0.1-7.7-0.1C321.8,177.5,175.4,319.7,171.3,498.7"/>
		</defs>
		<clipPath id="SVGID_114_">
			<use xlink:href="#SVGID_113_"  style="overflow:visible;"/>
		</clipPath>
		<path class="st56" d="M684.9,177.5c0,1.3,0,2.7,0,4v649.6c0,1.3,0,2.7,0,4h-4.5c0-133.6,0-267.3,0-400.9c0-85.6,0-171.1,0-256.7
			L684.9,177.5L684.9,177.5z"/>
	</g>
	<g>
		<defs>
			<path id="SVGID_115_" d="M171.3,498.7C167.1,680.2,310.9,830.8,492.4,835c181.5,4.2,332.1-139.6,336.3-321.1
				c4.2-181.5-139.6-332.1-321.1-336.3c-2.6-0.1-5.1-0.1-7.7-0.1C321.8,177.5,175.4,319.7,171.3,498.7"/>
		</defs>
		<clipPath id="SVGID_116_">
			<use xlink:href="#SVGID_115_"  style="overflow:visible;"/>
		</clipPath>
		<path class="st57" d="M250.9,177.5c0,98.7,0,197.4,0,296.1c0,120.5,0,241,0,361.5h-4.5c0-154,0-307.9,0-461.9
			c0-65.2,0-130.5,0-195.7L250.9,177.5L250.9,177.5z"/>
	</g>
	<g>
		<defs>
			<path id="SVGID_117_" d="M171.3,498.7C167.1,680.2,310.9,830.8,492.4,835c181.5,4.2,332.1-139.6,336.3-321.1
				c4.2-181.5-139.6-332.1-321.1-336.3c-2.6-0.1-5.1-0.1-7.7-0.1C321.8,177.5,175.4,319.7,171.3,498.7"/>
		</defs>
		<clipPath id="SVGID_118_">
			<use xlink:href="#SVGID_117_"  style="overflow:visible;"/>
		</clipPath>
		<path class="st58" d="M450.7,835.1c0-1.5,0-2.9,0-4.4c0-216.3,0-432.6,0-648.8c0-1.5,0-2.9,0-4.4h4.5c0,1.5,0,2.9,0,4.4
			c0,216.3,0,432.6,0,648.8c0,1.5,0,2.9,0,4.4H450.7z"/>
	</g>
	<g>
		<defs>
			<path id="SVGID_119_" d="M171.3,498.7C167.1,680.2,310.9,830.8,492.4,835c181.5,4.2,332.1-139.6,336.3-321.1
				c4.2-181.5-139.6-332.1-321.1-336.3c-2.6-0.1-5.1-0.1-7.7-0.1C321.8,177.5,175.4,319.7,171.3,498.7"/>
		</defs>
		<clipPath id="SVGID_120_">
			<use xlink:href="#SVGID_119_"  style="overflow:visible;"/>
		</clipPath>
		<path class="st59" d="M671.9,835.1c0-153.2,0-306.4,0-459.6c0-66,0-132,0-198h4.5c0,120.6,0,241.2,0,361.8c0,98.6,0,197.2,0,295.8
			H671.9z"/>
	</g>
	<g>
		<defs>
			<path id="SVGID_121_" d="M171.3,498.7C167.1,680.2,310.9,830.8,492.4,835c181.5,4.2,332.1-139.6,336.3-321.1
				c4.2-181.5-139.6-332.1-321.1-336.3c-2.6-0.1-5.1-0.1-7.7-0.1C321.8,177.5,175.4,319.7,171.3,498.7"/>
		</defs>
		<clipPath id="SVGID_122_">
			<use xlink:href="#SVGID_121_"  style="overflow:visible;"/>
		</clipPath>
		<path class="st60" d="M459.2,177.5h4.5c0,135.3,0,270.7,0,406c0,83.9,0,167.7,0,251.6h-4.5c0-1.2,0-2.4,0-3.7
			c0-216.8,0-433.5,0-650.3C459.2,179.9,459.2,178.7,459.2,177.5"/>
	</g>
	<g>
		<defs>
			<path id="SVGID_123_" d="M171.3,498.7C167.1,680.2,310.9,830.8,492.4,835c181.5,4.2,332.1-139.6,336.3-321.1
				c4.2-181.5-139.6-332.1-321.1-336.3c-2.6-0.1-5.1-0.1-7.7-0.1C321.8,177.5,175.4,319.7,171.3,498.7"/>
		</defs>
		<clipPath id="SVGID_124_">
			<use xlink:href="#SVGID_123_"  style="overflow:visible;"/>
		</clipPath>
		<path class="st61" d="M238,177.5c0,1.5,0,2.9,0,4.4c0,216.3,0,432.6,0,648.9c0,1.5,0,2.9,0,4.4h-4.5c0-119.9,0-239.8,0-359.7
			c0-99.3,0-198.6,0-298L238,177.5L238,177.5z"/>
	</g>
	<g>
		<defs>
			<path id="SVGID_125_" d="M171.3,498.7C167.1,680.2,310.9,830.8,492.4,835c181.5,4.2,332.1-139.6,336.3-321.1
				c4.2-181.5-139.6-332.1-321.1-336.3c-2.6-0.1-5.1-0.1-7.7-0.1C321.8,177.5,175.4,319.7,171.3,498.7"/>
		</defs>
		<clipPath id="SVGID_126_">
			<use xlink:href="#SVGID_125_"  style="overflow:visible;"/>
		</clipPath>
		<path class="st62" d="M472.2,177.5c0,37.4,0,74.7,0,112.1c0,180.1,0,360.3,0,540.4c0,1.7,0,3.4,0,5.1h-4.5c0-34.7,0-69.4,0-104.1
			c0-184.5,0-369,0-553.5L472.2,177.5L472.2,177.5z"/>
	</g>
	<g>
		<defs>
			<path id="SVGID_127_" d="M171.3,498.7C167.1,680.2,310.9,830.8,492.4,835c181.5,4.2,332.1-139.6,336.3-321.1
				c4.2-181.5-139.6-332.1-321.1-336.3c-2.6-0.1-5.1-0.1-7.7-0.1C321.8,177.5,175.4,319.7,171.3,498.7"/>
		</defs>
		<clipPath id="SVGID_128_">
			<use xlink:href="#SVGID_127_"  style="overflow:visible;"/>
		</clipPath>
		<path class="st63" d="M157.1,177.5h4.5c0,219.2,0,438.4,0,657.6h-4.5c0-103.6,0-207.2,0-310.7
			C157.1,408.8,157.1,293.1,157.1,177.5"/>
	</g>
	<g>
		<defs>
			<path id="SVGID_129_" d="M171.3,498.7C167.1,680.2,310.9,830.8,492.4,835c181.5,4.2,332.1-139.6,336.3-321.1
				c4.2-181.5-139.6-332.1-321.1-336.3c-2.6-0.1-5.1-0.1-7.7-0.1C321.8,177.5,175.4,319.7,171.3,498.7"/>
		</defs>
		<clipPath id="SVGID_130_">
			<use xlink:href="#SVGID_129_"  style="overflow:visible;"/>
		</clipPath>
		<path class="st64" d="M795.7,835.1h-4.5c0-26.2,0-52.3,0-78.5c0-193,0-386.1,0-579.1h4.5c0,116,0,232,0,348
			C795.7,628.7,795.7,731.9,795.7,835.1"/>
	</g>
	<g>
		<defs>
			<path id="SVGID_131_" d="M171.3,498.7C167.1,680.2,310.9,830.8,492.4,835c181.5,4.2,332.1-139.6,336.3-321.1
				c4.2-181.5-139.6-332.1-321.1-336.3c-2.6-0.1-5.1-0.1-7.7-0.1C321.8,177.5,175.4,319.7,171.3,498.7"/>
		</defs>
		<clipPath id="SVGID_132_">
			<use xlink:href="#SVGID_131_"  style="overflow:visible;"/>
		</clipPath>
		<path class="st65" d="M493.2,835.1c0-204.3,0-408.7,0-613c0-14.9,0-29.7,0-44.6h4.5l0,605c0,17.5,0,35.1,0,52.6H493.2z"/>
	</g>
	<g>
		<defs>
			<path id="SVGID_133_" d="M171.3,498.7C167.1,680.2,310.9,830.8,492.4,835c181.5,4.2,332.1-139.6,336.3-321.1
				c4.2-181.5-139.6-332.1-321.1-336.3c-2.6-0.1-5.1-0.1-7.7-0.1C321.8,177.5,175.4,319.7,171.3,498.7"/>
		</defs>
		<clipPath id="SVGID_134_">
			<use xlink:href="#SVGID_133_"  style="overflow:visible;"/>
		</clipPath>
		<path class="st66" d="M659.4,835.1H655c0-1.5,0.1-2.9,0.1-4.4c0-216.3,0-432.6,0-648.9c0-1.5,0-2.9-0.1-4.4h4.5c0,1.3,0,2.7,0,4
			c0,216.5,0,433.1,0,649.6C659.4,832.4,659.4,833.8,659.4,835.1"/>
	</g>
	<g>
		<defs>
			<path id="SVGID_135_" d="M171.3,498.7C167.1,680.2,310.9,830.8,492.4,835c181.5,4.2,332.1-139.6,336.3-321.1
				c4.2-181.5-139.6-332.1-321.1-336.3c-2.6-0.1-5.1-0.1-7.7-0.1C321.8,177.5,175.4,319.7,171.3,498.7"/>
		</defs>
		<clipPath id="SVGID_136_">
			<use xlink:href="#SVGID_135_"  style="overflow:visible;"/>
		</clipPath>
		<path class="st67" d="M646.5,177.5h4.5c0,2.1,0,4.1,0,6.2c0,203.5,0,407,0,610.5c0,13.6,0,27.3,0,40.9h-4.5c0-2.1,0-4.1,0-6.2
			v-628C646.5,193.1,646.5,185.3,646.5,177.5"/>
	</g>
	<g>
		<defs>
			<path id="SVGID_137_" d="M171.3,498.7C167.1,680.2,310.9,830.8,492.4,835c181.5,4.2,332.1-139.6,336.3-321.1
				c4.2-181.5-139.6-332.1-321.1-336.3c-2.6-0.1-5.1-0.1-7.7-0.1C321.8,177.5,175.4,319.7,171.3,498.7"/>
		</defs>
		<clipPath id="SVGID_138_">
			<use xlink:href="#SVGID_137_"  style="overflow:visible;"/>
		</clipPath>
		<path class="st68" d="M642.4,835.1H638c0-1.1,0-2.2,0-3.3c0-217,0-434,0-651c0-1.1,0-2.2,0-3.3h4.5c0,1.5-0.1,2.9-0.1,4.4
			c0,216.3,0,432.6,0,648.9C642.4,832.2,642.4,833.7,642.4,835.1"/>
	</g>
	<g>
		<defs>
			<path id="SVGID_139_" d="M171.3,498.7C167.1,680.2,310.9,830.8,492.4,835c181.5,4.2,332.1-139.6,336.3-321.1
				c4.2-181.5-139.6-332.1-321.1-336.3c-2.6-0.1-5.1-0.1-7.7-0.1C321.8,177.5,175.4,319.7,171.3,498.7"/>
		</defs>
		<clipPath id="SVGID_140_">
			<use xlink:href="#SVGID_139_"  style="overflow:visible;"/>
		</clipPath>
		<path class="st69" d="M527.6,177.5c0,143.3,0,286.5,0,429.8c0,75.9,0,151.9,0,227.8h-4.5V177.5H527.6z"/>
	</g>
	<g>
		<defs>
			<path id="SVGID_141_" d="M171.3,498.7C167.1,680.2,310.9,830.8,492.4,835c181.5,4.2,332.1-139.6,336.3-321.1
				c4.2-181.5-139.6-332.1-321.1-336.3c-2.6-0.1-5.1-0.1-7.7-0.1C321.8,177.5,175.4,319.7,171.3,498.7"/>
		</defs>
		<clipPath id="SVGID_142_">
			<use xlink:href="#SVGID_141_"  style="overflow:visible;"/>
		</clipPath>
		<path class="st70" d="M212.5,177.5c0,116,0,232,0,348c0,103.2,0,206.4,0,309.6H208V177.5H212.5z"/>
	</g>
	<g>
		<defs>
			<path id="SVGID_143_" d="M171.3,498.7C167.1,680.2,310.9,830.8,492.4,835c181.5,4.2,332.1-139.6,336.3-321.1
				c4.2-181.5-139.6-332.1-321.1-336.3c-2.6-0.1-5.1-0.1-7.7-0.1C321.8,177.5,175.4,319.7,171.3,498.7"/>
		</defs>
		<clipPath id="SVGID_144_">
			<use xlink:href="#SVGID_143_"  style="overflow:visible;"/>
		</clipPath>
		<path class="st71" d="M629.5,835.1c0-1.5,0-2.9,0-4.4c0-216.3,0-432.6,0-648.8c0-1.5,0-2.9,0-4.4h4.5c0,1.6,0,3.2,0,4.7
			c0,216,0,432.1,0,648.1c0,1.6,0,3.2,0,4.7H629.5z"/>
	</g>
	<g>
		<defs>
			<path id="SVGID_145_" d="M171.3,498.7C167.1,680.2,310.9,830.8,492.4,835c181.5,4.2,332.1-139.6,336.3-321.1
				c4.2-181.5-139.6-332.1-321.1-336.3c-2.6-0.1-5.1-0.1-7.7-0.1C321.8,177.5,175.4,319.7,171.3,498.7"/>
		</defs>
		<clipPath id="SVGID_146_">
			<use xlink:href="#SVGID_145_"  style="overflow:visible;"/>
		</clipPath>
		<path class="st72" d="M540.1,177.5h4.5c0,108.2,0,216.4,0,324.6c0,111,0,222,0,333h-4.5c0-126.7,0-253.4,0-380.1
			C540.1,362.5,540.1,270,540.1,177.5"/>
	</g>
	<g>
		<defs>
			<path id="SVGID_147_" d="M171.3,498.7C167.1,680.2,310.9,830.8,492.4,835c181.5,4.2,332.1-139.6,336.3-321.1
				c4.2-181.5-139.6-332.1-321.1-336.3c-2.6-0.1-5.1-0.1-7.7-0.1C321.8,177.5,175.4,319.7,171.3,498.7"/>
		</defs>
		<clipPath id="SVGID_148_">
			<use xlink:href="#SVGID_147_"  style="overflow:visible;"/>
		</clipPath>
		<path class="st73" d="M804.2,177.5c0,1.7,0,3.4,0,5.1c0,215.8,0,431.6,0,647.4c0,1.7,0,3.4,0,5.1h-4.5c0-1.5,0-2.9,0-4.4
			c0-216.3,0-432.6,0-648.8c0-1.5,0-2.9,0-4.4L804.2,177.5L804.2,177.5z"/>
	</g>
	<g>
		<defs>
			<path id="SVGID_149_" d="M171.3,498.7C167.1,680.2,310.9,830.8,492.4,835c181.5,4.2,332.1-139.6,336.3-321.1
				c4.2-181.5-139.6-332.1-321.1-336.3c-2.6-0.1-5.1-0.1-7.7-0.1C321.8,177.5,175.4,319.7,171.3,498.7"/>
		</defs>
		<clipPath id="SVGID_150_">
			<use xlink:href="#SVGID_149_"  style="overflow:visible;"/>
		</clipPath>
		<path class="st74" d="M553.1,835.1h-4.5c0-219.2,0-438.4,0-657.6h4.5V835.1z"/>
	</g>
	<g>
		<defs>
			<path id="SVGID_151_" d="M171.3,498.7C167.1,680.2,310.9,830.8,492.4,835c181.5,4.2,332.1-139.6,336.3-321.1
				c4.2-181.5-139.6-332.1-321.1-336.3c-2.6-0.1-5.1-0.1-7.7-0.1C321.8,177.5,175.4,319.7,171.3,498.7"/>
		</defs>
		<clipPath id="SVGID_152_">
			<use xlink:href="#SVGID_151_"  style="overflow:visible;"/>
		</clipPath>
		<path class="st75" d="M157.1,177.5c0,115.6,0,231.3,0,346.9c0,103.6,0,207.2,0,310.7h-4.5c0-1.6,0-3.2,0-4.7
			c0-216,0-432.1,0-648.1c0-1.6,0-3.2,0-4.7L157.1,177.5L157.1,177.5z"/>
	</g>
	<g>
		<defs>
			<path id="SVGID_153_" d="M171.3,498.7C167.1,680.2,310.9,830.8,492.4,835c181.5,4.2,332.1-139.6,336.3-321.1
				c4.2-181.5-139.6-332.1-321.1-336.3c-2.6-0.1-5.1-0.1-7.7-0.1C321.8,177.5,175.4,319.7,171.3,498.7"/>
		</defs>
		<clipPath id="SVGID_154_">
			<use xlink:href="#SVGID_153_"  style="overflow:visible;"/>
		</clipPath>
		<path class="st76" d="M178.6,177.5c0,1.6,0,3.2,0,4.7c0,216,0,432.1,0,648.1c0,1.6,0,3.2,0,4.7h-4.5c0-1.6,0-3.2,0-4.7
			c0-216,0-432.1,0-648.1c0-1.6,0-3.2,0-4.7L178.6,177.5L178.6,177.5z"/>
	</g>
	<g>
		<defs>
			<path id="SVGID_155_" d="M171.3,498.7C167.1,680.2,310.9,830.8,492.4,835c181.5,4.2,332.1-139.6,336.3-321.1
				c4.2-181.5-139.6-332.1-321.1-336.3c-2.6-0.1-5.1-0.1-7.7-0.1C321.8,177.5,175.4,319.7,171.3,498.7"/>
		</defs>
		<clipPath id="SVGID_156_">
			<use xlink:href="#SVGID_155_"  style="overflow:visible;"/>
		</clipPath>
		<path class="st77" d="M565.6,835.1c0-37.5,0-75,0-112.5c0-180,0-360,0-540c0-1.7,0-3.4,0-5.1h4.5c0,1.5,0,2.9,0,4.4
			c0,216.3,0,432.6,0,648.9c0,1.5,0,2.9,0,4.4L565.6,835.1L565.6,835.1z"/>
	</g>
	<g>
		<defs>
			<path id="SVGID_157_" d="M171.3,498.7C167.1,680.2,310.9,830.8,492.4,835c181.5,4.2,332.1-139.6,336.3-321.1
				c4.2-181.5-139.6-332.1-321.1-336.3c-2.6-0.1-5.1-0.1-7.7-0.1C321.8,177.5,175.4,319.7,171.3,498.7"/>
		</defs>
		<clipPath id="SVGID_158_">
			<use xlink:href="#SVGID_157_"  style="overflow:visible;"/>
		</clipPath>
		<path class="st78" d="M608.5,177.5c0,1.1,0,2.2,0,3.3v651c0,1.1,0,2.2,0,3.3H604c0-1.8,0-3.7,0-5.5V268.4c0-30.3,0-60.6,0-90.9
			L608.5,177.5L608.5,177.5z"/>
	</g>
	<g>
		<defs>
			<path id="SVGID_159_" d="M171.3,498.7C167.1,680.2,310.9,830.8,492.4,835c181.5,4.2,332.1-139.6,336.3-321.1
				c4.2-181.5-139.6-332.1-321.1-336.3c-2.6-0.1-5.1-0.1-7.7-0.1C321.8,177.5,175.4,319.7,171.3,498.7"/>
		</defs>
		<clipPath id="SVGID_160_">
			<use xlink:href="#SVGID_159_"  style="overflow:visible;"/>
		</clipPath>
		<path class="st79" d="M574.1,177.5h4.5c0,219.2,0,438.4,0,657.6h-4.5V177.5z"/>
	</g>
	<g>
		<defs>
			<path id="SVGID_161_" d="M171.3,498.7C167.1,680.2,310.9,830.8,492.4,835c181.5,4.2,332.1-139.6,336.3-321.1
				c4.2-181.5-139.6-332.1-321.1-336.3c-2.6-0.1-5.1-0.1-7.7-0.1C321.8,177.5,175.4,319.7,171.3,498.7"/>
		</defs>
		<clipPath id="SVGID_162_">
			<use xlink:href="#SVGID_161_"  style="overflow:visible;"/>
		</clipPath>
		<path class="st80" d="M604,177.5c0,30.3,0,60.6,0,90.9v561.2c0,1.8,0,3.7,0,5.5h-4.5c0-1.5,0.1-2.9,0.1-4.4
			c0-216.3,0-432.6,0-648.9c0-1.5,0-2.9-0.1-4.4L604,177.5L604,177.5z"/>
	</g>
	<g>
		<defs>
			<path id="SVGID_163_" d="M171.3,498.7C167.1,680.2,310.9,830.8,492.4,835c181.5,4.2,332.1-139.6,336.3-321.1
				c4.2-181.5-139.6-332.1-321.1-336.3c-2.6-0.1-5.1-0.1-7.7-0.1C321.8,177.5,175.4,319.7,171.3,498.7"/>
		</defs>
		<clipPath id="SVGID_164_">
			<use xlink:href="#SVGID_163_"  style="overflow:visible;"/>
		</clipPath>
		<path class="st81" d="M587,177.5c0,140.9,0,281.9,0,422.8c0,78.3,0,156.5,0,234.8h-4.5V177.5H587z"/>
	</g>
	<g>
		<defs>
			<path id="SVGID_165_" d="M171.3,498.7C167.1,680.2,310.9,830.8,492.4,835c181.5,4.2,332.1-139.6,336.3-321.1
				c4.2-181.5-139.6-332.1-321.1-336.3c-2.6-0.1-5.1-0.1-7.7-0.1C321.8,177.5,175.4,319.7,171.3,498.7"/>
		</defs>
		<clipPath id="SVGID_166_">
			<use xlink:href="#SVGID_165_"  style="overflow:visible;"/>
		</clipPath>
		<path class="st82" d="M693.4,835.1V177.5h4c0.7,4.4,0.6,8.9,0.2,13.4c-0.1,1.2-0.2,2.4-0.2,3.6c0,18.6-0.3,37.3,0.1,55.9
			c0.8,42.9,0.2,85.9,0.3,128.8c0.1,42.8,0.3,85.7-0.1,128.5c-0.2,20.3-0.6,40.6-0.2,60.9c0.7,44.4,0.2,88.8,0.3,133.2
			c0.1,44.4,0,88.9,0,133.3H693.4z"/>
	</g>
	<g>
		<defs>
			<path id="SVGID_167_" d="M171.3,498.7C167.1,680.2,310.9,830.8,492.4,835c181.5,4.2,332.1-139.6,336.3-321.1
				c4.2-181.5-139.6-332.1-321.1-336.3c-2.6-0.1-5.1-0.1-7.7-0.1C321.8,177.5,175.4,319.7,171.3,498.7"/>
		</defs>
		<clipPath id="SVGID_168_">
			<use xlink:href="#SVGID_167_"  style="overflow:visible;"/>
		</clipPath>
		<path class="st83" d="M599.5,177.5c0,1.5,0.1,2.9,0.1,4.4c0,216.3,0,432.6,0,648.9c0,1.5,0,2.9-0.1,4.4h-4V177.5H599.5z"/>
	</g>
	<g>
		<defs>
			<path id="SVGID_169_" d="M171.3,498.7C167.1,680.2,310.9,830.8,492.4,835c181.5,4.2,332.1-139.6,336.3-321.1
				c4.2-181.5-139.6-332.1-321.1-336.3c-2.6-0.1-5.1-0.1-7.7-0.1C321.8,177.5,175.4,319.7,171.3,498.7"/>
		</defs>
		<clipPath id="SVGID_170_">
			<use xlink:href="#SVGID_169_"  style="overflow:visible;"/>
		</clipPath>
		<path class="st84" d="M582.6,177.5v657.6h-4c0-219.2,0-438.4,0-657.6L582.6,177.5L582.6,177.5z"/>
	</g>
	<g>
		<defs>
			<path id="SVGID_171_" d="M171.3,498.7C167.1,680.2,310.9,830.8,492.4,835c181.5,4.2,332.1-139.6,336.3-321.1
				c4.2-181.5-139.6-332.1-321.1-336.3c-2.6-0.1-5.1-0.1-7.7-0.1C321.8,177.5,175.4,319.7,171.3,498.7"/>
		</defs>
		<clipPath id="SVGID_172_">
			<use xlink:href="#SVGID_171_"  style="overflow:visible;"/>
		</clipPath>
		<path class="st85" d="M574.1,177.5v657.6h-4c0-1.5,0-2.9,0-4.4c0-216.3,0-432.6,0-648.9c0-1.5,0-2.9,0-4.4L574.1,177.5
			L574.1,177.5z"/>
	</g>
	<g>
		<defs>
			<path id="SVGID_173_" d="M171.3,498.7C167.1,680.2,310.9,830.8,492.4,835c181.5,4.2,332.1-139.6,336.3-321.1
				c4.2-181.5-139.6-332.1-321.1-336.3c-2.6-0.1-5.1-0.1-7.7-0.1C321.8,177.5,175.4,319.7,171.3,498.7"/>
		</defs>
		<clipPath id="SVGID_174_">
			<use xlink:href="#SVGID_173_"  style="overflow:visible;"/>
		</clipPath>
		<path class="st86" d="M553.1,835.1V177.5h4c0,1.6,0,3.2,0,4.7c0,216,0,432.1,0,648.1c0,1.6,0,3.2,0,4.7H553.1z"/>
	</g>
	<g>
		<defs>
			<path id="SVGID_175_" d="M171.3,498.7C167.1,680.2,310.9,830.8,492.4,835c181.5,4.2,332.1-139.6,336.3-321.1
				c4.2-181.5-139.6-332.1-321.1-336.3c-2.6-0.1-5.1-0.1-7.7-0.1C321.8,177.5,175.4,319.7,171.3,498.7"/>
		</defs>
		<clipPath id="SVGID_176_">
			<use xlink:href="#SVGID_175_"  style="overflow:visible;"/>
		</clipPath>
		<path class="st87" d="M548.6,177.5c0,219.2,0,438.4,0,657.6h-4c0-111,0-222,0-333c0-108.2,0-216.4,0-324.6L548.6,177.5
			L548.6,177.5z"/>
	</g>
	<g>
		<defs>
			<path id="SVGID_177_" d="M171.3,498.7C167.1,680.2,310.9,830.8,492.4,835c181.5,4.2,332.1-139.6,336.3-321.1
				c4.2-181.5-139.6-332.1-321.1-336.3c-2.6-0.1-5.1-0.1-7.7-0.1C321.8,177.5,175.4,319.7,171.3,498.7"/>
		</defs>
		<clipPath id="SVGID_178_">
			<use xlink:href="#SVGID_177_"  style="overflow:visible;"/>
		</clipPath>
		<path class="st88" d="M540.1,177.5c0,92.5,0,185,0,277.5c0,126.7,0,253.4,0,380.1h-4c0-219.2,0-438.4,0-657.6L540.1,177.5
			L540.1,177.5z"/>
	</g>
	<g>
		<defs>
			<path id="SVGID_179_" d="M171.3,498.7C167.1,680.2,310.9,830.8,492.4,835c181.5,4.2,332.1-139.6,336.3-321.1
				c4.2-181.5-139.6-332.1-321.1-336.3c-2.6-0.1-5.1-0.1-7.7-0.1C321.8,177.5,175.4,319.7,171.3,498.7"/>
		</defs>
		<clipPath id="SVGID_180_">
			<use xlink:href="#SVGID_179_"  style="overflow:visible;"/>
		</clipPath>
		<path class="st89" d="M634,835.1c0-1.6,0-3.2,0-4.7c0-216,0-432.1,0-648.1c0-1.6,0-3.2,0-4.7h4c0,1.1,0,2.2,0,3.3
			c0,217,0,434,0,651c0,1.1,0,2.2,0,3.3H634z"/>
	</g>
	<g>
		<defs>
			<path id="SVGID_181_" d="M171.3,498.7C167.1,680.2,310.9,830.8,492.4,835c181.5,4.2,332.1-139.6,336.3-321.1
				c4.2-181.5-139.6-332.1-321.1-336.3c-2.6-0.1-5.1-0.1-7.7-0.1C321.8,177.5,175.4,319.7,171.3,498.7"/>
		</defs>
		<clipPath id="SVGID_182_">
			<use xlink:href="#SVGID_181_"  style="overflow:visible;"/>
		</clipPath>
		<path class="st90" d="M523.1,177.5v657.6h-4c0-119.9,0-239.8,0-359.7c0-99.3,0-198.6,0-298L523.1,177.5L523.1,177.5z"/>
	</g>
	<g>
		<defs>
			<path id="SVGID_183_" d="M171.3,498.7C167.1,680.2,310.9,830.8,492.4,835c181.5,4.2,332.1-139.6,336.3-321.1
				c4.2-181.5-139.6-332.1-321.1-336.3c-2.6-0.1-5.1-0.1-7.7-0.1C321.8,177.5,175.4,319.7,171.3,498.7"/>
		</defs>
		<clipPath id="SVGID_184_">
			<use xlink:href="#SVGID_183_"  style="overflow:visible;"/>
		</clipPath>
		<path class="st91" d="M642.4,835.1c0-1.5-0.1-2.9-0.1-4.4c0-216.3,0-432.6,0-648.9c0-1.5,0-2.9,0.1-4.4h4c0,7.8,0,15.6,0,23.4v628
			c0,2.1,0,4.1,0,6.2L642.4,835.1L642.4,835.1z"/>
	</g>
	<g>
		<defs>
			<path id="SVGID_185_" d="M171.3,498.7C167.1,680.2,310.9,830.8,492.4,835c181.5,4.2,332.1-139.6,336.3-321.1
				c4.2-181.5-139.6-332.1-321.1-336.3c-2.6-0.1-5.1-0.1-7.7-0.1C321.8,177.5,175.4,319.7,171.3,498.7"/>
		</defs>
		<clipPath id="SVGID_186_">
			<use xlink:href="#SVGID_185_"  style="overflow:visible;"/>
		</clipPath>
		<path class="st92" d="M161.6,835.1c0-219.2,0-438.4,0-657.6h4c0,23.1,0,46.3,0,69.4c0,194.5,0,389,0,583.5c0,1.6,0,3.2,0,4.7
			H161.6z"/>
	</g>
	<g>
		<defs>
			<path id="SVGID_187_" d="M171.3,498.7C167.1,680.2,310.9,830.8,492.4,835c181.5,4.2,332.1-139.6,336.3-321.1
				c4.2-181.5-139.6-332.1-321.1-336.3c-2.6-0.1-5.1-0.1-7.7-0.1C321.8,177.5,175.4,319.7,171.3,498.7"/>
		</defs>
		<clipPath id="SVGID_188_">
			<use xlink:href="#SVGID_187_"  style="overflow:visible;"/>
		</clipPath>
		<path class="st93" d="M650.9,835.1c0-13.6,0-27.3,0-40.9c0-203.5,0-407,0-610.5c0-2.1,0-4.1,0-6.2h4c0,1.5,0.1,2.9,0.1,4.4
			c0,216.3,0,432.6,0,648.9c0,1.5,0,2.9-0.1,4.4L650.9,835.1L650.9,835.1z"/>
	</g>
	<g>
		<defs>
			<path id="SVGID_189_" d="M171.3,498.7C167.1,680.2,310.9,830.8,492.4,835c181.5,4.2,332.1-139.6,336.3-321.1
				c4.2-181.5-139.6-332.1-321.1-336.3c-2.6-0.1-5.1-0.1-7.7-0.1C321.8,177.5,175.4,319.7,171.3,498.7"/>
		</defs>
		<clipPath id="SVGID_190_">
			<use xlink:href="#SVGID_189_"  style="overflow:visible;"/>
		</clipPath>
		<path class="st94" d="M144.1,177.5c0,219.2,0,438.4,0,657.6h-4V177.5H144.1z"/>
	</g>
	<g>
		<defs>
			<path id="SVGID_191_" d="M171.3,498.7C167.1,680.2,310.9,830.8,492.4,835c181.5,4.2,332.1-139.6,336.3-321.1
				c4.2-181.5-139.6-332.1-321.1-336.3c-2.6-0.1-5.1-0.1-7.7-0.1C321.8,177.5,175.4,319.7,171.3,498.7"/>
		</defs>
		<clipPath id="SVGID_192_">
			<use xlink:href="#SVGID_191_"  style="overflow:visible;"/>
		</clipPath>
		<path class="st95" d="M659.4,835.1c0-1.3,0-2.7,0-4c0-216.5,0-433,0-649.6c0-1.3,0-2.7,0-4h4c0,1.3,0,2.7,0,4
			c0,216.5,0,433.1,0,649.6c0,1.3,0,2.7,0,4H659.4z"/>
	</g>
	<g>
		<defs>
			<path id="SVGID_193_" d="M171.3,498.7C167.1,680.2,310.9,830.8,492.4,835c181.5,4.2,332.1-139.6,336.3-321.1
				c4.2-181.5-139.6-332.1-321.1-336.3c-2.6-0.1-5.1-0.1-7.7-0.1C321.8,177.5,175.4,319.7,171.3,498.7"/>
		</defs>
		<clipPath id="SVGID_194_">
			<use xlink:href="#SVGID_193_"  style="overflow:visible;"/>
		</clipPath>
		<path class="st96" d="M467.7,177.5c0,184.5,0,369,0,553.5c0,34.7,0,69.4,0,104.1h-4c0-83.9,0-167.7,0-251.6c0-135.3,0-270.7,0-406
			L467.7,177.5L467.7,177.5z"/>
	</g>
	<g>
		<defs>
			<path id="SVGID_195_" d="M171.3,498.7C167.1,680.2,310.9,830.8,492.4,835c181.5,4.2,332.1-139.6,336.3-321.1
				c4.2-181.5-139.6-332.1-321.1-336.3c-2.6-0.1-5.1-0.1-7.7-0.1C321.8,177.5,175.4,319.7,171.3,498.7"/>
		</defs>
		<clipPath id="SVGID_196_">
			<use xlink:href="#SVGID_195_"  style="overflow:visible;"/>
		</clipPath>
		<path class="st97" d="M459.2,177.5c0,1.2,0,2.4,0,3.7c0,216.8,0,433.5,0,650.3c0,1.2,0,2.4,0,3.7h-4c0-1.5,0-2.9,0-4.4
			c0-216.3,0-432.6,0-648.8c0-1.5,0-2.9,0-4.4L459.2,177.5L459.2,177.5z"/>
	</g>
	<g>
		<defs>
			<path id="SVGID_197_" d="M171.3,498.7C167.1,680.2,310.9,830.8,492.4,835c181.5,4.2,332.1-139.6,336.3-321.1
				c4.2-181.5-139.6-332.1-321.1-336.3c-2.6-0.1-5.1-0.1-7.7-0.1C321.8,177.5,175.4,319.7,171.3,498.7"/>
		</defs>
		<clipPath id="SVGID_198_">
			<use xlink:href="#SVGID_197_"  style="overflow:visible;"/>
		</clipPath>
		<path class="st98" d="M676.4,835.1c0-98.6,0-197.2,0-295.8c0-120.6,0-241.2,0-361.8h4c0,85.6,0,171.1,0,256.7
			c0,133.6,0,267.3,0,400.9H676.4z"/>
	</g>
	<g>
		<defs>
			<path id="SVGID_199_" d="M171.3,498.7C167.1,680.2,310.9,830.8,492.4,835c181.5,4.2,332.1-139.6,336.3-321.1
				c4.2-181.5-139.6-332.1-321.1-336.3c-2.6-0.1-5.1-0.1-7.7-0.1C321.8,177.5,175.4,319.7,171.3,498.7"/>
		</defs>
		<clipPath id="SVGID_200_">
			<use xlink:href="#SVGID_199_"  style="overflow:visible;"/>
		</clipPath>
		<path class="st99" d="M442.2,177.5c0,1.2,0,2.4,0,3.7c0,216.8,0,433.5,0,650.3c0,1.2,0,2.4,0,3.7h-4c0-1.5,0-2.9,0-4.4
			c0-216.3,0-432.6,0-648.8c0-1.5,0-2.9,0-4.4L442.2,177.5L442.2,177.5z"/>
	</g>
	<g>
		<defs>
			<path id="SVGID_201_" d="M171.3,498.7C167.1,680.2,310.9,830.8,492.4,835c181.5,4.2,332.1-139.6,336.3-321.1
				c4.2-181.5-139.6-332.1-321.1-336.3c-2.6-0.1-5.1-0.1-7.7-0.1C321.8,177.5,175.4,319.7,171.3,498.7"/>
		</defs>
		<clipPath id="SVGID_202_">
			<use xlink:href="#SVGID_201_"  style="overflow:visible;"/>
		</clipPath>
		<path class="st100" d="M420.8,177.5c0,1.5,0,2.9,0,4.4c0,216.3,0,432.6,0,648.8c0,1.5,0,2.9,0,4.4h-4c0-11.9,0-23.9,0-35.8
			c0-205.4,0-410.9,0-616.3c0-1.8,0-3.7,0-5.5L420.8,177.5L420.8,177.5z"/>
	</g>
	<g>
		<defs>
			<path id="SVGID_203_" d="M171.3,498.7C167.1,680.2,310.9,830.8,492.4,835c181.5,4.2,332.1-139.6,336.3-321.1
				c4.2-181.5-139.6-332.1-321.1-336.3c-2.6-0.1-5.1-0.1-7.7-0.1C321.8,177.5,175.4,319.7,171.3,498.7"/>
		</defs>
		<clipPath id="SVGID_204_">
			<use xlink:href="#SVGID_203_"  style="overflow:visible;"/>
		</clipPath>
		<path class="st101" d="M403.8,177.5c0,1.5,0,2.9,0,4.4c0,216.3,0,432.6,0,648.8c0,1.5,0,2.9,0,4.4h-4c0-1.2,0-2.4,0-3.7
			c0-216.8,0-433.5,0-650.3c0-1.2,0-2.4,0-3.7L403.8,177.5L403.8,177.5z"/>
	</g>
	<g>
		<defs>
			<path id="SVGID_205_" d="M171.3,498.7C167.1,680.2,310.9,830.8,492.4,835c181.5,4.2,332.1-139.6,336.3-321.1
				c4.2-181.5-139.6-332.1-321.1-336.3c-2.6-0.1-5.1-0.1-7.7-0.1C321.8,177.5,175.4,319.7,171.3,498.7"/>
		</defs>
		<clipPath id="SVGID_206_">
			<use xlink:href="#SVGID_205_"  style="overflow:visible;"/>
		</clipPath>
		<path class="st102" d="M395.3,177.5c0,1.6,0,3.2,0,4.7c0,216,0,432.1,0,648.1c0,1.6,0,3.2,0,4.7h-4c0-11.9,0-23.9,0-35.8
			c0-205.4,0-410.9,0-616.3c0-1.8,0-3.7,0-5.5H395.3z"/>
	</g>
	<g>
		<defs>
			<path id="SVGID_207_" d="M171.3,498.7C167.1,680.2,310.9,830.8,492.4,835c181.5,4.2,332.1-139.6,336.3-321.1
				c4.2-181.5-139.6-332.1-321.1-336.3c-2.6-0.1-5.1-0.1-7.7-0.1C321.8,177.5,175.4,319.7,171.3,498.7"/>
		</defs>
		<clipPath id="SVGID_208_">
			<use xlink:href="#SVGID_207_"  style="overflow:visible;"/>
		</clipPath>
		<path class="st103" d="M710.4,177.5c0,1.5,0.1,2.9,0.1,4.4c0,216.3,0,432.6,0,648.9c0,1.5,0,2.9-0.1,4.4h-4c0-101.3,0-202.6,0-304
			c0-117.9,0-235.8,0-353.6L710.4,177.5L710.4,177.5z"/>
	</g>
	<g>
		<defs>
			<path id="SVGID_209_" d="M171.3,498.7C167.1,680.2,310.9,830.8,492.4,835c181.5,4.2,332.1-139.6,336.3-321.1
				c4.2-181.5-139.6-332.1-321.1-336.3c-2.6-0.1-5.1-0.1-7.7-0.1C321.8,177.5,175.4,319.7,171.3,498.7"/>
		</defs>
		<clipPath id="SVGID_210_">
			<use xlink:href="#SVGID_209_"  style="overflow:visible;"/>
		</clipPath>
		<path class="st104" d="M152.6,177.5c0,1.6,0,3.2,0,4.7c0,216,0,432.1,0,648.1c0,1.6,0,3.2,0,4.7h-4c0-1.2,0-2.4,0-3.7
			c0-216.8,0-433.5,0-650.3c0-1.2,0-2.4,0-3.7L152.6,177.5L152.6,177.5z"/>
	</g>
	<g>
		<defs>
			<path id="SVGID_211_" d="M171.3,498.7C167.1,680.2,310.9,830.8,492.4,835c181.5,4.2,332.1-139.6,336.3-321.1
				c4.2-181.5-139.6-332.1-321.1-336.3c-2.6-0.1-5.1-0.1-7.7-0.1C321.8,177.5,175.4,319.7,171.3,498.7"/>
		</defs>
		<clipPath id="SVGID_212_">
			<use xlink:href="#SVGID_211_"  style="overflow:visible;"/>
		</clipPath>
		<path class="st105" d="M714.8,835.1c0-1.2,0-2.4,0-3.7c0-216.8,0-433.5,0-650.3c0-1.2,0-2.4,0-3.7h4c0,1.5,0,2.9,0,4.4
			c0,216.3,0,432.6,0,648.8c0,1.5,0,2.9,0,4.4H714.8z"/>
	</g>
	<g>
		<defs>
			<path id="SVGID_213_" d="M171.3,498.7C167.1,680.2,310.9,830.8,492.4,835c181.5,4.2,332.1-139.6,336.3-321.1
				c4.2-181.5-139.6-332.1-321.1-336.3c-2.6-0.1-5.1-0.1-7.7-0.1C321.8,177.5,175.4,319.7,171.3,498.7"/>
		</defs>
		<clipPath id="SVGID_214_">
			<use xlink:href="#SVGID_213_"  style="overflow:visible;"/>
		</clipPath>
		<path class="st106" d="M357.3,835.1c0-1.5,0-2.9,0-4.4c0-216.3,0-432.6,0-648.8c0-1.5,0-2.9,0-4.4h4c0,1.1,0,2.2,0,3.3
			c0,217,0,434,0,651c0,1.1,0,2.2,0,3.3H357.3z"/>
	</g>
	<g>
		<defs>
			<path id="SVGID_215_" d="M171.3,498.7C167.1,680.2,310.9,830.8,492.4,835c181.5,4.2,332.1-139.6,336.3-321.1
				c4.2-181.5-139.6-332.1-321.1-336.3c-2.6-0.1-5.1-0.1-7.7-0.1C321.8,177.5,175.4,319.7,171.3,498.7"/>
		</defs>
		<clipPath id="SVGID_216_">
			<use xlink:href="#SVGID_215_"  style="overflow:visible;"/>
		</clipPath>
		<path class="st107" d="M352.8,177.5c0,77.4,0,154.8,0,232.2c0,141.8,0,283.6,0,425.4h-4c0-1.5,0-2.9,0-4.4
			c0-216.3,0-432.6,0-648.8c0-1.5,0-2.9,0-4.4L352.8,177.5L352.8,177.5z"/>
	</g>
	<g>
		<defs>
			<path id="SVGID_217_" d="M171.3,498.7C167.1,680.2,310.9,830.8,492.4,835c181.5,4.2,332.1-139.6,336.3-321.1
				c4.2-181.5-139.6-332.1-321.1-336.3c-2.6-0.1-5.1-0.1-7.7-0.1C321.8,177.5,175.4,319.7,171.3,498.7"/>
		</defs>
		<clipPath id="SVGID_218_">
			<use xlink:href="#SVGID_217_"  style="overflow:visible;"/>
		</clipPath>
		<path class="st108" d="M735.9,177.5c0,1.6,0,3.2,0,4.7c0,216,0,432.1,0,648.1c0,1.6,0,3.2,0,4.7h-4c0-1.6,0-3.2,0-4.7
			c0-216,0-432.1,0-648.1c0-1.6,0-3.2,0-4.7L735.9,177.5L735.9,177.5z"/>
	</g>
	<g>
		<defs>
			<path id="SVGID_219_" d="M171.3,498.7C167.1,680.2,310.9,830.8,492.4,835c181.5,4.2,332.1-139.6,336.3-321.1
				c4.2-181.5-139.6-332.1-321.1-336.3c-2.6-0.1-5.1-0.1-7.7-0.1C321.8,177.5,175.4,319.7,171.3,498.7"/>
		</defs>
		<clipPath id="SVGID_220_">
			<use xlink:href="#SVGID_219_"  style="overflow:visible;"/>
		</clipPath>
		<path class="st109" d="M331.4,177.5v657.6h-4c0-219.2,0-438.4,0-657.6L331.4,177.5L331.4,177.5z"/>
	</g>
	<g>
		<defs>
			<path id="SVGID_221_" d="M171.3,498.7C167.1,680.2,310.9,830.8,492.4,835c181.5,4.2,332.1-139.6,336.3-321.1
				c4.2-181.5-139.6-332.1-321.1-336.3c-2.6-0.1-5.1-0.1-7.7-0.1C321.8,177.5,175.4,319.7,171.3,498.7"/>
		</defs>
		<clipPath id="SVGID_222_">
			<use xlink:href="#SVGID_221_"  style="overflow:visible;"/>
		</clipPath>
		<path class="st110" d="M740.3,835.1c0-1.5-0.1-2.9-0.1-4.4c0-216.3,0-432.6,0-648.9c0-1.5,0-2.9,0.1-4.4h4c0,1.7,0,3.4,0,5.1
			c0,215.8,0,431.6,0,647.4c0,1.7,0,3.4,0,5.1L740.3,835.1L740.3,835.1z"/>
	</g>
	<g>
		<defs>
			<path id="SVGID_223_" d="M171.3,498.7C167.1,680.2,310.9,830.8,492.4,835c181.5,4.2,332.1-139.6,336.3-321.1
				c4.2-181.5-139.6-332.1-321.1-336.3c-2.6-0.1-5.1-0.1-7.7-0.1C321.8,177.5,175.4,319.7,171.3,498.7"/>
		</defs>
		<clipPath id="SVGID_224_">
			<use xlink:href="#SVGID_223_"  style="overflow:visible;"/>
		</clipPath>
		<path class="st111" d="M322.9,177.5c0,1.5,0,2.9,0,4.4c0,216.3,0,432.6,0,648.8c0,1.5,0,2.9,0,4.4h-4c0-1.6,0-3.2,0-4.7
			c0-216,0-432.1,0-648.1c0-1.6,0-3.2,0-4.7L322.9,177.5L322.9,177.5z"/>
	</g>
	<g>
		<defs>
			<path id="SVGID_225_" d="M171.3,498.7C167.1,680.2,310.9,830.8,492.4,835c181.5,4.2,332.1-139.6,336.3-321.1
				c4.2-181.5-139.6-332.1-321.1-336.3c-2.6-0.1-5.1-0.1-7.7-0.1C321.8,177.5,175.4,319.7,171.3,498.7"/>
		</defs>
		<clipPath id="SVGID_226_">
			<use xlink:href="#SVGID_225_"  style="overflow:visible;"/>
		</clipPath>
		<path class="st112" d="M293.4,835.1V177.5h4c0,23.2,0,46.5,0,69.7c0,194.4,0,388.7,0,583.1c0,1.6,0,3.2,0,4.7L293.4,835.1
			L293.4,835.1z"/>
	</g>
	<g>
		<defs>
			<path id="SVGID_227_" d="M171.3,498.7C167.1,680.2,310.9,830.8,492.4,835c181.5,4.2,332.1-139.6,336.3-321.1
				c4.2-181.5-139.6-332.1-321.1-336.3c-2.6-0.1-5.1-0.1-7.7-0.1C321.8,177.5,175.4,319.7,171.3,498.7"/>
		</defs>
		<clipPath id="SVGID_228_">
			<use xlink:href="#SVGID_227_"  style="overflow:visible;"/>
		</clipPath>
		<path class="st113" d="M757.3,835.1c0-199.2,0-398.5,0-597.7c0-20,0-39.9,0-59.9h4c0,193,0,386.1,0,579.1c0,26.2,0,52.3,0,78.5
			H757.3z"/>
	</g>
	<g>
		<defs>
			<path id="SVGID_229_" d="M171.3,498.7C167.1,680.2,310.9,830.8,492.4,835c181.5,4.2,332.1-139.6,336.3-321.1
				c4.2-181.5-139.6-332.1-321.1-336.3c-2.6-0.1-5.1-0.1-7.7-0.1C321.8,177.5,175.4,319.7,171.3,498.7"/>
		</defs>
		<clipPath id="SVGID_230_">
			<use xlink:href="#SVGID_229_"  style="overflow:visible;"/>
		</clipPath>
		<path class="st114" d="M284.9,835.1c0-1.6,0-3.2,0-4.7c0-216,0-432.1,0-648.1c0-1.6,0-3.2,0-4.7h4c0,81.4,0,162.9,0,244.3
			c0,137.8,0,275.6,0,413.3H284.9z"/>
	</g>
	<g>
		<defs>
			<path id="SVGID_231_" d="M171.3,498.7C167.1,680.2,310.9,830.8,492.4,835c181.5,4.2,332.1-139.6,336.3-321.1
				c4.2-181.5-139.6-332.1-321.1-336.3c-2.6-0.1-5.1-0.1-7.7-0.1C321.8,177.5,175.4,319.7,171.3,498.7"/>
		</defs>
		<clipPath id="SVGID_232_">
			<use xlink:href="#SVGID_231_"  style="overflow:visible;"/>
		</clipPath>
		<path class="st115" d="M276.4,835.1c0-95,0-190,0-285c0-124.2,0-248.4,0-372.6h4c0,1.5,0,2.9,0,4.4c0,216.3,0,432.6,0,648.8
			c0,1.5,0,2.9,0,4.4H276.4z"/>
	</g>
	<g>
		<defs>
			<path id="SVGID_233_" d="M171.3,498.7C167.1,680.2,310.9,830.8,492.4,835c181.5,4.2,332.1-139.6,336.3-321.1
				c4.2-181.5-139.6-332.1-321.1-336.3c-2.6-0.1-5.1-0.1-7.7-0.1C321.8,177.5,175.4,319.7,171.3,498.7"/>
		</defs>
		<clipPath id="SVGID_234_">
			<use xlink:href="#SVGID_233_"  style="overflow:visible;"/>
		</clipPath>
		<path class="st116" d="M272,177.5c0,219.2,0,438.4,0,657.6h-4V177.5H272z"/>
	</g>
	<g>
		<defs>
			<path id="SVGID_235_" d="M171.3,498.7C167.1,680.2,310.9,830.8,492.4,835c181.5,4.2,332.1-139.6,336.3-321.1
				c4.2-181.5-139.6-332.1-321.1-336.3c-2.6-0.1-5.1-0.1-7.7-0.1C321.8,177.5,175.4,319.7,171.3,498.7"/>
		</defs>
		<clipPath id="SVGID_236_">
			<use xlink:href="#SVGID_235_"  style="overflow:visible;"/>
		</clipPath>
		<path class="st117" d="M791.3,177.5c0,193,0,386.1,0,579.1c0,26.2,0,52.3,0,78.5h-4c0-201.9,0-403.8,0-605.8c0-17.3,0-34.6,0-51.8
			L791.3,177.5L791.3,177.5z"/>
	</g>
	<g>
		<defs>
			<path id="SVGID_237_" d="M171.3,498.7C167.1,680.2,310.9,830.8,492.4,835c181.5,4.2,332.1-139.6,336.3-321.1
				c4.2-181.5-139.6-332.1-321.1-336.3c-2.6-0.1-5.1-0.1-7.7-0.1C321.8,177.5,175.4,319.7,171.3,498.7"/>
		</defs>
		<clipPath id="SVGID_238_">
			<use xlink:href="#SVGID_237_"  style="overflow:visible;"/>
		</clipPath>
		<path class="st118" d="M233.5,177.5c0,99.3,0,198.6,0,298c0,119.9,0,239.8,0,359.7h-4c0-1.5-0.1-2.9-0.1-4.4
			c0-216.3,0-432.6,0-648.9c0-1.5,0-2.9,0.1-4.4L233.5,177.5L233.5,177.5z"/>
	</g>
	<g>
		<defs>
			<path id="SVGID_239_" d="M171.3,498.7C167.1,680.2,310.9,830.8,492.4,835c181.5,4.2,332.1-139.6,336.3-321.1
				c4.2-181.5-139.6-332.1-321.1-336.3c-2.6-0.1-5.1-0.1-7.7-0.1C321.8,177.5,175.4,319.7,171.3,498.7"/>
		</defs>
		<clipPath id="SVGID_240_">
			<use xlink:href="#SVGID_239_"  style="overflow:visible;"/>
		</clipPath>
		<path class="st119" d="M799.8,177.5c0,1.5,0,2.9,0,4.4c0,216.3,0,432.6,0,648.8c0,1.5,0,2.9,0,4.4h-4c0-103.2,0-206.4,0-309.6
			c0-116,0-232,0-348L799.8,177.5L799.8,177.5z"/>
	</g>
	<g>
		<defs>
			<path id="SVGID_241_" d="M171.3,498.7C167.1,680.2,310.9,830.8,492.4,835c181.5,4.2,332.1-139.6,336.3-321.1
				c4.2-181.5-139.6-332.1-321.1-336.3c-2.6-0.1-5.1-0.1-7.7-0.1C321.8,177.5,175.4,319.7,171.3,498.7"/>
		</defs>
		<clipPath id="SVGID_242_">
			<use xlink:href="#SVGID_241_"  style="overflow:visible;"/>
		</clipPath>
		<path class="st120" d="M208,177.5v657.6h-4c0-219.2,0-438.4,0-657.6L208,177.5L208,177.5z"/>
	</g>
	<g>
		<defs>
			<path id="SVGID_243_" d="M171.3,498.7C167.1,680.2,310.9,830.8,492.4,835c181.5,4.2,332.1-139.6,336.3-321.1
				c4.2-181.5-139.6-332.1-321.1-336.3c-2.6-0.1-5.1-0.1-7.7-0.1C321.8,177.5,175.4,319.7,171.3,498.7"/>
		</defs>
		<clipPath id="SVGID_244_">
			<use xlink:href="#SVGID_243_"  style="overflow:visible;"/>
		</clipPath>
		<path class="st121" d="M187,835.1c0-219.2,0-438.4,0-657.6h4v657.6H187z"/>
	</g>
	<g>
		<defs>
			<path id="SVGID_245_" d="M171.3,498.7C167.1,680.2,310.9,830.8,492.4,835c181.5,4.2,332.1-139.6,336.3-321.1
				c4.2-181.5-139.6-332.1-321.1-336.3c-2.6-0.1-5.1-0.1-7.7-0.1C321.8,177.5,175.4,319.7,171.3,498.7"/>
		</defs>
		<clipPath id="SVGID_246_">
			<use xlink:href="#SVGID_245_"  style="overflow:visible;"/>
		</clipPath>
		<path class="st122" d="M812.7,835.1c0-103.2,0-206.4,0-309.6c0-116,0-232,0-348h4c0,1.5,0,2.9,0,4.4c0,216.3,0,432.6,0,648.8
			c0,1.5,0,2.9,0,4.4H812.7z"/>
	</g>
	<g>
		<defs>
			<path id="SVGID_247_" d="M171.3,498.7C167.1,680.2,310.9,830.8,492.4,835c181.5,4.2,332.1-139.6,336.3-321.1
				c4.2-181.5-139.6-332.1-321.1-336.3c-2.6-0.1-5.1-0.1-7.7-0.1C321.8,177.5,175.4,319.7,171.3,498.7"/>
		</defs>
		<clipPath id="SVGID_248_">
			<use xlink:href="#SVGID_247_"  style="overflow:visible;"/>
		</clipPath>
		<path class="st123" d="M174.1,177.5c0,1.6,0,3.2,0,4.7c0,216,0,432.1,0,648.1c0,1.6,0,3.2,0,4.7h-4c0-1.6,0-3.2,0-4.7
			c0-216,0-432.1,0-648.1c0-1.6,0-3.2,0-4.7L174.1,177.5L174.1,177.5z"/>
	</g>
	<g>
		<defs>
			<path id="SVGID_249_" d="M171.3,498.7C167.1,680.2,310.9,830.8,492.4,835c181.5,4.2,332.1-139.6,336.3-321.1
				c4.2-181.5-139.6-332.1-321.1-336.3c-2.6-0.1-5.1-0.1-7.7-0.1C321.8,177.5,175.4,319.7,171.3,498.7"/>
		</defs>
		<clipPath id="SVGID_250_">
			<use xlink:href="#SVGID_249_"  style="overflow:visible;"/>
		</clipPath>
		<path class="st124" d="M825.2,835.1c0-46.9,0-93.7,0-140.6c0-170.9,0-341.8,0-512.7c0-1.5,0-2.9,0-4.4h4c0,219.2,0,438.4,0,657.6
			H825.2z"/>
	</g>
</g>
<g class="st125">
	<path class="st126" d="M84.2,654.4c-0.9-6-0.9-11.6-0.1-16.8l18.4,0.5c-0.5,5.1-0.5,10.2,0.1,15.4c0.6,5.2,1.6,9.4,3,12.5
		c1.2,2.5,2.5,4.4,4.2,5.5c1.6,1.1,3.3,1.2,5.1,0.4c2.4-1.1,3.7-3.1,3.9-6s-0.1-7.3-1-13c-0.9-6-1.3-11-1.4-15.1
		c0-4.1,0.9-8.1,2.8-11.9c1.9-3.9,5.4-6.9,10.5-9.2c4.9-2.2,9.7-2.8,14.5-1.7c4.7,1.1,9,3.5,12.9,7.3c3.9,3.8,7.1,8.6,9.7,14.3
		c2.9,6.3,4.6,13,5.2,20.2c0.6,7.1,0.1,13.9-1.6,20.1l-18.3-0.7c1.6-5.4,2.2-11.1,2-17.3c-0.2-6.2-1.3-11.3-3.1-15.3
		c-1.4-3.1-3.1-5.3-5-6.5c-1.9-1.2-4-1.4-6.2-0.4c-2.5,1.1-3.8,3.2-4,6.2c-0.2,3,0.2,7.4,1.2,13.2c0.9,5.9,1.4,10.8,1.5,14.8
		c0.1,4-0.8,7.9-2.7,11.7c-1.9,3.8-5.2,6.8-10.1,9c-4.6,2.1-9.2,2.7-13.8,1.7c-4.6-0.9-8.8-3.3-12.8-7c-4-3.7-7.3-8.6-10.1-14.6
		C86.7,666.1,85.1,660.4,84.2,654.4z"/>
</g>
<g class="st125">
	<path class="st126" d="M59.8,560.4c1.2-6.4,3.5-12.1,6.9-17.2l16.8,9c-2.7,3.4-4.6,7.1-5.8,11.2c-1.1,4.1-1.3,8-0.5,11.7
		c0.9,4.3,2.8,8,5.6,11c2.8,3,6.2,5.1,10.2,6.4c4,1.2,8.3,1.4,12.7,0.4c4.5-1,8.4-2.8,11.6-5.5c3.2-2.7,5.5-6.1,6.9-10
		c1.4-3.9,1.6-8,0.7-12.3c-0.7-3.4-2.3-6.8-4.8-10.2c-2.5-3.3-5.5-6.2-9.1-8.4l10.3-14.9c5.5,3.5,10.2,8,14.2,13.4
		c4,5.5,6.6,11.2,7.9,17.2c1.7,8.1,1.4,15.8-0.8,23.1c-2.3,7.3-6.2,13.5-11.8,18.6c-5.6,5.1-12.4,8.5-20.2,10.1
		c-7.8,1.6-15.2,1.2-22.3-1.3c-7.1-2.5-13.1-6.7-18.1-12.6c-5-5.9-8.4-12.9-10.1-21.1C58.5,573,58.5,566.8,59.8,560.4z"/>
</g>
<g class="st125">
	<path class="st126" d="M136.1,517.3l-83.4,3.1l-0.8-21.3l83.4-3.1L136.1,517.3z"/>
</g>
<g class="st125">
	<path class="st126" d="M70.5,451.8l16.5,2l4.9-39.6l16.6,2.1l-4.9,39.6l16.6,2.1l5.6-45.1l16.6,2.1l-8.2,66.3l-82.9-10.3l8.1-65
		l16.6,2.1L70.5,451.8z"/>
</g>
<g class="st125">
	<path class="st126" d="M164.6,351.6l-61.7,17.7l48.1,18.3l-7.1,18.6l-78.1-29.6l6.7-17.6l61.9-17.7L86.1,323l7-18.5l78.1,29.6
		L164.6,351.6z"/>
</g>
<g class="st125">
	<path class="st126" d="M145,251.9l55.3,36.8l-11.8,17.7l-55.3-36.8l-13.8,20.8l-14.3-9.5l39.5-59.5l14.3,9.5L145,251.9z"/>
</g>
<g class="st125">
	<path class="st126" d="M219.8,263.4l-61.7-56.2l14.3-15.7l61.7,56.2L219.8,263.4z"/>
</g>
<g class="st125">
	<path class="st126" d="M231.5,141.4c5.6-2.3,11-3.8,16.2-4.3l4.1,17.9c-5,0.8-10,2.1-14.9,3.9c-4.9,1.9-8.7,3.9-11.4,6
		c-2.2,1.8-3.6,3.6-4.3,5.4c-0.7,1.8-0.4,3.5,0.9,5.1c1.7,2.1,3.9,2.8,6.8,2.3c2.9-0.5,7-1.9,12.3-4.2c5.6-2.4,10.4-4,14.3-5.1
		c4-1,8-1.1,12.2-0.2c4.2,0.9,8.1,3.5,11.5,7.8c3.4,4.2,5.1,8.7,5.2,13.6c0.1,4.9-1.2,9.6-3.9,14.3c-2.7,4.7-6.5,9-11.5,12.9
		c-5.4,4.3-11.5,7.7-18.2,10.1c-6.8,2.4-13.4,3.5-19.9,3.5l-3.8-17.9c5.6,0.2,11.4-0.6,17.3-2.4c5.9-1.8,10.6-4,14.1-6.8
		c2.7-2.1,4.4-4.3,5.1-6.4c0.7-2.2,0.3-4.2-1.2-6.1c-1.7-2.1-4-2.9-7-2.3c-3,0.6-7.1,2-12.5,4.4c-5.5,2.3-10.1,4-14,5.1
		c-3.9,1.1-7.9,1.2-12,0.3c-4.1-0.9-7.8-3.4-11.2-7.5c-3.2-4-4.9-8.3-5.1-12.9c-0.2-4.7,1-9.4,3.6-14.2c2.6-4.8,6.5-9.2,11.7-13.4
		C220.8,146.8,226,143.7,231.5,141.4z"/>
</g>
<g class="st125">
	<path class="st126" d="M303.9,116.1l30.7,58.9l-18.9,9.8L285,125.9l-22.1,11.5l-7.9-15.2l63.4-33l7.9,15.2L303.9,116.1z"/>
</g>
<g class="st125">
	<path class="st126" d="M387.3,69.4c6,0,11.6,0.8,16.6,2.3l-3.1,18.1c-4.9-1.2-10-1.9-15.3-2.1c-5.2-0.2-9.5,0.2-12.8,1.2
		c-2.7,0.8-4.7,1.9-6,3.3c-1.3,1.5-1.7,3.1-1.2,5c0.7,2.5,2.5,4.1,5.4,4.7c2.9,0.6,7.2,0.9,13,0.9c6.1,0,11.1,0.3,15.2,0.8
		c4,0.6,7.8,2.1,11.4,4.5c3.5,2.5,6.1,6.3,7.6,11.7c1.5,5.2,1.4,10-0.4,14.6c-1.8,4.5-4.8,8.4-9.1,11.7c-4.3,3.3-9.5,5.8-15.5,7.5
		c-6.6,1.9-13.5,2.7-20.7,2.3c-7.2-0.4-13.7-1.9-19.7-4.5l3.3-18c5.1,2.3,10.7,3.8,16.9,4.5c6.2,0.7,11.4,0.4,15.6-0.9
		c3.3-1,5.7-2.3,7.2-4c1.5-1.7,1.9-3.7,1.3-6c-0.8-2.6-2.6-4.2-5.6-4.8c-3-0.6-7.4-0.9-13.2-0.8c-5.9,0.1-10.9-0.2-14.9-0.7
		c-4-0.5-7.7-1.9-11.2-4.3c-3.5-2.4-5.9-6.1-7.4-11.3c-1.4-4.9-1.3-9.5,0.3-13.9c1.6-4.4,4.5-8.3,8.8-11.7c4.3-3.4,9.6-6,15.9-7.9
		C375.4,70.2,381.3,69.4,387.3,69.4z"/>
</g>
<g class="st125">
	<path class="st126" d="M485.9,72.8l-0.3,19.3l37.5,0.5l-0.2,16.7l-37.5-0.5l-0.4,30.7l-21.3-0.3l1.1-83.5l62,0.8l-0.2,16.7
		L485.9,72.8z"/>
</g>
<g class="st125">
	<path class="st126" d="M615,79.4c5.8,5.3,9.8,11.5,12,18.7c2.2,7.2,2.4,14.6,0.4,22.4c-2,7.8-5.7,14.4-11.1,19.7
		c-5.4,5.4-11.9,9-19.5,10.9c-7.6,1.9-15.5,1.8-23.8-0.3c-8.2-2.1-15.1-5.8-20.9-11.1c-5.8-5.3-9.7-11.6-12-18.9
		c-2.2-7.3-2.3-14.8-0.4-22.6c2-7.8,5.7-14.3,11.1-19.6c5.4-5.3,11.9-8.8,19.4-10.7c7.5-1.9,15.4-1.8,23.7,0.3
		C602.2,70.4,609.2,74.1,615,79.4z M577.6,85.9c-4.1,1.2-7.6,3.4-10.6,6.5c-3,3.1-5.1,6.9-6.2,11.4c-1.1,4.5-1.1,8.8,0,13.1
		c1.1,4.2,3.2,7.8,6.2,10.8c3,3,6.5,5,10.6,6c4.1,1,8.1,0.9,12.1-0.3c4-1.2,7.4-3.5,10.4-6.6c3-3.2,5-7,6.1-11.5
		c1.1-4.5,1.2-8.8,0.1-13c-1.1-4.2-3.1-7.7-6-10.7c-2.9-3-6.4-5-10.5-6C585.7,84.6,581.7,84.7,577.6,85.9z"/>
</g>
<g class="st125">
	<path class="st126" d="M671.9,163.6l-0.6-0.3l-14.1-7.7l-11.2,20.6L627.2,166l39.9-73.4l32.8,17.8c9.7,5.3,16.1,11.6,19,18.9
		c2.9,7.3,2.1,15.1-2.3,23.3c-3,5.6-6.8,9.8-11.2,12.5c-4.4,2.7-9.4,4-14.9,3.8l2.3,32.6l-21.2-11.5L671.9,163.6z M679.3,148.6
		c4.1,2.2,7.8,2.9,11.1,2.1c3.3-0.8,6.1-3.1,8.2-7c2.1-3.8,2.5-7.3,1.3-10.4c-1.2-3.2-3.8-5.8-7.9-8.1l-14.1-7.7l-12.7,23.4
		L679.3,148.6z"/>
</g>
<text transform="matrix(0.7905 0.6148 -0.614 0.7893 701.2476 212.0228)" class="st126 st127 st128"> </text>
<text transform="matrix(0.7314 0.6841 -0.6831 0.7303 726.53 231.5625)" class="st126 st127 st128"> </text>
<text transform="matrix(0.6664 0.7475 -0.7464 0.6655 749.9496 253.4507)" class="st126 st127 st128"> </text>
<text transform="matrix(0.5962 0.8046 -0.8034 0.5954 771.3226 277.19)" class="st126 st127 st128"> </text>
<text transform="matrix(0.5215 0.8549 -0.8537 0.5207 790.4009 302.9186)" class="st126 st127 st129"> </text>
<text transform="matrix(0.4426 0.8984 -0.8971 0.4419 807.1265 330.1085)" class="st126 st127 st130"> </text>
<text transform="matrix(0.3601 0.9344 -0.9331 0.3596 821.3731 358.8082)" class="st126 st127 st128"> </text>
<text transform="matrix(0.2747 0.963 -0.9616 0.2743 832.8848 388.6521)" class="st126 st127 st131"> </text>
<g class="st125">
	<path class="st126" d="M601.8,881.7l5.1,17.9l34.7-9.9l4.4,15.5l-34.7,9.9l8.2,28.5l-19.7,5.6l-22.2-77.4l57.4-16.4l4.4,15.5
		L601.8,881.7z"/>
</g>
<g class="st125">
	<path class="st126" d="M737.5,875.6c-0.1,6-1.9,11.6-5.4,16.7c-3.5,5.1-8.5,9.5-15,13.1c-6.6,3.6-13,5.6-19.3,5.8
		c-6.3,0.2-12-1.2-17.1-4.3c-5.2-3.1-9.5-7.7-12.9-13.9l-22.6-40.9l17.9-9.9l22.6,40.9c2.6,4.7,6,7.7,10.3,9s8.6,0.7,12.9-1.7
		c4.3-2.4,7-5.6,8-9.8c1.1-4.2,0.3-8.6-2.3-13.4l-22.6-40.9l17.8-9.8l22.6,40.9C736,863.5,737.6,869.6,737.5,875.6z"/>
</g>
<g class="st125">
	<path class="st126" d="M760.9,794.8l42.3,48.1l-15.4,13.5l-42.3-48.1l-18,15.9l-10.9-12.4l51.7-45.4l10.9,12.4L760.9,794.8z"/>
</g>
<g class="st125">
	<path class="st126" d="M865.7,745.6c2.4,5.5,3.1,11.3,2.2,17.4c-1,6.1-3.7,12.2-8.1,18.2c-4.5,6.1-9.5,10.5-15.1,13.3
		c-5.6,2.8-11.4,3.9-17.4,3.2c-6-0.7-11.8-3.1-17.5-7.2l-37.6-27.7l12.1-16.5l37.6,27.7c4.3,3.2,8.7,4.5,13.1,3.8
		c4.4-0.6,8.1-2.9,11-6.9c2.9-3.9,4-8,3.2-12.3c-0.8-4.2-3.4-8-7.7-11.2l-37.6-27.7l12.1-16.4l37.6,27.7
		C859.2,735.3,863.2,740.1,865.7,745.6z"/>
</g>
<g class="st125">
	<path class="st126" d="M891.4,677.4l-0.2,0.6l-5.9,14.3l20.9,8.7l-7.9,18.9L823.9,689l13.8-33.2c4.1-9.9,9.5-16.5,16.2-20
		c6.7-3.5,14.2-3.5,22.5-0.1c5.7,2.4,10,5.5,13.1,9.5c3.1,4,4.8,8.6,5.2,13.9l31-5.4l-8.9,21.4L891.4,677.4z M876.3,671.8
		c1.7-4.1,2-7.7,0.9-10.8c-1.1-3.1-3.6-5.5-7.5-7.1c-3.8-1.6-7.2-1.7-10.1-0.2c-2.9,1.4-5.2,4.2-6.9,8.3l-5.9,14.3l23.7,9.8
		L876.3,671.8z"/>
</g>
<g class="st125">
	<path class="st126" d="M873.1,594.5l15.8,2.8l6.6-37.8l15.9,2.8l-6.6,37.8l15.9,2.8l7.5-43.1l15.9,2.8L933,625.7l-79.3-13.9
		l10.9-62.1l15.9,2.8L873.1,594.5z"/>
</g>
</svg>
